<svg width="671" height="778" xmlns="http://www.w3.org/2000/svg" xmlns:xlink="http://www.w3.org/1999/xlink" overflow="hidden"><defs><clipPath id="clip0"><rect x="494" y="-634" width="671" height="778"/></clipPath></defs><g clip-path="url(#clip0)" transform="translate(-494 634)"><path d="M1102.07-171 558.932-171C525.28-171 498-198.28 498-231.932L498-364 1163-364 1163-231.932C1163-198.28 1135.72-171 1102.07-171Z" fill="#DBAE73" fill-rule="evenodd"/><path d="M1094-213 565.001-213C526.341-213 495-244.341 495-283.001L495-543.095C495-592.748 535.252-633 584.905-633L1074.09-633C1123.75-633 1164-592.748 1164-543.095L1164-283.001C1164-244.341 1132.66-213 1094-213Z" fill="#E8CCA6" fill-rule="evenodd"/><path d="M1112-207.5C1112-198.94 1105.06-192 1096.5-192 1087.94-192 1081-198.94 1081-207.5 1081-216.06 1087.94-223 1096.5-223 1105.06-223 1112-216.06 1112-207.5Z" fill="#DBAE73" fill-rule="evenodd"/><path d="M1082-198.5C1082-189.94 1075.06-183 1066.5-183 1057.94-183 1051-189.94 1051-198.5 1051-207.06 1057.94-214 1066.5-214 1075.06-214 1082-207.06 1082-198.5Z" fill="#DBAE73" fill-rule="evenodd"/><path d="M1057-204.5C1057-195.94 1050.06-189 1041.5-189 1032.94-189 1026-195.94 1026-204.5 1026-213.06 1032.94-220 1041.5-220 1050.06-220 1057-213.06 1057-204.5Z" fill="#DBAE73" fill-rule="evenodd"/><path d="M1097-195.5C1097-186.94 1089.84-180 1081-180 1072.16-180 1065-186.94 1065-195.5 1065-204.06 1072.16-211 1081-211 1089.84-211 1097-204.06 1097-195.5Z" fill="#DBAE73" fill-rule="evenodd"/><path d="M1037-200.5C1037-191.94 1030.06-185 1021.5-185 1012.94-185 1006-191.94 1006-200.5 1006-209.06 1012.94-216 1021.5-216 1030.06-216 1037-209.06 1037-200.5Z" fill="#DBAE73" fill-rule="evenodd"/><path d="M1014-207.5C1014-198.94 1007.06-192 998.5-192 989.94-192 983-198.94 983-207.5 983-216.06 989.94-223 998.5-223 1007.06-223 1014-216.06 1014-207.5Z" fill="#DBAE73" fill-rule="evenodd"/><path d="M994-204.5C994-195.94 987.06-189 978.5-189 969.94-189 963-195.94 963-204.5 963-213.06 969.94-220 978.5-220 987.06-220 994-213.06 994-204.5Z" fill="#DBAE73" fill-rule="evenodd"/><path d="M979-210C979-201.163 972.06-194 963.5-194 954.94-194 948-201.163 948-210 948-218.837 954.94-226 963.5-226 972.06-226 979-218.837 979-210Z" fill="#DBAE73" fill-rule="evenodd"/><path d="M955-206.5C955-197.94 948.06-191 939.5-191 930.94-191 924-197.94 924-206.5 924-215.06 930.94-222 939.5-222 948.06-222 955-215.06 955-206.5Z" fill="#DBAE73" fill-rule="evenodd"/><path d="M935-198.5C935-189.94 928.06-183 919.5-183 910.94-183 904-189.94 904-198.5 904-207.06 910.94-214 919.5-214 928.06-214 935-207.06 935-198.5Z" fill="#DBAE73" fill-rule="evenodd"/><path d="M920-206.5C920-197.94 912.837-191 904-191 895.163-191 888-197.94 888-206.5 888-215.06 895.163-222 904-222 912.837-222 920-215.06 920-206.5Z" fill="#DBAE73" fill-rule="evenodd"/><path d="M903-200.5C903-191.94 896.06-185 887.5-185 878.94-185 872-191.94 872-200.5 872-209.06 878.94-216 887.5-216 896.06-216 903-209.06 903-200.5Z" fill="#DBAE73" fill-rule="evenodd"/><path d="M879-204.5C879-195.94 872.06-189 863.5-189 854.94-189 848-195.94 848-204.5 848-213.06 854.94-220 863.5-220 872.06-220 879-213.06 879-204.5Z" fill="#DBAE73" fill-rule="evenodd"/><path d="M866-198.5C866-189.94 858.837-183 850-183 841.163-183 834-189.94 834-198.5 834-207.06 841.163-214 850-214 858.837-214 866-207.06 866-198.5Z" fill="#DBAE73" fill-rule="evenodd"/><path d="M844-206.5C844-197.94 836.837-191 828-191 819.163-191 812-197.94 812-206.5 812-215.06 819.163-222 828-222 836.837-222 844-215.06 844-206.5Z" fill="#DBAE73" fill-rule="evenodd"/><path d="M825-203.5C825-194.94 818.06-188 809.5-188 800.94-188 794-194.94 794-203.5 794-212.06 800.94-219 809.5-219 818.06-219 825-212.06 825-203.5Z" fill="#DBAE73" fill-rule="evenodd"/><path d="M799-210.5C799-201.94 792.06-195 783.5-195 774.94-195 768-201.94 768-210.5 768-219.06 774.94-226 783.5-226 792.06-226 799-219.06 799-210.5Z" fill="#DBAE73" fill-rule="evenodd"/><path d="M776-222C776-213.163 769.06-206 760.5-206 751.94-206 745-213.163 745-222 745-230.837 751.94-238 760.5-238 769.06-238 776-230.837 776-222Z" fill="#DBAE73" fill-rule="evenodd"/><path d="M776-209C776-200.163 769.06-193 760.5-193 751.94-193 745-200.163 745-209 745-217.837 751.94-225 760.5-225 769.06-225 776-217.837 776-209Z" fill="#DBAE73" fill-rule="evenodd"/><path d="M763-213.5C763-204.94 755.837-198 747-198 738.163-198 731-204.94 731-213.5 731-222.06 738.163-229 747-229 755.837-229 763-222.06 763-213.5Z" fill="#DBAE73" fill-rule="evenodd"/><path d="M749-203.5C749-194.94 742.06-188 733.5-188 724.94-188 718-194.94 718-203.5 718-212.06 724.94-219 733.5-219 742.06-219 749-212.06 749-203.5Z" fill="#DBAE73" fill-rule="evenodd"/><path d="M725-213.5C725-204.94 718.06-198 709.5-198 700.94-198 694-204.94 694-213.5 694-222.06 700.94-229 709.5-229 718.06-229 725-222.06 725-213.5Z" fill="#DBAE73" fill-rule="evenodd"/><path d="M703-204C703-195.163 695.837-188 687-188 678.163-188 671-195.163 671-204 671-212.837 678.163-220 687-220 695.837-220 703-212.837 703-204Z" fill="#DBAE73" fill-rule="evenodd"/><path d="M678-205.5C678-196.94 671.06-190 662.5-190 653.94-190 647-196.94 647-205.5 647-214.06 653.94-221 662.5-221 671.06-221 678-214.06 678-205.5Z" fill="#DBAE73" fill-rule="evenodd"/><path d="M654-207C654-198.163 647.06-191 638.5-191 629.94-191 623-198.163 623-207 623-215.837 629.94-223 638.5-223 647.06-223 654-215.837 654-207Z" fill="#DBAE73" fill-rule="evenodd"/><path d="M631-217.5C631-208.94 624.06-202 615.5-202 606.94-202 600-208.94 600-217.5 600-226.06 606.94-233 615.5-233 624.06-233 631-226.06 631-217.5Z" fill="#DBAE73" fill-rule="evenodd"/><path d="M631-206.5C631-197.94 623.837-191 615-191 606.163-191 599-197.94 599-206.5 599-215.06 606.163-222 615-222 623.837-222 631-215.06 631-206.5Z" fill="#DBAE73" fill-rule="evenodd"/><path d="M610-208.5C610-199.94 602.837-193 594-193 585.163-193 578-199.94 578-208.5 578-217.06 585.163-224 594-224 602.837-224 610-217.06 610-208.5Z" fill="#DBAE73" fill-rule="evenodd"/><path d="M588-205.5C588-196.94 581.06-190 572.5-190 563.94-190 557-196.94 557-205.5 557-214.06 563.94-221 572.5-221 581.06-221 588-214.06 588-205.5Z" fill="#DBAE73" fill-rule="evenodd"/><path d="M565-220.5C565-211.94 558.06-205 549.5-205 540.94-205 534-211.94 534-220.5 534-229.06 540.94-236 549.5-236 558.06-236 565-229.06 565-220.5Z" fill="#DBAE73" fill-rule="evenodd"/><path d="M548-227C548-218.163 541.06-211 532.5-211 523.94-211 517-218.163 517-227 517-235.837 523.94-243 532.5-243 541.06-243 548-235.837 548-227Z" fill="#DBAE73" fill-rule="evenodd"/><path d="M531-241C531-235.477 526.299-231 520.5-231 514.701-231 510-235.477 510-241 510-246.523 514.701-251 520.5-251 526.299-251 531-246.523 531-241Z" fill="#DBAE73" fill-rule="evenodd"/><path d="M523-254.5C523-248.701 518.299-244 512.5-244 506.701-244 502-248.701 502-254.5 502-260.299 506.701-265 512.5-265 518.299-265 523-260.299 523-254.5Z" fill="#DBAE73" fill-rule="evenodd"/><path d="M516-266.5C516-262.358 512.866-259 509-259 505.134-259 502-262.358 502-266.5 502-270.642 505.134-274 509-274 512.866-274 516-270.642 516-266.5Z" fill="#DBAE73" fill-rule="evenodd"/><path d="M511-275.5C511-272.462 508.538-270 505.5-270 502.462-270 500-272.462 500-275.5 500-278.538 502.462-281 505.5-281 508.538-281 511-278.538 511-275.5Z" fill="#DBAE73" fill-rule="evenodd"/><path d="M507-281C507-278.791 505.209-277 503-277 500.791-277 499-278.791 499-281 499-283.209 500.791-285 503-285 505.209-285 507-283.209 507-281Z" fill="#DBAE73" fill-rule="evenodd"/><path d="M1123-219.5C1123-210.94 1116.06-204 1107.5-204 1098.94-204 1092-210.94 1092-219.5 1092-228.06 1098.94-235 1107.5-235 1116.06-235 1123-228.06 1123-219.5Z" fill="#DBAE73" fill-rule="evenodd"/><path d="M1145-229.5C1145-220.94 1138.06-214 1129.5-214 1120.94-214 1114-220.94 1114-229.5 1114-238.06 1120.94-245 1129.5-245 1138.06-245 1145-238.06 1145-229.5Z" fill="#DBAE73" fill-rule="evenodd"/><path d="M1104-212.5C1104-203.94 1097.06-197 1088.5-197 1079.94-197 1073-203.94 1073-212.5 1073-221.06 1079.94-228 1088.5-228 1097.06-228 1104-221.06 1104-212.5Z" fill="#DBAE73" fill-rule="evenodd"/><path d="M1079-217C1079-208.163 1072.06-201 1063.5-201 1054.94-201 1048-208.163 1048-217 1048-225.837 1054.94-233 1063.5-233 1072.06-233 1079-225.837 1079-217Z" fill="#DBAE73" fill-rule="evenodd"/><path d="M1154-243C1154-236.925 1149.08-232 1143-232 1136.92-232 1132-236.925 1132-243 1132-249.075 1136.92-254 1143-254 1149.08-254 1154-249.075 1154-243Z" fill="#DBAE73" fill-rule="evenodd"/><path d="M1156-255C1156-251.134 1152.64-248 1148.5-248 1144.36-248 1141-251.134 1141-255 1141-258.866 1144.36-262 1148.5-262 1152.64-262 1156-258.866 1156-255Z" fill="#DBAE73" fill-rule="evenodd"/><path d="M1160-261.5C1160-257.358 1156.87-254 1153-254 1149.13-254 1146-257.358 1146-261.5 1146-265.642 1149.13-269 1153-269 1156.87-269 1160-265.642 1160-261.5Z" fill="#DBAE73" fill-rule="evenodd"/><path d="M1163-268.5C1163-264.358 1159.87-261 1156-261 1152.13-261 1149-264.358 1149-268.5 1149-272.642 1152.13-276 1156-276 1159.87-276 1163-272.642 1163-268.5Z" fill="#DBAE73" fill-rule="evenodd"/><path d="M1163-271.5C1163-268.462 1160.54-266 1157.5-266 1154.46-266 1152-268.462 1152-271.5 1152-274.538 1154.46-277 1157.5-277 1160.54-277 1163-274.538 1163-271.5Z" fill="#DBAE73" fill-rule="evenodd"/><path d="M502-240.5C502-249.613 506.701-257 512.5-257 518.299-257 523-249.613 523-240.5 523-231.387 518.299-224 512.5-224 506.701-224 502-231.387 502-240.5Z" fill="#DBAE73" fill-rule="evenodd"/><path d="M509.471-267.045C512.569-265.915 513.495-260.649 511.538-255.283 509.581-249.917 505.483-246.483 502.385-247.613 499.287-248.743 498.362-254.009 500.319-259.375 502.275-264.741 506.373-268.175 509.471-267.045Z" fill="#DBAE73" fill-rule="evenodd"/><rect x="498" y="-281" width="10" height="29" fill="#DBAE73"/><rect x="1150" y="-268" width="13" height="37" fill="#DBAE73"/><rect x="1144" y="-236" width="8" height="8" fill="#DBAE73"/><rect x="498" y="-203" width="665" height="347" fill="#DBAE73"/><rect x="498" y="-228" width="41" height="98" fill="#DBAE73"/><rect x="1123" y="-235" width="41" height="33" fill="#DBAE73"/></g></svg>