<svg width="667" height="443" xmlns="http://www.w3.org/2000/svg" xmlns:xlink="http://www.w3.org/1999/xlink" overflow="hidden"><defs><clipPath id="clip0"><rect x="473" y="256" width="667" height="443"/></clipPath></defs><g clip-path="url(#clip0)" transform="translate(-473 -256)"><path d="M581.493 256 1031.51 256C1090.87 256 1139 304.126 1139 363.493L1139 663 474 663 474 363.493C474 304.126 522.126 256 581.493 256Z" fill="#F7F6F5" fill-rule="evenodd"/><path d="M581.493 291 1031.51 291C1090.87 291 1139 339.126 1139 398.493L1139 698 474 698 474 398.493C474 339.126 522.126 291 581.493 291Z" fill="#75BFC1" fill-rule="evenodd"/><path d="M526 298.5C526 289.94 533.163 283 542 283 550.837 283 558 289.94 558 298.5 558 307.06 550.837 314 542 314 533.163 314 526 307.06 526 298.5Z" fill="#F7F6F5" fill-rule="evenodd"/><path d="M556 288.5C556 279.94 562.94 273 571.5 273 580.06 273 587 279.94 587 288.5 587 297.06 580.06 304 571.5 304 562.94 304 556 297.06 556 288.5Z" fill="#F7F6F5" fill-rule="evenodd"/><path d="M581 295.5C581 286.94 588.163 280 597 280 605.837 280 613 286.94 613 295.5 613 304.06 605.837 311 597 311 588.163 311 581 304.06 581 295.5Z" fill="#F7F6F5" fill-rule="evenodd"/><path d="M541 286.5C541 277.94 548.163 271 557 271 565.837 271 573 277.94 573 286.5 573 295.06 565.837 302 557 302 548.163 302 541 295.06 541 286.5Z" fill="#F7F6F5" fill-rule="evenodd"/><path d="M601 291.5C601 282.94 607.94 276 616.5 276 625.06 276 632 282.94 632 291.5 632 300.06 625.06 307 616.5 307 607.94 307 601 300.06 601 291.5Z" fill="#F7F6F5" fill-rule="evenodd"/><path d="M624 298.5C624 289.94 630.94 283 639.5 283 648.06 283 655 289.94 655 298.5 655 307.06 648.06 314 639.5 314 630.94 314 624 307.06 624 298.5Z" fill="#F7F6F5" fill-rule="evenodd"/><path d="M644 295.5C644 286.94 650.94 280 659.5 280 668.06 280 675 286.94 675 295.5 675 304.06 668.06 311 659.5 311 650.94 311 644 304.06 644 295.5Z" fill="#F7F6F5" fill-rule="evenodd"/><path d="M659 300.5C659 291.94 665.94 285 674.5 285 683.06 285 690 291.94 690 300.5 690 309.06 683.06 316 674.5 316 665.94 316 659 309.06 659 300.5Z" fill="#F7F6F5" fill-rule="evenodd"/><path d="M683 297.5C683 288.94 689.94 282 698.5 282 707.06 282 714 288.94 714 297.5 714 306.06 707.06 313 698.5 313 689.94 313 683 306.06 683 297.5Z" fill="#F7F6F5" fill-rule="evenodd"/><path d="M703 288.5C703 279.94 709.94 273 718.5 273 727.06 273 734 279.94 734 288.5 734 297.06 727.06 304 718.5 304 709.94 304 703 297.06 703 288.5Z" fill="#F7F6F5" fill-rule="evenodd"/><path d="M718 297C718 288.163 725.163 281 734 281 742.837 281 750 288.163 750 297 750 305.837 742.837 313 734 313 725.163 313 718 305.837 718 297Z" fill="#F7F6F5" fill-rule="evenodd"/><path d="M735 291.5C735 282.94 741.94 276 750.5 276 759.06 276 766 282.94 766 291.5 766 300.06 759.06 307 750.5 307 741.94 307 735 300.06 735 291.5Z" fill="#F7F6F5" fill-rule="evenodd"/><path d="M759 295.5C759 286.94 765.94 280 774.5 280 783.06 280 790 286.94 790 295.5 790 304.06 783.06 311 774.5 311 765.94 311 759 304.06 759 295.5Z" fill="#F7F6F5" fill-rule="evenodd"/><path d="M772 288.5C772 279.94 779.163 273 788 273 796.837 273 804 279.94 804 288.5 804 297.06 796.837 304 788 304 779.163 304 772 297.06 772 288.5Z" fill="#F7F6F5" fill-rule="evenodd"/><path d="M794 297C794 288.163 801.163 281 810 281 818.837 281 826 288.163 826 297 826 305.837 818.837 313 810 313 801.163 313 794 305.837 794 297Z" fill="#F7F6F5" fill-rule="evenodd"/><path d="M813 294.5C813 285.94 819.94 279 828.5 279 837.06 279 844 285.94 844 294.5 844 303.06 837.06 310 828.5 310 819.94 310 813 303.06 813 294.5Z" fill="#F7F6F5" fill-rule="evenodd"/><path d="M839 301.5C839 292.94 845.94 286 854.5 286 863.06 286 870 292.94 870 301.5 870 310.06 863.06 317 854.5 317 845.94 317 839 310.06 839 301.5Z" fill="#F7F6F5" fill-rule="evenodd"/><path d="M862 312.5C862 303.94 868.94 297 877.5 297 886.06 297 893 303.94 893 312.5 893 321.06 886.06 328 877.5 328 868.94 328 862 321.06 862 312.5Z" fill="#F7F6F5" fill-rule="evenodd"/><path d="M862 299.5C862 290.94 868.94 284 877.5 284 886.06 284 893 290.94 893 299.5 893 308.06 886.06 315 877.5 315 868.94 315 862 308.06 862 299.5Z" fill="#F7F6F5" fill-rule="evenodd"/><path d="M875 304.5C875 295.94 882.163 289 891 289 899.837 289 907 295.94 907 304.5 907 313.06 899.837 320 891 320 882.163 320 875 313.06 875 304.5Z" fill="#F7F6F5" fill-rule="evenodd"/><path d="M889 294.5C889 285.94 895.94 279 904.5 279 913.06 279 920 285.94 920 294.5 920 303.06 913.06 310 904.5 310 895.94 310 889 303.06 889 294.5Z" fill="#F7F6F5" fill-rule="evenodd"/><path d="M913 304C913 295.163 920.163 288 929 288 937.837 288 945 295.163 945 304 945 312.837 937.837 320 929 320 920.163 320 913 312.837 913 304Z" fill="#F7F6F5" fill-rule="evenodd"/><path d="M935 294.5C935 285.94 942.163 279 951 279 959.837 279 967 285.94 967 294.5 967 303.06 959.837 310 951 310 942.163 310 935 303.06 935 294.5Z" fill="#F7F6F5" fill-rule="evenodd"/><path d="M960 296.5C960 287.94 966.94 281 975.5 281 984.06 281 991 287.94 991 296.5 991 305.06 984.06 312 975.5 312 966.94 312 960 305.06 960 296.5Z" fill="#F7F6F5" fill-rule="evenodd"/><path d="M984 297.5C984 288.94 990.94 282 999.5 282 1008.06 282 1015 288.94 1015 297.5 1015 306.06 1008.06 313 999.5 313 990.94 313 984 306.06 984 297.5Z" fill="#F7F6F5" fill-rule="evenodd"/><path d="M1007 308.5C1007 299.94 1013.94 293 1022.5 293 1031.06 293 1038 299.94 1038 308.5 1038 317.06 1031.06 324 1022.5 324 1013.94 324 1007 317.06 1007 308.5Z" fill="#F7F6F5" fill-rule="evenodd"/><path d="M1007 297.5C1007 288.94 1014.16 282 1023 282 1031.84 282 1039 288.94 1039 297.5 1039 306.06 1031.84 313 1023 313 1014.16 313 1007 306.06 1007 297.5Z" fill="#F7F6F5" fill-rule="evenodd"/><path d="M1028 299.5C1028 290.94 1035.16 284 1044 284 1052.84 284 1060 290.94 1060 299.5 1060 308.06 1052.84 315 1044 315 1035.16 315 1028 308.06 1028 299.5Z" fill="#F7F6F5" fill-rule="evenodd"/><path d="M1050 296.5C1050 287.94 1056.94 281 1065.5 281 1074.06 281 1081 287.94 1081 296.5 1081 305.06 1074.06 312 1065.5 312 1056.94 312 1050 305.06 1050 296.5Z" fill="#F7F6F5" fill-rule="evenodd"/><path d="M1073 310.5C1073 301.94 1079.94 295 1088.5 295 1097.06 295 1104 301.94 1104 310.5 1104 319.06 1097.06 326 1088.5 326 1079.94 326 1073 319.06 1073 310.5Z" fill="#F7F6F5" fill-rule="evenodd"/><path d="M1090 317.5C1090 308.94 1096.94 302 1105.5 302 1114.06 302 1121 308.94 1121 317.5 1121 326.06 1114.06 333 1105.5 333 1096.94 333 1090 326.06 1090 317.5Z" fill="#F7F6F5" fill-rule="evenodd"/><path d="M1107 331.5C1107 325.701 1111.7 321 1117.5 321 1123.3 321 1128 325.701 1128 331.5 1128 337.299 1123.3 342 1117.5 342 1111.7 342 1107 337.299 1107 331.5Z" fill="#F7F6F5" fill-rule="evenodd"/><path d="M1115 345.5C1115 339.701 1119.7 335 1125.5 335 1131.3 335 1136 339.701 1136 345.5 1136 351.299 1131.3 356 1125.5 356 1119.7 356 1115 351.299 1115 345.5Z" fill="#F7F6F5" fill-rule="evenodd"/><path d="M1122 357C1122 353.134 1125.13 350 1129 350 1132.87 350 1136 353.134 1136 357 1136 360.866 1132.87 364 1129 364 1125.13 364 1122 360.866 1122 357Z" fill="#F7F6F5" fill-rule="evenodd"/><path d="M1127 366.5C1127 363.462 1129.46 361 1132.5 361 1135.54 361 1138 363.462 1138 366.5 1138 369.538 1135.54 372 1132.5 372 1129.46 372 1127 369.538 1127 366.5Z" fill="#F7F6F5" fill-rule="evenodd"/><path d="M1131 371C1131 368.791 1132.79 367 1135 367 1137.21 367 1139 368.791 1139 371 1139 373.209 1137.21 375 1135 375 1132.79 375 1131 373.209 1131 371Z" fill="#F7F6F5" fill-rule="evenodd"/><path d="M515 310.5C515 301.94 521.94 295 530.5 295 539.06 295 546 301.94 546 310.5 546 319.06 539.06 326 530.5 326 521.94 326 515 319.06 515 310.5Z" fill="#F7F6F5" fill-rule="evenodd"/><path d="M493 320.5C493 311.94 499.94 305 508.5 305 517.06 305 524 311.94 524 320.5 524 329.06 517.06 336 508.5 336 499.94 336 493 329.06 493 320.5Z" fill="#F7F6F5" fill-rule="evenodd"/><path d="M534 303.5C534 294.94 540.94 288 549.5 288 558.06 288 565 294.94 565 303.5 565 312.06 558.06 319 549.5 319 540.94 319 534 312.06 534 303.5Z" fill="#F7F6F5" fill-rule="evenodd"/><path d="M559 307.5C559 298.94 565.94 292 574.5 292 583.06 292 590 298.94 590 307.5 590 316.06 583.06 323 574.5 323 565.94 323 559 316.06 559 307.5Z" fill="#F7F6F5" fill-rule="evenodd"/><path d="M484 334C484 327.925 488.925 323 495 323 501.075 323 506 327.925 506 334 506 340.075 501.075 345 495 345 488.925 345 484 340.075 484 334Z" fill="#F7F6F5" fill-rule="evenodd"/><path d="M482 345.5C482 341.358 485.358 338 489.5 338 493.642 338 497 341.358 497 345.5 497 349.642 493.642 353 489.5 353 485.358 353 482 349.642 482 345.5Z" fill="#F7F6F5" fill-rule="evenodd"/><path d="M478 352.5C478 348.358 481.134 345 485 345 488.866 345 492 348.358 492 352.5 492 356.642 488.866 360 485 360 481.134 360 478 356.642 478 352.5Z" fill="#F7F6F5" fill-rule="evenodd"/><path d="M473 359C473 355.134 476.358 352 480.5 352 484.642 352 488 355.134 488 359 488 362.866 484.642 366 480.5 366 476.358 366 473 362.866 473 359Z" fill="#F7F6F5" fill-rule="evenodd"/><path d="M474 369.5C474 366.462 476.462 364 479.5 364 482.538 364 485 366.462 485 369.5 485 372.538 482.538 375 479.5 375 476.462 375 474 372.538 474 369.5Z" fill="#F7F6F5" fill-rule="evenodd"/><path d="M555.103 454.952C568.061 451.591 622.023 420.714 666.933 422.041 711.842 423.369 817.016 461.145 824.56 462.915 832.104 464.684 740.598 438.408 712.197 432.658 683.796 426.907 674.654 426.819 654.152 428.411 633.65 430.004 605.426 438.143 589.184 442.213 572.942 446.282 542.145 458.314 555.103 454.952Z" fill="#F7F6F5" fill-rule="evenodd"/><path d="M789.114 522.952C802.119 519.591 856.28 488.714 901.354 490.041 946.428 491.369 1051.99 529.145 1059.56 530.915 1067.13 532.684 975.289 506.408 946.784 500.658 918.279 494.907 909.104 494.819 888.526 496.411 867.949 498.004 839.622 506.143 823.32 510.213 807.019 514.282 776.108 526.314 789.114 522.952Z" fill="#F7F6F5" fill-rule="evenodd"/><path d="M870.001 398.717C869.801 397.933 914.908 394.492 939.561 400.352 964.213 406.213 1015.38 431.838 1017.92 433.882 1020.45 435.927 965.279 410.779 940.76 405.055 916.241 399.33 870.201 399.501 870.001 398.717Z" fill="#F7F6F5" fill-rule="evenodd"/><path d="M581.001 549.67C580.801 548.908 625.908 545.559 650.561 551.262 675.213 556.964 726.384 581.896 728.916 583.885 731.448 585.875 676.279 561.407 651.76 555.837 627.241 550.267 581.201 550.433 581.001 549.67Z" fill="#F7F6F5" fill-rule="evenodd"/><path d="M774 644.096C774.133 643.291 887.267 616.977 944.101 619.125 1000.93 621.273 1115.13 656.179 1115 656.985 1114.87 657.79 999.869 626.509 943.302 623.958 886.735 621.407 773.867 644.902 774 644.096Z" fill="#F7F6F5" fill-rule="evenodd"/></g></svg>