<svg width="1283" height="388" xmlns="http://www.w3.org/2000/svg" xmlns:xlink="http://www.w3.org/1999/xlink" overflow="hidden"><defs><clipPath id="clip0"><rect x="-3097" y="176" width="1283" height="388"/></clipPath></defs><g clip-path="url(#clip0)" transform="translate(3097 -176)"><path d="M-2455.5 177C-2180.16 177-1940.66 330.438-1817.86 556.462L-1814 564-3097 564-3093.14 556.462C-2970.34 330.438-2730.84 177-2455.5 177Z" fill="#E8CCA6" fill-rule="evenodd"/><path d="M-2455.5 177C-2283.51 177-2125.52 236.788-2001.25 336.673L-1976 358.37-1979.32 359.759C-2092.5 402.657-2263.79 430-2455.5 430-2647.21 430-2818.5 402.657-2931.68 359.759L-2935 358.37-2909.75 336.673C-2785.48 236.788-2627.48 177-2455.5 177Z" fill="#015E51" fill-rule="evenodd"/></g></svg>