<svg width="3369" height="670" xmlns="http://www.w3.org/2000/svg" xmlns:xlink="http://www.w3.org/1999/xlink" overflow="hidden"><defs><clipPath id="clip0"><rect x="-4067" y="398" width="3369" height="670"/></clipPath></defs><g clip-path="url(#clip0)" transform="translate(4067 -398)"><path d="M-4066.45 536.932C-4057.71 451.574-3927.23 418.334-3800.49 431.055-3673.75 443.777-3497.68 601.771-3306.01 613.261-3114.34 624.752-2871.47 509.026-2650.45 499.998-2429.44 490.97-2176.58 575.917-1979.91 559.092-1783.25 542.267-1669.62 401.098-1470.45 399.046-1271.29 396.994-903.553 463.475-784.929 546.781-666.304 630.087-680.664 824.194-758.706 898.882-836.749 973.57-1012.81 972.749-1253.18 994.909-1493.55 1017.07-1856.92 1025.69-2200.93 1031.84-2544.94 1038-3041.91 1046.62-3317.25 1031.84-3592.58 1017.07-3728.06 1026.51-3852.93 943.202-3977.8 859.896-4075.2 622.29-4066.45 536.932Z" fill="#4472C4" fill-rule="evenodd"/><rect x="-4067" y="712" width="3369" height="355" fill="#4472C4"/><rect x="-4066" y="547" width="144" height="423" fill="#4472C4"/></g></svg>