<svg width="2500" height="977" xmlns="http://www.w3.org/2000/svg" xmlns:xlink="http://www.w3.org/1999/xlink" overflow="hidden"><defs><clipPath id="clip0"><rect x="-3155" y="-676" width="2500" height="977"/></clipPath></defs><g clip-path="url(#clip0)" transform="translate(3155 676)"><rect x="-2267" y="-162" width="30" height="457" fill="#6A4322"/><rect x="-2249" y="-162" width="12" height="458" fill="#52331A"/><path d="M-2257.39-171.127-2246.48-166.588-2246.48-166.588-2257.39-171.127ZM-2296.06-187.222-2285.15-182.682-2285.15-182.682-2296.06-187.222ZM-2334.72-203.316-2323.82-198.777-2323.82-198.777-2334.72-203.316ZM-2373.39-219.41-2362.49-214.871-2362.49-214.871-2373.39-219.41ZM-2412.06-235.505-2401.15-230.965-2401.15-230.965-2412.06-235.505ZM-2450.73-251.599-2439.82-247.06-2439.82-247.06-2450.73-251.599ZM-2322.31-276.854C-2239.34-242.321-2184.13-185.376-2198.99-149.664L-2200.29-147.361-2246.48-166.588-2245.63-199.366-2257.39-171.127-2285.15-182.682-2284.3-215.461-2296.06-187.222-2323.82-198.777-2322.97-231.555-2334.72-203.316-2362.49-214.871-2361.64-247.649-2373.39-219.41-2401.15-230.965-2400.31-263.744-2412.06-235.505-2439.82-247.06-2438.97-279.838-2450.73-251.599-2500.17-272.18-2499.45-274.719C-2484.59-310.431-2405.28-311.387-2322.31-276.854Z" fill="#015E51" fill-rule="evenodd"/><path d="M-2264.05-130.587-2257.63-136.993-2257.63-136.993-2264.05-130.587ZM-2286.8-107.872-2280.38-114.279-2280.38-114.279-2286.8-107.872ZM-2309.55-85.1577-2303.13-91.5642-2303.13-91.5641-2309.55-85.1576ZM-2332.3-62.4432-2325.88-68.8497-2325.88-68.8497-2332.3-62.4432ZM-2355.05-39.7287-2348.63-46.1352-2348.63-46.1352-2355.05-39.7287ZM-2377.8-17.0142-2371.38-23.4208-2371.38-23.4207-2377.8-17.0142ZM-2358.08-115.519C-2309.26-164.257-2252.68-186.733-2231.7-165.721L-2230.45-164.129-2257.63-136.993-2280.63-147.202-2264.05-130.587-2280.38-114.279-2303.39-124.487-2286.8-107.872-2303.13-91.5642-2326.14-101.773-2309.55-85.1577-2325.88-68.8497-2348.89-79.0581-2332.3-62.4432-2348.63-46.1352-2371.64-56.3437-2355.05-39.7287-2371.38-23.4208-2394.39-33.6292-2377.8-17.0142-2406.89 12.0316-2408.48 10.7739C-2429.46-10.2381-2406.89-66.7814-2358.08-115.519Z" fill="#015E51" fill-rule="evenodd"/><path d="M-2287.53-158-2273.56-158-2273.56-158-2287.53-158ZM-2337.08-158-2323.11-158-2323.11-158-2337.08-158ZM-2386.63-158-2372.66-158-2372.66-158-2386.63-158ZM-2436.18-158-2422.2-158-2422.2-158-2436.18-158ZM-2485.73-158-2471.75-158-2471.75-158-2485.73-158ZM-2535.28-158-2521.3-158-2521.3-158-2535.28-158ZM-2406.5-244C-2300.19-244-2214-206.886-2214-161.104L-2214.36-158-2273.56-158-2287.53-194.202-2287.53-158-2323.11-158-2337.08-194.202-2337.08-158-2372.66-158-2386.63-194.202-2386.63-158-2422.2-158-2436.18-194.202-2436.18-158-2471.75-158-2485.73-194.202-2485.73-158-2521.3-158-2535.28-194.202-2535.28-158-2598.64-158-2599-161.104C-2599-206.886-2512.81-244-2406.5-244Z" fill="#015E51" fill-rule="evenodd"/><path d="M-2268.4-127.095-2255.46-132.376-2255.46-132.376-2268.4-127.095ZM-2314.28-108.372-2301.34-113.653-2301.34-113.653-2314.28-108.372ZM-2360.16-89.6482-2347.22-94.9291-2347.22-94.9291-2360.16-89.6482ZM-2406.04-70.9247-2393.1-76.2056-2393.1-76.2055-2406.04-70.9247ZM-2451.93-52.2012-2438.98-57.4821-2438.98-57.482-2451.93-52.2012ZM-2497.81-33.4777-2484.87-38.7586-2484.87-38.7585-2497.81-33.4776ZM-2411.04-161.739C-2312.6-201.913-2218.77-200.13-2201.48-157.755L-2200.64-154.745-2255.46-132.376-2282.07-160.602-2268.4-127.095-2301.34-113.653-2327.95-141.879-2314.28-108.372-2347.22-94.9291-2373.84-123.155-2360.16-89.6482-2393.1-76.2056-2419.72-104.432-2406.04-70.9247-2438.98-57.4821-2465.6-85.7083-2451.93-52.2012-2484.87-38.7586-2511.48-66.9848-2497.81-33.4777-2556.48-9.53521-2557.99-12.2706C-2575.28-54.6452-2509.49-121.564-2411.04-161.739Z" fill="#015E51" fill-rule="evenodd"/><path d="M263.283 72.6623 275.096 72.6623 275.096 72.6624 263.283 72.6624ZM221.4 72.6623 233.213 72.6623 233.213 72.6624 221.4 72.6624ZM179.516 72.6623 191.329 72.6623 191.329 72.6624 179.516 72.6624ZM137.633 72.6623 149.446 72.6623 149.446 72.6624 137.633 72.6624ZM95.7493 72.6623 107.562 72.6623 107.562 72.6624 95.7493 72.6624ZM53.8657 72.6623 65.6788 72.6623 65.6788 72.6624 53.8657 72.6624ZM162.721 0C252.589 0 325.441 31.3578 325.441 70.0397L325.133 72.6623 275.096 72.6623 263.283 42.0752 263.283 72.6623 233.213 72.6623 221.4 42.0752 221.4 72.6623 191.329 72.6623 179.516 42.0752 179.516 72.6623 149.446 72.6623 137.633 42.0752 137.633 72.6623 107.562 72.6623 95.7493 42.0752 95.7493 72.6623 65.6788 72.6623 53.8657 42.0752 53.8657 72.6623 0.307654 72.6623 0 70.0397C0 31.3578 72.8525 0 162.721 0Z" fill="#015E51" fill-rule="evenodd" transform="matrix(-0.923223 0.384264 0.384264 0.923223 -2036.51 -348.031)"/><path d="M202.092 55.7743 211.159 55.7743 211.159 55.7744 202.092 55.7744ZM169.943 55.7743 179.01 55.7743 179.01 55.7744 169.943 55.7744ZM137.794 55.7743 146.861 55.7743 146.861 55.7744 137.794 55.7744ZM105.644 55.7743 114.712 55.7743 114.712 55.7744 105.644 55.7744ZM73.4954 55.7743 82.5629 55.7743 82.5629 55.7744 73.4954 55.7744ZM41.3464 55.7743 50.4139 55.7743 50.4139 55.7744 41.3464 55.7744ZM124.901 0C193.883 0 249.803 24.0697 249.803 53.7613L249.567 55.7743 211.159 55.7743 202.092 32.2962 202.092 55.7743 179.01 55.7743 169.943 32.2962 169.943 55.7743 146.861 55.7743 137.794 32.2962 137.794 55.7743 114.712 55.7743 105.644 32.2962 105.644 55.7743 82.5629 55.7743 73.4954 32.2962 73.4954 55.7743 50.4139 55.7743 41.3464 32.2962 41.3464 55.7743 0.23615 55.7743 0 53.7613C0 24.0697 55.9203 0 124.901 0Z" fill="#015E51" fill-rule="evenodd" transform="matrix(-0.707677 -0.706536 -0.706536 0.707677 -2062.58 -35.9214)"/><path d="M311.467 85.9999 325.442 85.9999 325.442 86 311.467 86ZM261.918 85.9999 275.893 85.9999 275.893 86 261.918 86ZM212.37 85.9999 226.344 85.9999 226.344 86 212.37 86ZM162.821 85.9999 176.796 85.9999 176.796 86 162.821 86ZM113.272 85.9999 127.247 85.9999 127.247 86 113.272 86ZM63.7237 85.9999 77.6987 85.9999 77.6987 86 63.7237 86ZM192.5 0C298.815 0 385 37.1138 385 82.896L384.636 85.9999 325.442 85.9999 311.467 49.7983 311.467 85.9999 275.893 85.9999 261.918 49.7983 261.918 85.9999 226.344 85.9999 212.37 49.7983 212.37 85.9999 176.796 85.9999 162.821 49.7983 162.821 85.9999 127.247 85.9999 113.272 49.7983 113.272 85.9999 77.6987 85.9999 63.7237 49.7983 63.7237 85.9999 0.363958 85.9999 0 82.896C0 37.1138 86.1852 0 192.5 0Z" fill="#015E51" fill-rule="evenodd" transform="matrix(-1 0 0 1 -1910 -253)"/><path d="M311.508 85.9716 325.485 85.9716 325.485 85.9717 311.508 85.9717ZM261.953 85.9716 275.93 85.9716 275.93 85.9717 261.953 85.9717ZM212.398 85.9716 226.374 85.9716 226.374 85.9717 212.398 85.9717ZM162.842 85.9716 176.819 85.9716 176.819 85.9717 162.842 85.9717ZM113.287 85.9716 127.264 85.9716 127.264 85.9717 113.287 85.9717ZM63.7322 85.9716 77.709 85.9716 77.709 85.9717 63.7322 85.9717ZM192.526 0C298.854 0 385.051 37.1015 385.051 82.8687L384.687 85.9716 325.485 85.9716 311.508 49.7819 311.508 85.9716 275.93 85.9716 261.953 49.7819 261.953 85.9716 226.374 85.9716 212.398 49.7819 212.398 85.9716 176.819 85.9716 162.842 49.7819 162.842 85.9716 127.264 85.9716 113.287 49.7819 113.287 85.9716 77.709 85.9716 63.7322 49.7819 63.7322 85.9716 0.364006 85.9716 0 82.8687C0 37.1015 86.1966 0 192.526 0Z" fill="#015E51" fill-rule="evenodd" transform="matrix(-0.925874 -0.377832 -0.377832 0.925874 -1919.75 -97.6462)"/><rect x="-2633" y="-431" width="46" height="719" fill="#6A4322"/><rect x="-2604" y="-430" width="18" height="719" fill="#52331A"/><path d="M-2617.86-444.64-2600.73-437.51-2600.73-437.51-2617.86-444.64ZM-2678.59-469.92-2661.46-462.79-2661.46-462.79-2678.59-469.92ZM-2739.33-495.2-2722.2-488.07-2722.2-488.07-2739.33-495.2ZM-2800.07-520.48-2782.94-513.35-2782.94-513.349-2800.07-520.48ZM-2860.81-545.76-2843.67-538.63-2843.67-538.63-2860.81-545.76ZM-2921.54-571.04-2904.41-563.91-2904.41-563.909-2921.54-571.04ZM-2719.83-610.708C-2589.51-556.465-2502.79-467.02-2526.14-410.926L-2528.17-407.308-2600.73-437.51-2599.4-488.995-2617.86-444.64-2661.46-462.79-2660.13-514.275-2678.59-469.92-2722.2-488.07-2720.87-539.555-2739.33-495.2-2782.94-513.35-2781.61-564.835-2800.07-520.48-2843.67-538.63-2842.34-590.115-2860.81-545.76-2904.41-563.91-2903.08-615.395-2921.54-571.04-2999.21-603.366-2998.07-607.355C-2974.72-663.449-2850.15-664.95-2719.83-610.708Z" fill="#015E51" fill-rule="evenodd"/><path d="M-2628.31-380.961-2618.24-391.024-2618.24-391.023-2628.31-380.961ZM-2664.05-345.282-2653.97-355.345-2653.97-355.345-2664.05-345.282ZM-2699.79-309.604-2689.71-319.667-2689.71-319.667-2699.79-309.604ZM-2735.52-273.925-2725.44-283.988-2725.44-283.988-2735.52-273.925ZM-2771.26-238.247-2761.18-248.31-2761.18-248.31-2771.26-238.247ZM-2807-202.568-2796.92-212.631-2796.92-212.631-2807-202.568ZM-2776.02-357.294C-2699.34-433.848-2610.47-469.152-2577.51-436.147L-2575.54-433.648-2618.24-391.024-2654.37-407.058-2628.31-380.961-2653.97-355.345-2690.11-371.38-2664.05-345.282-2689.71-319.667-2725.84-335.701-2699.79-309.604-2725.44-283.988-2761.58-300.023-2735.52-273.925-2761.18-248.31-2797.31-264.344-2771.26-238.247-2796.92-212.631-2833.05-228.666-2807-202.568-2852.69-156.945-2855.19-158.92C-2888.14-191.925-2852.69-280.739-2776.02-357.294Z" fill="#015E51" fill-rule="evenodd"/><path d="M-2664.55-425-2642.59-425-2642.59-425-2664.55-425ZM-2742.41-425-2720.45-425-2720.45-425-2742.41-425ZM-2820.28-425-2798.32-425-2798.32-425-2820.28-425ZM-2898.14-425-2876.18-425-2876.18-425-2898.14-425ZM-2976-425-2954.04-425-2954.04-425-2976-425ZM-3053.86-425-3031.9-425-3031.9-425-3053.86-425ZM-2851.5-560C-2684.43-560-2549-501.74-2549-429.873L-2549.57-425-2642.59-425-2664.55-481.828-2664.55-425-2720.45-425-2742.41-481.828-2742.41-425-2798.32-425-2820.28-481.828-2820.28-425-2876.18-425-2898.14-481.828-2898.14-425-2954.04-425-2976-481.828-2976-425-3031.9-425-3053.86-481.828-3053.86-425-3153.43-425-3154-429.873C-3154-501.74-3018.57-560-2851.5-560Z" fill="#015E51" fill-rule="evenodd"/><path d="M-2635.15-375.477-2614.82-383.771-2614.82-383.771-2635.15-375.477ZM-2707.22-346.067-2686.89-354.362-2686.89-354.362-2707.22-346.067ZM-2779.29-316.657-2758.96-324.952-2758.96-324.952-2779.29-316.657ZM-2851.36-287.247-2831.03-295.542-2831.03-295.542-2851.36-287.247ZM-2923.42-257.838-2903.1-266.133-2903.1-266.132-2923.42-257.838ZM-2995.49-228.428-2975.17-236.723-2975.17-236.723-2995.49-228.428ZM-2859.21-429.893C-2704.58-492.996-2557.2-490.195-2530.04-423.635L-2528.73-418.906-2614.82-383.771-2656.63-428.107-2635.15-375.477-2686.89-354.362-2728.7-398.698-2707.22-346.067-2758.96-324.952-2800.77-369.288-2779.29-316.657-2831.03-295.542-2872.83-339.878-2851.36-287.247-2903.1-266.133-2944.9-310.469-2923.42-257.838-2975.17-236.723-3016.97-281.059-2995.49-228.428-3087.65-190.82-3090.02-195.117C-3117.18-261.677-3013.84-366.789-2859.21-429.893Z" fill="#015E51" fill-rule="evenodd"/><path d="M413.549 114.133 432.104 114.133 432.104 114.134 413.549 114.134ZM347.761 114.133 366.316 114.133 366.316 114.134 347.761 114.134ZM281.973 114.133 300.528 114.133 300.528 114.134 281.973 114.134ZM216.185 114.133 234.74 114.133 234.74 114.134 216.185 114.134ZM150.397 114.133 168.952 114.133 168.952 114.134 150.397 114.134ZM84.609 114.133 103.164 114.133 103.164 114.134 84.609 114.134ZM255.591 0C396.751 0 511.183 49.255 511.183 110.014L510.7 114.133 432.104 114.133 413.549 66.0891 413.549 114.133 366.316 114.133 347.761 66.0891 347.761 114.133 300.528 114.133 281.973 66.0891 281.973 114.133 234.74 114.133 216.185 66.0891 216.185 114.133 168.952 114.133 150.397 66.0891 150.397 114.133 103.164 114.133 84.609 66.0891 84.609 114.133 0.483244 114.133 0 110.014C0 49.255 114.432 0 255.591 0Z" fill="#015E51" fill-rule="evenodd" transform="matrix(-0.923223 0.384264 0.384264 0.923223 -2270.92 -722.509)"/><path d="M317.433 87.6069 331.676 87.6069 331.676 87.6069 317.433 87.6069ZM266.935 87.6069 281.178 87.6069 281.178 87.6069 266.935 87.6069ZM216.438 87.6069 230.68 87.6069 230.68 87.6069 216.438 87.6069ZM165.94 87.6069 180.183 87.6069 180.183 87.6069 165.94 87.6069ZM115.442 87.6069 129.685 87.6069 129.685 87.6069 115.442 87.6069ZM64.9444 87.6069 79.1871 87.6069 79.1871 87.6069 64.9444 87.6069ZM196.188 0C304.539 0 392.375 37.8073 392.375 84.4449L392.004 87.6069 331.676 87.6069 317.433 50.7288 317.433 87.6069 281.178 87.6069 266.935 50.7288 266.935 87.6069 230.68 87.6069 216.438 50.7288 216.438 87.6069 180.183 87.6069 165.94 50.7288 165.94 87.6069 129.685 87.6069 115.442 50.7288 115.442 87.6069 79.1871 87.6069 64.9444 50.7288 64.9444 87.6069 0.37093 87.6069 0 84.4449C0 37.8073 87.8361 0 196.188 0Z" fill="#015E51" fill-rule="evenodd" transform="matrix(-0.707677 -0.706536 -0.706536 0.707677 -2311.87 -232.266)"/><path d="M488.639 135 510.563 135 510.563 135 488.639 135ZM410.905 135 432.83 135 432.83 135 410.905 135ZM333.172 135 355.096 135 355.096 135 333.172 135ZM255.439 135 277.363 135 277.363 135 255.439 135ZM177.705 135 199.629 135 199.629 135 177.705 135ZM99.9717 135 121.896 135 121.896 135 99.9717 135ZM302 0C468.79 0 604 58.26 604 130.127L603.429 135 510.563 135 488.639 78.1718 488.639 135 432.83 135 410.905 78.1718 410.905 135 355.096 135 333.172 78.1718 333.172 135 277.363 135 255.439 78.1718 255.439 135 199.629 135 177.705 78.1718 177.705 135 121.896 135 99.9717 78.1718 99.9717 135 0.570989 135 0 130.127C0 58.26 135.21 0 302 0Z" fill="#015E51" fill-rule="evenodd" transform="matrix(-1 0 0 1 -2073 -573)"/><path d="M489.298 135.039 511.252 135.039 511.252 135.039 489.298 135.039ZM411.459 135.039 433.413 135.039 433.413 135.039 411.459 135.039ZM333.621 135.039 355.575 135.039 355.575 135.039 333.621 135.039ZM255.783 135.039 277.737 135.039 277.737 135.039 255.783 135.039ZM177.945 135.039 199.899 135.039 199.899 135.039 177.945 135.039ZM100.107 135.039 122.06 135.039 122.06 135.039 100.107 135.039ZM302.407 0C469.422 0 604.815 58.2769 604.815 130.165L604.243 135.039 511.252 135.039 489.298 78.1944 489.298 135.039 433.413 135.039 411.459 78.1944 411.459 135.039 355.575 135.039 333.621 78.1944 333.621 135.039 277.737 135.039 255.783 78.1944 255.783 135.039 199.899 135.039 177.945 78.1944 177.945 135.039 122.06 135.039 100.107 78.1944 100.107 135.039 0.571759 135.039 0 130.165C0 58.2769 135.392 0 302.407 0Z" fill="#015E51" fill-rule="evenodd" transform="matrix(-0.925874 -0.377832 -0.377832 0.925874 -2087.52 -329.22)"/><rect x="-1663" y="-158" width="30" height="457" fill="#6A4322"/><rect x="-1644" y="-158" width="11" height="458" fill="#52331A"/><path d="M-1652.97-167.208-1642.06-162.669-1642.06-162.669-1652.97-167.208ZM-1691.64-183.303-1680.73-178.763-1680.73-178.763-1691.64-183.303ZM-1730.31-199.397-1719.4-194.858-1719.4-194.858-1730.31-199.397ZM-1768.97-215.491-1758.07-210.952-1758.07-210.952-1768.97-215.491ZM-1807.64-231.586-1796.74-227.046-1796.74-227.046-1807.64-231.586ZM-1846.31-247.68-1835.4-243.141-1835.4-243.141-1846.31-247.68ZM-1717.89-272.934C-1634.92-238.401-1579.71-181.457-1594.58-145.745L-1595.87-143.442-1642.06-162.669-1641.22-195.447-1652.97-167.208-1680.73-178.763-1679.88-211.541-1691.64-183.303-1719.4-194.858-1718.55-227.636-1730.31-199.397-1758.07-210.952-1757.22-243.73-1768.97-215.491-1796.74-227.046-1795.89-259.824-1807.64-231.586-1835.4-243.141-1834.56-275.919-1846.31-247.68-1895.76-268.26-1895.03-270.8C-1880.17-306.512-1800.86-307.468-1717.89-272.934Z" fill="#015E51" fill-rule="evenodd"/><path d="M-1659.63-126.667-1653.21-133.074-1653.21-133.074-1659.63-126.667ZM-1682.38-103.953-1675.96-110.359-1675.96-110.359-1682.38-103.953ZM-1705.13-81.2385-1698.71-87.645-1698.71-87.645-1705.13-81.2385ZM-1727.88-58.524-1721.46-64.9305-1721.46-64.9305-1727.88-58.524ZM-1750.63-35.8096-1744.22-42.2161-1744.22-42.216-1750.63-35.8095ZM-1773.38-13.0951-1766.97-19.5016-1766.97-19.5016-1773.38-13.0951ZM-1753.66-111.6C-1704.84-160.338-1648.26-182.814-1627.29-161.802L-1626.03-160.21-1653.21-133.074-1676.22-143.282-1659.63-126.667-1675.96-110.359-1698.97-120.568-1682.38-103.953-1698.71-87.645-1721.72-97.8534-1705.13-81.2385-1721.46-64.9305-1744.47-75.139-1727.88-58.524-1744.22-42.2161-1767.22-52.4245-1750.63-35.8096-1766.97-19.5016-1789.97-29.71-1773.38-13.0951-1802.48 15.9508-1804.07 14.6931C-1825.04-6.31895-1802.48-62.8623-1753.66-111.6Z" fill="#015E51" fill-rule="evenodd"/><path d="M-1682.53-154-1668.56-154-1668.56-154-1682.53-154ZM-1732.08-154-1718.11-154-1718.11-154-1732.08-154ZM-1781.63-154-1767.66-154-1767.66-154-1781.63-154ZM-1831.18-154-1817.2-154-1817.2-154-1831.18-154ZM-1880.73-154-1866.75-154-1866.75-154-1880.73-154ZM-1930.28-154-1916.3-154-1916.3-154-1930.28-154ZM-1801.5-240C-1695.19-240-1609-202.886-1609-157.104L-1609.36-154-1668.56-154-1682.53-190.202-1682.53-154-1718.11-154-1732.08-190.202-1732.08-154-1767.66-154-1781.63-190.202-1781.63-154-1817.2-154-1831.18-190.202-1831.18-154-1866.75-154-1880.73-190.202-1880.73-154-1916.3-154-1930.28-190.202-1930.28-154-1993.64-154-1994-157.104C-1994-202.886-1907.81-240-1801.5-240Z" fill="#015E51" fill-rule="evenodd"/><path d="M-1663.98-123.176-1651.04-128.457-1651.04-128.457-1663.98-123.176ZM-1709.86-104.453-1696.92-109.733-1696.92-109.733-1709.86-104.453ZM-1755.74-85.7291-1742.8-91.01-1742.8-91.0099-1755.74-85.729ZM-1801.63-67.0056-1788.69-72.2864-1788.69-72.2864-1801.63-67.0055ZM-1847.51-48.2821-1834.57-53.5629-1834.57-53.5629-1847.51-48.282ZM-1893.39-29.5585-1880.45-34.8394-1880.45-34.8394-1893.39-29.5585ZM-1806.63-157.82C-1708.18-197.994-1614.35-196.211-1597.06-153.836L-1596.23-150.825-1651.04-128.457-1677.65-156.683-1663.98-123.176-1696.92-109.733-1723.54-137.96-1709.86-104.453-1742.8-91.01-1769.42-119.236-1755.74-85.7291-1788.69-72.2864-1815.3-100.513-1801.63-67.0056-1834.57-53.5629-1861.18-81.7891-1847.51-48.2821-1880.45-34.8394-1907.06-63.0656-1893.39-29.5585-1952.06-5.61605-1953.57-8.35145C-1970.86-50.726-1905.07-117.645-1806.63-157.82Z" fill="#015E51" fill-rule="evenodd"/><path d="M263.283 72.6623 275.096 72.6623 275.096 72.6624 263.283 72.6624ZM221.4 72.6623 233.213 72.6623 233.213 72.6624 221.4 72.6624ZM179.516 72.6623 191.329 72.6623 191.329 72.6624 179.516 72.6624ZM137.633 72.6623 149.446 72.6623 149.446 72.6624 137.633 72.6624ZM95.7493 72.6623 107.562 72.6623 107.562 72.6624 95.7493 72.6624ZM53.8657 72.6623 65.6788 72.6623 65.6788 72.6624 53.8657 72.6624ZM162.721 0C252.589 0 325.441 31.3578 325.441 70.0397L325.133 72.6623 275.096 72.6623 263.283 42.0752 263.283 72.6623 233.213 72.6623 221.4 42.0752 221.4 72.6623 191.329 72.6623 179.516 42.0752 179.516 72.6623 149.446 72.6623 137.633 42.0752 137.633 72.6623 107.562 72.6623 95.7493 42.0752 95.7493 72.6623 65.6788 72.6623 53.8657 42.0752 53.8657 72.6623 0.307654 72.6623 0 70.0397C0 31.3578 72.8525 0 162.721 0Z" fill="#015E51" fill-rule="evenodd" transform="matrix(-0.923223 0.384264 0.384264 0.923223 -1432.1 -344.112)"/><path d="M202.092 55.7743 211.159 55.7743 211.159 55.7744 202.092 55.7744ZM169.943 55.7743 179.01 55.7743 179.01 55.7744 169.943 55.7744ZM137.794 55.7743 146.861 55.7743 146.861 55.7744 137.794 55.7744ZM105.644 55.7743 114.712 55.7743 114.712 55.7744 105.644 55.7744ZM73.4954 55.7743 82.5629 55.7743 82.5629 55.7744 73.4954 55.7744ZM41.3464 55.7743 50.4139 55.7743 50.4139 55.7744 41.3464 55.7744ZM124.901 0C193.883 0 249.803 24.0697 249.803 53.7613L249.567 55.7743 211.159 55.7743 202.092 32.2962 202.092 55.7743 179.01 55.7743 169.943 32.2962 169.943 55.7743 146.861 55.7743 137.794 32.2962 137.794 55.7743 114.712 55.7743 105.644 32.2962 105.644 55.7743 82.5629 55.7743 73.4954 32.2962 73.4954 55.7743 50.4139 55.7743 41.3464 32.2962 41.3464 55.7743 0.23615 55.7743 0 53.7613C0 24.0697 55.9203 0 124.901 0Z" fill="#015E51" fill-rule="evenodd" transform="matrix(-0.707677 -0.706536 -0.706536 0.707677 -1458.16 -32.0022)"/><path d="M311.467 85.9999 325.442 85.9999 325.442 86 311.467 86ZM261.918 85.9999 275.893 85.9999 275.893 86 261.918 86ZM212.37 85.9999 226.344 85.9999 226.344 86 212.37 86ZM162.821 85.9999 176.796 85.9999 176.796 86 162.821 86ZM113.272 85.9999 127.247 85.9999 127.247 86 113.272 86ZM63.7237 85.9999 77.6987 85.9999 77.6987 86 63.7237 86ZM192.5 0C298.815 0 385 37.1138 385 82.896L384.636 85.9999 325.442 85.9999 311.467 49.7983 311.467 85.9999 275.893 85.9999 261.918 49.7983 261.918 85.9999 226.344 85.9999 212.37 49.7983 212.37 85.9999 176.796 85.9999 162.821 49.7983 162.821 85.9999 127.247 85.9999 113.272 49.7983 113.272 85.9999 77.6987 85.9999 63.7237 49.7983 63.7237 85.9999 0.363958 85.9999 0 82.896C0 37.1138 86.1852 0 192.5 0Z" fill="#015E51" fill-rule="evenodd" transform="matrix(-1 0 0 1 -1306 -249)"/><path d="M311.508 85.9716 325.485 85.9716 325.485 85.9717 311.508 85.9717ZM261.953 85.9716 275.93 85.9716 275.93 85.9717 261.953 85.9717ZM212.398 85.9716 226.374 85.9716 226.374 85.9717 212.398 85.9717ZM162.842 85.9716 176.819 85.9716 176.819 85.9717 162.842 85.9717ZM113.287 85.9716 127.264 85.9716 127.264 85.9717 113.287 85.9717ZM63.7322 85.9716 77.709 85.9716 77.709 85.9717 63.7322 85.9717ZM192.526 0C298.854 0 385.051 37.1015 385.051 82.8687L384.687 85.9716 325.485 85.9716 311.508 49.7819 311.508 85.9716 275.93 85.9716 261.953 49.7819 261.953 85.9716 226.374 85.9716 212.398 49.7819 212.398 85.9716 176.819 85.9716 162.842 49.7819 162.842 85.9716 127.264 85.9716 113.287 49.7819 113.287 85.9716 77.709 85.9716 63.7322 49.7819 63.7322 85.9716 0.364006 85.9716 0 82.8687C0 37.1015 86.1966 0 192.526 0Z" fill="#015E51" fill-rule="evenodd" transform="matrix(-0.925874 -0.377832 -0.377832 0.925874 -1315.33 -93.7271)"/><rect x="-1216" y="-441" width="47" height="718" fill="#6A4322"/><rect x="-1187" y="-441" width="18" height="719" fill="#52331A"/><path d="M-1200.51-455.386-1183.38-448.255-1183.38-448.255-1200.51-455.386ZM-1261.25-480.666-1244.12-473.535-1244.12-473.535-1261.25-480.666ZM-1321.99-505.946-1304.86-498.815-1304.86-498.815-1321.99-505.945ZM-1382.72-531.226-1365.59-524.095-1365.59-524.095-1382.72-531.225ZM-1443.46-556.506-1426.33-549.375-1426.33-549.375-1443.46-556.505ZM-1504.2-581.786-1487.07-574.655-1487.07-574.655-1504.2-581.785ZM-1302.49-621.454C-1172.16-567.211-1085.44-477.766-1108.79-421.672L-1110.82-418.054-1183.38-448.255-1182.05-499.741-1200.51-455.386-1244.12-473.535-1242.79-525.021-1261.25-480.666-1304.86-498.815-1303.53-550.301-1321.99-505.946-1365.59-524.095-1364.26-575.581-1382.72-531.226-1426.33-549.375-1425-600.861-1443.46-556.506-1487.07-574.655-1485.74-626.141-1504.2-581.786-1581.86-614.112-1580.73-618.101C-1557.38-674.195-1432.81-675.696-1302.49-621.454Z" fill="#015E51" fill-rule="evenodd"/><path d="M-1210.97-391.706-1200.89-401.769-1200.89-401.769-1210.97-391.706ZM-1246.71-356.028-1236.63-366.091-1236.63-366.091-1246.71-356.028ZM-1282.44-320.349-1272.36-330.412-1272.36-330.412-1282.44-320.349ZM-1318.18-284.671-1308.1-294.734-1308.1-294.734-1318.18-284.671ZM-1353.91-248.992-1343.84-259.055-1343.84-259.055-1353.91-248.992ZM-1389.65-213.314-1379.57-223.377-1379.57-223.377-1389.65-213.314ZM-1358.67-368.039C-1281.99-444.594-1193.12-479.898-1160.17-446.893L-1158.2-444.393-1200.89-401.769-1237.03-417.804-1210.97-391.706-1236.63-366.091-1272.76-382.126-1246.71-356.028-1272.36-330.412-1308.5-346.447-1282.44-320.349-1308.1-294.734-1344.23-310.769-1318.18-284.671-1343.84-259.055-1379.97-275.09-1353.91-248.992-1379.57-223.377-1415.71-239.412-1389.65-213.314-1435.35-167.69-1437.84-169.666C-1470.8-202.67-1435.35-291.485-1358.67-368.039Z" fill="#015E51" fill-rule="evenodd"/><path d="M-1247.55-435-1225.59-435-1225.59-435-1247.55-435ZM-1325.41-435-1303.45-435-1303.45-435-1325.41-435ZM-1403.28-435-1381.32-435-1381.32-435-1403.28-435ZM-1481.14-435-1459.18-435-1459.18-435-1481.14-435ZM-1559-435-1537.04-435-1537.04-435-1559-435ZM-1636.86-435-1614.9-435-1614.9-435-1636.86-435ZM-1434.5-570C-1267.43-570-1132-511.74-1132-439.873L-1132.57-435-1225.59-435-1247.55-491.828-1247.55-435-1303.45-435-1325.41-491.828-1325.41-435-1381.32-435-1403.28-491.828-1403.28-435-1459.18-435-1481.14-491.828-1481.14-435-1537.04-435-1559-491.828-1559-435-1614.9-435-1636.86-491.828-1636.86-435-1736.43-435-1737-439.873C-1737-511.74-1601.57-570-1434.5-570Z" fill="#015E51" fill-rule="evenodd"/><path d="M-1217.81-386.222-1197.48-394.517-1197.48-394.517-1217.81-386.222ZM-1289.88-356.813-1269.55-365.108-1269.55-365.107-1289.88-356.813ZM-1361.94-327.403-1341.62-335.698-1341.62-335.698-1361.94-327.403ZM-1434.01-297.993-1413.69-306.288-1413.69-306.288-1434.01-297.993ZM-1506.08-268.583-1485.75-276.878-1485.75-276.878-1506.08-268.583ZM-1578.15-239.174-1557.82-247.469-1557.82-247.469-1578.15-239.174ZM-1441.87-440.638C-1287.23-503.742-1139.86-500.94-1112.69-434.381L-1111.38-429.652-1197.48-394.517-1239.28-438.853-1217.81-386.222-1269.55-365.108-1311.35-409.444-1289.88-356.813-1341.62-335.698-1383.42-380.034-1361.94-327.403-1413.69-306.288-1455.49-350.624-1434.01-297.993-1485.75-276.878-1527.56-321.214-1506.08-268.583-1557.82-247.469-1599.63-291.805-1578.15-239.174-1670.31-201.566-1672.68-205.863C-1699.84-272.422-1596.5-377.535-1441.87-440.638Z" fill="#015E51" fill-rule="evenodd"/><path d="M413.549 114.133 432.104 114.133 432.104 114.134 413.549 114.134ZM347.761 114.133 366.316 114.133 366.316 114.134 347.761 114.134ZM281.973 114.133 300.528 114.133 300.528 114.134 281.973 114.134ZM216.185 114.133 234.74 114.133 234.74 114.134 216.185 114.134ZM150.397 114.133 168.952 114.133 168.952 114.134 150.397 114.134ZM84.609 114.133 103.164 114.133 103.164 114.134 84.609 114.134ZM255.591 0C396.751 0 511.183 49.255 511.183 110.014L510.7 114.133 432.104 114.133 413.549 66.0891 413.549 114.133 366.316 114.133 347.761 66.0891 347.761 114.133 300.528 114.133 281.973 66.0891 281.973 114.133 234.74 114.133 216.185 66.0891 216.185 114.133 168.952 114.133 150.397 66.0891 150.397 114.133 103.164 114.133 84.609 66.0891 84.609 114.133 0.483244 114.133 0 110.014C0 49.255 114.432 0 255.591 0Z" fill="#015E51" fill-rule="evenodd" transform="matrix(-0.923223 0.384264 0.384264 0.923223 -853.578 -733.255)"/><path d="M317.433 87.6069 331.676 87.6069 331.676 87.6069 317.433 87.6069ZM266.935 87.6069 281.178 87.6069 281.178 87.6069 266.935 87.6069ZM216.438 87.6069 230.68 87.6069 230.68 87.6069 216.438 87.6069ZM165.94 87.6069 180.183 87.6069 180.183 87.6069 165.94 87.6069ZM115.442 87.6069 129.685 87.6069 129.685 87.6069 115.442 87.6069ZM64.9444 87.6069 79.1871 87.6069 79.1871 87.6069 64.9444 87.6069ZM196.188 0C304.539 0 392.375 37.8073 392.375 84.4449L392.004 87.6069 331.676 87.6069 317.433 50.7288 317.433 87.6069 281.178 87.6069 266.935 50.7288 266.935 87.6069 230.68 87.6069 216.438 50.7288 216.438 87.6069 180.183 87.6069 165.94 50.7288 165.94 87.6069 129.685 87.6069 115.442 50.7288 115.442 87.6069 79.1871 87.6069 64.9444 50.7288 64.9444 87.6069 0.37093 87.6069 0 84.4449C0 37.8073 87.8361 0 196.188 0Z" fill="#015E51" fill-rule="evenodd" transform="matrix(-0.707677 -0.706536 -0.706536 0.707677 -894.523 -243.012)"/><path d="M489.448 135 511.408 135 511.408 135 489.448 135ZM411.586 135 433.546 135 433.546 135 411.586 135ZM333.724 135 355.684 135 355.684 135 333.724 135ZM255.861 135 277.822 135 277.822 135 255.861 135ZM177.999 135 199.96 135 199.96 135 177.999 135ZM100.137 135 122.098 135 122.098 135 100.137 135ZM302.5 0C469.566 0 605 58.26 605 130.127L604.428 135 511.408 135 489.448 78.1718 489.448 135 433.546 135 411.586 78.1718 411.586 135 355.684 135 333.724 78.1718 333.724 135 277.822 135 255.861 78.1718 255.861 135 199.96 135 177.999 78.1718 177.999 135 122.098 135 100.137 78.1718 100.137 135 0.571934 135 0 130.127C0 58.26 135.434 0 302.5 0Z" fill="#015E51" fill-rule="evenodd" transform="matrix(-1 0 0 1 -655 -584)"/><path d="M489.298 135.039 511.252 135.039 511.252 135.039 489.298 135.039ZM411.459 135.039 433.413 135.039 433.413 135.039 411.459 135.039ZM333.621 135.039 355.575 135.039 355.575 135.039 333.621 135.039ZM255.783 135.039 277.737 135.039 277.737 135.039 255.783 135.039ZM177.945 135.039 199.899 135.039 199.899 135.039 177.945 135.039ZM100.107 135.039 122.06 135.039 122.06 135.039 100.107 135.039ZM302.407 0C469.422 0 604.815 58.2769 604.815 130.165L604.243 135.039 511.252 135.039 489.298 78.1944 489.298 135.039 433.413 135.039 411.459 78.1944 411.459 135.039 355.575 135.039 333.621 78.1944 333.621 135.039 277.737 135.039 255.783 78.1944 255.783 135.039 199.899 135.039 177.945 78.1944 177.945 135.039 122.06 135.039 100.107 78.1944 100.107 135.039 0.571759 135.039 0 130.165C0 58.2769 135.392 0 302.407 0Z" fill="#015E51" fill-rule="evenodd" transform="matrix(-0.925874 -0.377832 -0.377832 0.925874 -670.174 -339.966)"/></g></svg>