<svg width="633" height="495" xmlns="http://www.w3.org/2000/svg" xmlns:xlink="http://www.w3.org/1999/xlink" overflow="hidden"><defs><clipPath id="clip0"><rect x="-492" y="-817" width="633" height="495"/></clipPath></defs><g clip-path="url(#clip0)" transform="translate(492 817)"><path d="M413.549 114.133 432.104 114.133 432.104 114.134 413.549 114.134ZM347.761 114.133 366.316 114.133 366.316 114.134 347.761 114.134ZM281.973 114.133 300.528 114.133 300.528 114.134 281.973 114.134ZM216.185 114.133 234.74 114.133 234.74 114.134 216.185 114.134ZM150.397 114.133 168.952 114.133 168.952 114.134 150.397 114.134ZM84.609 114.133 103.164 114.133 103.164 114.134 84.609 114.134ZM255.591 0C396.751 0 511.183 49.255 511.183 110.014L510.7 114.133 432.104 114.133 413.549 66.0891 413.549 114.133 366.316 114.133 347.761 66.0891 347.761 114.133 300.528 114.133 281.973 66.0891 281.973 114.133 234.74 114.133 216.185 66.0891 216.185 114.133 168.952 114.133 150.397 66.0891 150.397 114.133 103.164 114.133 84.609 66.0891 84.609 114.133 0.483244 114.133 0 110.014C0 49.255 114.432 0 255.591 0Z" fill="#015E51" fill-rule="evenodd" transform="matrix(-0.923223 0.384264 0.384264 0.923223 -57.9979 -874.833)"/><path d="M317.433 87.6069 331.676 87.6069 331.676 87.6069 317.433 87.6069ZM266.935 87.6069 281.178 87.6069 281.178 87.6069 266.935 87.6069ZM216.438 87.6069 230.68 87.6069 230.68 87.6069 216.438 87.6069ZM165.94 87.6069 180.183 87.6069 180.183 87.6069 165.94 87.6069ZM115.442 87.6069 129.685 87.6069 129.685 87.6069 115.442 87.6069ZM64.9444 87.6069 79.1871 87.6069 79.1871 87.6069 64.9444 87.6069ZM196.188 0C304.539 0 392.375 37.8073 392.375 84.4449L392.004 87.6069 331.676 87.6069 317.433 50.7288 317.433 87.6069 281.178 87.6069 266.935 50.7288 266.935 87.6069 230.68 87.6069 216.438 50.7288 216.438 87.6069 180.183 87.6069 165.94 50.7288 165.94 87.6069 129.685 87.6069 115.442 50.7288 115.442 87.6069 79.1871 87.6069 64.9444 50.7288 64.9444 87.6069 0.37093 87.6069 0 84.4449C0 37.8073 87.8361 0 196.188 0Z" fill="#015E51" fill-rule="evenodd" transform="matrix(-0.707677 -0.706536 -0.706536 0.707677 -98.9433 -384.591)"/><path d="M489.448 135 511.408 135 511.408 135 489.448 135ZM411.586 135 433.546 135 433.546 135 411.586 135ZM333.724 135 355.684 135 355.684 135 333.724 135ZM255.861 135 277.822 135 277.822 135 255.861 135ZM177.999 135 199.96 135 199.96 135 177.999 135ZM100.137 135 122.098 135 122.098 135 100.137 135ZM302.5 0C469.566 0 605 58.26 605 130.127L604.428 135 511.408 135 489.448 78.1718 489.448 135 433.546 135 411.586 78.1718 411.586 135 355.684 135 333.724 78.1718 333.724 135 277.822 135 255.861 78.1718 255.861 135 199.96 135 177.999 78.1718 177.999 135 122.098 135 100.137 78.1718 100.137 135 0.571934 135 0 130.127C0 58.26 135.434 0 302.5 0Z" fill="#015E51" fill-rule="evenodd" transform="matrix(-1 0 0 1 140 -726)"/><path d="M489.298 135.039 511.252 135.039 511.252 135.039 489.298 135.039ZM411.459 135.039 433.413 135.039 433.413 135.039 411.459 135.039ZM333.621 135.039 355.575 135.039 355.575 135.039 333.621 135.039ZM255.783 135.039 277.737 135.039 277.737 135.039 255.783 135.039ZM177.945 135.039 199.899 135.039 199.899 135.039 177.945 135.039ZM100.107 135.039 122.06 135.039 122.06 135.039 100.107 135.039ZM302.407 0C469.422 0 604.815 58.2769 604.815 130.165L604.243 135.039 511.252 135.039 489.298 78.1944 489.298 135.039 433.413 135.039 411.459 78.1944 411.459 135.039 355.575 135.039 333.621 78.1944 333.621 135.039 277.737 135.039 255.783 78.1944 255.783 135.039 199.899 135.039 177.945 78.1944 177.945 135.039 122.06 135.039 100.107 78.1944 100.107 135.039 0.571759 135.039 0 130.165C0 58.2769 135.392 0 302.407 0Z" fill="#015E51" fill-rule="evenodd" transform="matrix(-0.925874 -0.377832 -0.377832 0.925874 125.405 -481.545)"/></g></svg>