<svg width="1031" height="508" xmlns="http://www.w3.org/2000/svg" xmlns:xlink="http://www.w3.org/1999/xlink" overflow="hidden"><defs><clipPath id="clip0"><rect x="-862" y="73" width="1031" height="508"/></clipPath></defs><g clip-path="url(#clip0)" transform="translate(862 -73)"><path d="M-840.919 73-825.429 73C-817.217 73-810.172 78.0047-807.163 85.1373L-807.016 85.6109-750.271 185.554-750 185.554-750 239-861 239-861 202.728-861 185.554-861 160.358-860.743 160.358-860.743 92.8726C-860.743 81.8973-851.868 73-840.919 73Z" fill="#BDD7EE" fill-rule="evenodd"/><path d="M-785.339 201 28.2591 201C64.683 201 95.0724 226.81 102.101 261.12L103.22 272.21 114.018 273.297C144.826 279.595 168 306.825 168 339.462 168 376.762 137.731 407 100.393 407L96.1692 406.575 36.2062 406.575 35.9655 406.611C33.4317 406.868 30.8608 407 28.2591 407L-531.514 407-861 313.78-861 201.245-790.204 201.245Z" fill="#F2F2F2" fill-rule="evenodd"/><path d="M-264.701 319C-212.46 319-170.11 327.173-170.11 337.254L-170.238 337.499-170 337.747-170.742 338.464-172.032 340.933-175.589 343.145-405.947 565.601-406.623 566.584C-414 574.468-431.272 580-451.402 580-478.242 580-500 570.166-500 558.034-500 556.518-499.66 555.037-499.013 553.607L-498.009 552.146-498.563 551.786-359.512 337.216-359.208 337.413-359.291 337.254C-359.291 327.173-316.941 319-264.701 319Z" fill="#BDD7EE" fill-rule="evenodd"/><path d="M-31 254.5-31 254.5-31 254.5ZM-14.2271 238 92.818 238 98.2953 248.851C99.8655 252.768 101.105 256.848 101.981 261.06L103 271-14.2271 271C-21.1746 271-27.1356 266.845-29.6819 260.922L-31 254.5-29.6819 248.077C-27.1356 242.155-21.1746 238-14.2271 238Z" fill="#595959" fill-rule="evenodd"/><path d="M-660 247.228C-660 241.579-655.421 237-649.772 237L-640.228 237C-634.579 237-630 241.579-630 247.228L-630 279.772C-630 285.421-634.579 290-640.228 290L-649.772 290C-655.421 290-660 285.421-660 279.772Z" fill="#595959" fill-rule="evenodd"/><path d="M-599 247.228C-599 241.579-594.421 237-588.772 237L-579.228 237C-573.579 237-569 241.579-569 247.228L-569 279.772C-569 285.421-573.579 290-579.228 290L-588.772 290C-594.421 290-599 285.421-599 279.772Z" fill="#595959" fill-rule="evenodd"/><path d="M-538 247.228C-538 241.579-533.421 237-527.772 237L-518.228 237C-512.579 237-508 241.579-508 247.228L-508 279.772C-508 285.421-512.579 290-518.228 290L-527.772 290C-533.421 290-538 285.421-538 279.772Z" fill="#595959" fill-rule="evenodd"/><path d="M-476 247.228C-476 241.579-471.421 237-465.772 237L-456.228 237C-450.579 237-446 241.579-446 247.228L-446 279.772C-446 285.421-450.579 290-456.228 290L-465.772 290C-471.421 290-476 285.421-476 279.772Z" fill="#595959" fill-rule="evenodd"/><path d="M-415 247.228C-415 241.579-410.421 237-404.772 237L-395.228 237C-389.579 237-385 241.579-385 247.228L-385 279.772C-385 285.421-389.579 290-395.228 290L-404.772 290C-410.421 290-415 285.421-415 279.772Z" fill="#595959" fill-rule="evenodd"/><path d="M-354 247.228C-354 241.579-349.421 237-343.772 237L-334.228 237C-328.579 237-324 241.579-324 247.228L-324 279.772C-324 285.421-328.579 290-334.228 290L-343.772 290C-349.421 290-354 285.421-354 279.772Z" fill="#595959" fill-rule="evenodd"/><path d="M-293 247.228C-293 241.579-288.421 237-282.772 237L-273.228 237C-267.579 237-263 241.579-263 247.228L-263 279.772C-263 285.421-267.579 290-273.228 290L-282.772 290C-288.421 290-293 285.421-293 279.772Z" fill="#595959" fill-rule="evenodd"/><path d="M-232 247.228C-232 241.579-227.421 237-221.772 237L-212.228 237C-206.579 237-202 241.579-202 247.228L-202 279.772C-202 285.421-206.579 290-212.228 290L-221.772 290C-227.421 290-232 285.421-232 279.772Z" fill="#595959" fill-rule="evenodd"/><path d="M-170 247.228C-170 241.579-165.421 237-159.772 237L-150.228 237C-144.579 237-140 241.579-140 247.228L-140 279.772C-140 285.421-144.579 290-150.228 290L-159.772 290C-165.421 290-170 285.421-170 279.772Z" fill="#595959" fill-rule="evenodd"/><path d="M-109 247.228C-109 241.579-104.421 237-98.7721 237L-89.2279 237C-83.5792 237-79 241.579-79 247.228L-79 279.772C-79 285.421-83.5792 290-89.2279 290L-98.7721 290C-104.421 290-109 285.421-109 279.772Z" fill="#595959" fill-rule="evenodd"/><path d="M-861 301 157.287 301 159.096 303.614 163 312-859.495 312-861 311.573Z" fill="#BDD7EE" fill-rule="evenodd"/><rect x="11" y="407" width="40" height="9" fill="#BFBFBF"/><rect x="14" y="415" width="34" height="6" fill="#7F7F7F"/><rect x="20" y="421" width="23" height="12" fill="#595959"/><path d="M10 449C10 436.85 19.6259 427 31.5 427 43.3741 427 53 436.85 53 449 53 461.15 43.3741 471 31.5 471 19.6259 471 10 461.15 10 449Z" fill="#595959" fill-rule="evenodd"/><path d="M15 449C15 440.163 22.3873 433 31.5 433 40.6127 433 48 440.163 48 449 48 457.837 40.6127 465 31.5 465 22.3873 465 15 457.837 15 449Z" fill="#7F7F7F" fill-rule="evenodd"/><path d="M18 449C18 441.82 23.8203 436 31 436 38.1797 436 44 441.82 44 449 44 456.18 38.1797 462 31 462 23.8203 462 18 456.18 18 449Z" fill="#A6A6A6" fill-rule="evenodd"/></g></svg>