<svg width="1284" height="341" xmlns="http://www.w3.org/2000/svg" xmlns:xlink="http://www.w3.org/1999/xlink" overflow="hidden"><defs><clipPath id="clip0"><rect x="-485" y="935" width="1284" height="341"/></clipPath></defs><g clip-path="url(#clip0)" transform="translate(485 -935)"><rect x="-485" y="936" width="1283" height="339" fill="#6E757B"/><rect x="0" y="0" width="1282" height="8" fill="#F2F2F2" transform="matrix(1 0 0 -1 -484 968)"/><rect x="0" y="0" width="78" height="8" fill="#F2F2F2" transform="matrix(1 0 0 -1 -406 1106)"/><rect x="0" y="0" width="78" height="9" fill="#F2F2F2" transform="matrix(1 0 0 -1 -256 1106)"/><rect x="0" y="0" width="78" height="8" fill="#F2F2F2" transform="matrix(1 0 0 -1 -106 1105)"/><rect x="0" y="0" width="78" height="8" fill="#F2F2F2" transform="matrix(1 0 0 -1 43 1104)"/><rect x="0" y="0" width="78" height="8" fill="#F2F2F2" transform="matrix(1 0 0 -1 193 1104)"/><rect x="0" y="0" width="78" height="8" fill="#F2F2F2" transform="matrix(1 0 0 -1 343 1103)"/><rect x="0" y="0" width="78" height="8" fill="#F2F2F2" transform="matrix(1 0 0 -1 492 1102)"/><rect x="0" y="0" width="78" height="8" fill="#F2F2F2" transform="matrix(1 0 0 -1 642 1102)"/><rect x="-485" y="1236" width="1283" height="39" fill="#5B6065"/></g></svg>