<svg width="443" height="252" xmlns="http://www.w3.org/2000/svg" xmlns:xlink="http://www.w3.org/1999/xlink" overflow="hidden"><defs><clipPath id="clip0"><rect x="439" y="872" width="443" height="252"/></clipPath></defs><g clip-path="url(#clip0)" transform="translate(-439 -872)"><path d="M652.307 872C662.847 872 672.265 876.825 678.488 884.394L678.974 885.198 682.263 882.473C687.678 878.801 694.206 876.657 701.233 876.657 710.016 876.657 718.02 880.007 724.046 885.505L726.499 888.088 727.663 887.725C728.918 887.468 730.216 887.332 731.546 887.332 740.858 887.332 748.626 893.963 750.423 902.776L750.435 902.893 756.041 905.948C765.066 912.068 771 922.433 771 934.19 771 950.648 759.37 964.38 743.909 967.556L738.748 968.078 739.003 970.614C739.003 981.296 730.376 989.956 719.735 989.956 714.414 989.956 709.597 987.791 706.11 984.291L703.543 980.469 698.464 983.236C694.404 984.959 689.942 985.912 685.257 985.912 682.915 985.912 680.628 985.674 678.419 985.22L673.509 983.69 670.925 986.223C665.061 991.081 657.542 994 649.344 994 637.633 994 627.307 988.044 621.21 978.984L618.943 974.79 618.928 974.791C600.19 974.791 585 959.543 585 940.733 585 928.389 591.542 917.579 601.335 911.605L605.911 909.324 605.569 905.919C605.569 896.572 612.173 888.773 620.954 886.97L624.507 886.61 628.316 881.975C634.456 875.812 642.938 872 652.307 872Z" fill="#F2F2F2" fill-rule="evenodd"/><path d="M562.582 882C570.67 882 577.61 886.939 580.575 893.978L580.951 895.847 581.108 895.863C583.797 896.416 586.391 897.231 588.862 898.28L595.035 901.645 599.703 898.314C605.556 895.12 612.264 893.306 619.394 893.306 626.523 893.306 633.231 895.12 639.085 898.314L645.78 903.092 646.973 901.315C650.506 897.766 655.388 895.571 660.781 895.571 671.566 895.571 680.308 904.351 680.308 915.182 680.308 917.89 679.762 920.47 678.774 922.816L677.98 923.999 682.453 927.275C691.198 934.882 696.729 946.115 696.729 958.645L696.467 961.263 699.787 963.073C710.775 970.528 718 983.154 718 997.475 718 1020.39 699.505 1038.96 676.69 1038.96 669.56 1038.96 662.852 1037.15 656.999 1033.95L653.455 1031.43 653.027 1033.55C650.063 1040.59 643.123 1045.53 635.034 1045.53L631.512 1045.17 630.902 1046.08C627.368 1049.63 622.486 1051.83 617.093 1051.83 614.397 1051.83 611.829 1051.28 609.492 1050.28L606.487 1048.25 606.698 1049.3C606.698 1060.13 597.955 1068.91 587.171 1068.91 581.778 1068.91 576.896 1066.72 573.362 1063.17L572.201 1061.44 565.101 1067.91C558.508 1072.39 550.56 1075 542.004 1075 524.893 1075 510.211 1064.55 503.94 1049.66L502.361 1044.55 496.762 1048.34C494.426 1049.34 491.857 1049.88 489.161 1049.88 478.376 1049.88 469.634 1041.1 469.634 1030.27 469.634 1024.86 471.819 1019.95 475.353 1016.41L476.337 1015.74 472.985 1015.4C454.16 1011.53 440 994.805 440 974.756 440 966.164 442.601 958.181 447.055 951.56L448.117 950.268 448.231 949.126C452.083 930.22 468.739 915.999 488.702 915.999L495.43 916.68 498.361 911.257C505.784 900.222 518.357 892.966 532.616 892.966 535.468 892.966 538.252 893.256 540.941 893.809L544.405 894.889 544.589 893.978C547.553 886.939 554.493 882 562.582 882Z" fill="#FFFFFF" fill-rule="evenodd"/><path d="M722.307 911C732.847 911 742.265 915.785 748.488 923.292L748.974 924.09 752.263 921.388C757.678 917.745 764.206 915.619 771.233 915.619 780.016 915.619 788.02 918.942 794.046 924.394L796.499 926.956 797.663 926.596C798.918 926.341 800.216 926.207 801.546 926.207 810.858 926.207 818.626 932.783 820.423 941.524L820.435 941.64 826.041 944.67C835.066 950.74 841 961.02 841 972.68 841 989.004 829.37 1002.62 813.909 1005.77L808.748 1006.29 809.003 1008.81C809.003 1019.4 800.376 1027.99 789.735 1027.99 784.414 1027.99 779.597 1025.84 776.11 1022.37L773.543 1018.58 768.464 1021.32C764.404 1023.03 759.942 1023.98 755.257 1023.98 752.915 1023.98 750.628 1023.74 748.419 1023.29L743.509 1021.77 740.925 1024.29C735.061 1029.11 727.542 1032 719.344 1032 707.633 1032 697.307 1026.09 691.21 1017.11L688.943 1012.95 688.928 1012.95C670.19 1012.95 655 997.825 655 979.169 655 966.927 661.542 956.205 671.335 950.281L675.911 948.018 675.569 944.641C675.569 935.37 682.173 927.636 690.954 925.847L694.507 925.49 698.316 920.894C704.456 914.781 712.938 911 722.307 911Z" fill="#FFFFFF" fill-rule="evenodd"/><path d="M703.323 941C719.19 941 733.367 948.237 742.735 959.591L743.466 960.797 748.418 956.71C756.569 951.202 766.396 947.985 776.974 947.985 790.197 947.985 802.246 953.011 811.316 961.257L815.01 965.132 816.762 964.588C818.65 964.202 820.605 963.999 822.608 963.999 836.625 963.999 848.319 973.944 851.024 987.165L851.042 987.34 859.482 991.922C873.068 1001.1 882 1016.65 882 1034.28 882 1058.97 864.492 1079.57 841.219 1084.33L833.449 1085.12 833.832 1088.92C833.832 1104.94 820.846 1117.93 804.827 1117.93 796.817 1117.93 789.565 1114.69 784.316 1109.44L780.451 1103.7 772.805 1107.85C766.695 1110.44 759.977 1111.87 752.925 1111.87 749.399 1111.87 745.956 1111.51 742.631 1110.83L735.24 1108.54 731.35 1112.33C722.521 1119.62 711.203 1124 698.862 1124 681.232 1124 665.688 1115.07 656.51 1101.48L653.096 1095.19 653.075 1095.19C624.867 1095.19 602 1072.31 602 1044.1 602 1025.58 611.848 1009.37 626.591 1000.41L633.478 996.987 632.964 991.878C632.964 977.858 642.906 966.16 656.124 963.454L661.473 962.915 667.207 955.963C676.45 946.718 689.219 941 703.323 941Z" fill="#FFFFFF" fill-rule="evenodd"/></g></svg>