<svg width="580" height="724" xmlns="http://www.w3.org/2000/svg" xmlns:xlink="http://www.w3.org/1999/xlink" overflow="hidden"><defs><clipPath id="clip0"><rect x="388" y="1375" width="580" height="724"/></clipPath><linearGradient x1="597.361" y1="1802.31" x2="625.639" y2="1962.69" gradientUnits="userSpaceOnUse" spreadMethod="reflect" id="fill1"><stop offset="0" stop-color="#F6F8FC"/><stop offset="0.26" stop-color="#F6F8FC"/><stop offset="0.42" stop-color="#D9D9D9"/><stop offset="1" stop-color="#D9D9D9"/></linearGradient></defs><g clip-path="url(#clip0)" transform="translate(-388 -1375)"><path d="M607.734 1890 647.917 1902.12 661.982 1906.84 666 1913.57 666 1916.94 651.266 1917.61 607.734 1923 554.156 1918.96 521.339 1918.96 520 1906.84 520 1900.78 563.532 1890 607.734 1890Z" fill="#BFBFBF" fill-rule="evenodd"/><path d="M713.115 1851 747.518 1861.29 759.56 1865.29 763 1871 763 1873.86 750.385 1874.43 713.115 1879 667.243 1875.57 639.147 1875.57 638 1865.29 638 1860.14 675.271 1851 713.115 1851Z" fill="#BFBFBF" fill-rule="evenodd"/><path d="M446 1869.31 736 1829.5 763 1829 775.5 1830.99 777 1834.97 754 1841.94 633 1887.23 533.5 1920.57 490 1934.51 485.5 1936 464.5 1912.61 455.5 1897.68 446.5 1880.76 446 1869.31Z" fill="url(#fill1)" fill-rule="evenodd"/><path d="M652.859 1449.32C538.431 1449.32 445.669 1542.05 445.669 1656.44L445.669 1818.56C445.669 1932.95 538.431 2025.68 652.859 2025.68L700.041 2025.68C814.469 2025.68 907.231 1932.95 907.231 1818.56L907.231 1656.44C907.231 1542.05 814.469 1449.32 700.041 1449.32ZM647.907 1376 707.093 1376C850.636 1376 967 1492.32 967 1635.82L967 1839.18C967 1982.68 850.636 2099 707.093 2099L647.907 2099C504.364 2099 388 1982.68 388 1839.18L388 1635.82C388 1492.32 504.364 1376 647.907 1376Z" fill="#F9F5EA" fill-rule="evenodd"/></g></svg>