<svg width="430" height="525" xmlns="http://www.w3.org/2000/svg" xmlns:xlink="http://www.w3.org/1999/xlink" overflow="hidden"><defs><clipPath id="clip0"><rect x="1407" y="170" width="430" height="525"/></clipPath></defs><g clip-path="url(#clip0)" transform="translate(-1407 -170)"><path d="M1764 557C1764 537.118 1780.12 521 1800 521L1800 521C1819.88 521 1836 537.118 1836 557L1836 620C1836 639.882 1819.88 656 1800 656L1800 656C1780.12 656 1764 639.882 1764 620Z" fill="#ED7D31" fill-rule="evenodd"/><path d="M1835 557 1835 557.001 1835 620.073C1835 639.915 1818.88 656 1799 656 1779.12 656 1763 639.915 1763 620.073L1763 595.42 1763.73 602.659C1767.09 619.031 1781.6 631.346 1799 631.346 1818.88 631.346 1835 615.261 1835 595.419Z" fill="#C55A11" fill-rule="evenodd"/><path d="M1764 546C1764 530.536 1776.54 518 1792 518L1808 518C1823.46 518 1836 530.536 1836 546L1836 546C1836 561.464 1823.46 574 1808 574L1792 574C1776.54 574 1764 561.464 1764 546Z" fill="#F4B183" fill-rule="evenodd"/><path d="M1584.96 226.747C1578.57 202.901 1592.72 178.39 1616.57 172.001 1640.42 165.611 1664.93 179.763 1671.32 203.609 1673.44 211.522 1673.34 219.866 1671.04 227.729L1661.63 224.976C1667.04 206.478 1656.44 187.096 1637.94 181.684 1619.44 176.273 1600.06 186.882 1594.65 205.38 1592.85 211.518 1592.78 218.032 1594.43 224.21Z" fill="#ED7D31" fill-rule="evenodd"/><path d="M1408 557C1408 537.118 1424.12 521 1444 521L1444 521C1463.88 521 1480 537.118 1480 557L1480 620C1480 639.882 1463.88 656 1444 656L1444 656C1424.12 656 1408 639.882 1408 620Z" fill="#ED7D31" fill-rule="evenodd"/><path d="M1480 559 1480 559.001 1480 622.073C1480 641.915 1463.88 658 1444 658 1424.12 658 1408 641.915 1408 622.073L1408 597.42 1408.73 604.659C1412.09 621.031 1426.6 633.346 1444 633.346 1463.88 633.346 1480 617.261 1480 597.419Z" fill="#C55A11" fill-rule="evenodd"/><path d="M1408 548C1408 532.536 1420.54 520 1436 520L1452 520C1467.46 520 1480 532.536 1480 548L1480 548C1480 563.464 1467.46 576 1452 576L1436 576C1420.54 576 1408 563.464 1408 548Z" fill="#F4B183" fill-rule="evenodd"/><path d="M1561.59 212 1682.41 212C1747.35 212 1800 268.368 1800 337.902L1800 647.069 1796.77 647.069 1796.77 647.414C1796.77 673.143 1777.29 694 1753.26 694L1487.51 694C1463.48 694 1444 673.143 1444 647.414L1444 647.069 1444 461.074 1444 337.902C1444 268.368 1496.65 212 1561.59 212Z" fill="#F4B183" fill-rule="evenodd"/><path d="M1561.59 244 1682.41 244C1747.35 244 1800 296.626 1800 361.543L1800 650.185 1796.77 650.185 1796.77 650.506C1796.77 674.527 1777.29 694 1753.26 694L1487.51 694C1463.48 694 1444 674.527 1444 650.506L1444 650.185 1444 476.538 1444 361.543C1444 296.626 1496.65 244 1561.59 244Z" fill="#ED7D31" fill-rule="evenodd"/><path d="M1480 522.667C1480 506.835 1492.83 494 1508.67 494L1735.33 494C1751.17 494 1764 506.835 1764 522.667L1764 637.333C1764 653.165 1751.17 666 1735.33 666L1508.67 666C1492.83 666 1480 653.165 1480 637.333Z" fill="#C55A11" fill-rule="evenodd"/><rect x="1480" y="528" width="284" height="7" fill="#843C0C"/><path d="M1567 324.167C1567 322.418 1568.42 321 1570.17 321L1673.83 321C1675.58 321 1677 322.418 1677 324.167L1677 336.833C1677 338.582 1675.58 340 1673.83 340L1570.17 340C1568.42 340 1567 338.582 1567 336.833Z" fill="#C55A11" fill-rule="evenodd"/><path d="M1479 596C1479 611.948 1491.85 624.876 1507.69 624.876L1734.31 624.876C1750.15 624.876 1763 611.948 1763 596L1763 636.124C1763 652.072 1750.15 665 1734.31 665L1507.69 665C1491.85 665 1479 652.072 1479 636.124Z" fill="#843C0C" fill-rule="evenodd"/><path d="M1444 602 1444.7 608.636C1448.9 628.416 1467.1 643.295 1488.9 643.295L1764.5 643.295C1776.96 643.295 1788.24 638.436 1796.41 630.581L1800 626.395 1800 650.272 1796.77 650.272 1796.77 650.593C1796.77 674.566 1777.29 694 1753.26 694L1487.51 694C1463.48 694 1444 674.566 1444 650.593L1444 650.272Z" fill="#C55A11" fill-rule="evenodd"/></g></svg>