<svg width="590" height="391" xmlns="http://www.w3.org/2000/svg" xmlns:xlink="http://www.w3.org/1999/xlink" overflow="hidden"><defs><clipPath id="clip0"><rect x="2388" y="279" width="590" height="391"/></clipPath></defs><g clip-path="url(#clip0)" transform="translate(-2388 -279)"><path d="M2653.66 279 2712.34 279 2731 297.656 2731 382 2731 382 2635 382 2635 382 2635 297.656Z" fill="#404040" fill-rule="evenodd"/><path d="M2407 311.277C2407 294.555 2420.56 281 2437.28 281L2474.72 281C2491.44 281 2505 294.555 2505 311.277L2505 330.723C2505 347.445 2491.44 361 2474.72 361L2437.28 361C2420.56 361 2407 347.445 2407 330.723Z" fill="#595959" fill-rule="evenodd"/><path d="M2406 319.898C2406 303.386 2419.39 290 2435.9 290L2473.1 290C2489.61 290 2503 303.386 2503 319.898L2503 339.102C2503 355.614 2489.61 369 2473.1 369L2435.9 369C2419.39 369 2406 355.614 2406 339.102Z" fill="#404040" fill-rule="evenodd"/><rect x="2389" y="307" width="589" height="362" fill="#D9D9D9"/><rect x="2389" y="307" width="589" height="89" fill="#F2F2F2"/><path d="M2388.51 448.581 2977.48 606.392 2977.48 668.988 2388.51 668.988Z" fill="#BFBFBF" fill-rule="evenodd"/><path d="M2564 532.5C2564 466.502 2617.5 413 2683.5 413 2749.5 413 2803 466.502 2803 532.5 2803 598.498 2749.5 652 2683.5 652 2617.5 652 2564 598.498 2564 532.5ZM2586.68 532.5C2586.68 585.974 2630.03 629.323 2683.5 629.323 2736.97 629.323 2780.32 585.974 2780.32 532.5 2780.32 479.026 2736.97 435.677 2683.5 435.677 2630.03 435.677 2586.68 479.026 2586.68 532.5Z" fill="#F2F2F2" fill-rule="evenodd"/><path d="M2613 532.5C2613 493.564 2644.34 462 2683 462 2721.66 462 2753 493.564 2753 532.5 2753 571.436 2721.66 603 2683 603 2644.34 603 2613 571.436 2613 532.5Z" fill="#404040" fill-rule="evenodd"/><path d="M2616.81 509.7 2751.89 545.894 2751.81 546.676C2745.26 578.696 2716.92 602.783 2682.97 602.783 2644.16 602.783 2612.7 571.322 2612.7 532.514 2612.7 527.663 2613.19 522.927 2614.12 518.352Z" fill="#262626" fill-rule="evenodd"/><path d="M0 23.5C-2.99186e-15 10.5213 10.5213-2.99186e-15 23.5-5.98373e-15 36.4787-1.19675e-14 47 10.5213 47 23.5 47 36.4787 36.4787 47 23.5 47 10.5213 47-1.49593e-14 36.4787 0 23.5Z" fill="#D9D9D9" fill-rule="evenodd" transform="matrix(1 0 0 -1 2660 556)"/><path d="M2402 374C2402 366.268 2408.27 360 2416 360 2423.73 360 2430 366.268 2430 374 2430 381.732 2423.73 388 2416 388 2408.27 388 2402 381.732 2402 374Z" fill="#404040" fill-rule="evenodd"/><path d="M2438 374C2438 366.268 2444.04 360 2451.5 360 2458.96 360 2465 366.268 2465 374 2465 381.732 2458.96 388 2451.5 388 2444.04 388 2438 381.732 2438 374Z" fill="#404040" fill-rule="evenodd"/><path d="M2568.98 497 2590.8 502.846 2587.65 512.996C2586.36 519.299 2585.68 525.824 2585.68 532.508 2585.68 585.979 2629.04 629.325 2682.53 629.325 2722.64 629.325 2757.06 604.943 2771.76 570.194L2777.18 552.77 2799 558.616 2792.66 579.02C2774.52 621.907 2732.04 652 2682.53 652 2616.51 652 2563 598.502 2563 532.508 2563 524.259 2563.84 516.205 2565.43 508.426Z" fill="#D9D9D9" fill-rule="evenodd"/><path d="M2662.59 522.11 2706.57 533.894 2704.95 541.898C2701.38 550.342 2693.02 556.267 2683.28 556.267 2670.28 556.267 2659.75 545.734 2659.75 532.74 2659.75 529.491 2660.41 526.397 2661.6 523.582Z" fill="#BFBFBF" fill-rule="evenodd"/></g></svg>