<svg width="295" height="400" xmlns="http://www.w3.org/2000/svg" xmlns:xlink="http://www.w3.org/1999/xlink" overflow="hidden"><defs><clipPath id="clip0"><rect x="1966" y="757" width="295" height="400"/></clipPath></defs><g clip-path="url(#clip0)" transform="translate(-1966 -757)"><path d="M1990.93 1010.88C1990.93 1010.88 1988.83 1032.43 1990.93 1058.17L1991.99 1068.68C1993.56 1092.33 2018.78 1102.84 2038.75 1100.74L2049.26 1099.69C2069.23 1098.11 2084.46 1080.24 2082.89 1060.28L2081.84 1049.77C2079.74 1024.02 2072.9 1003 2072.9 1003L1990.93 1010.88Z" fill="#FCB561" fill-rule="evenodd"/><path d="M1985.3 981 2069.65 973.654C2063.89 903.868 2132 870.812 2085.89 787.384 2085.89 787.384 2085.89 787.384 2085.89 787.384 2073.84 765.871 2057.6 758 2036.64 758 2014.12 758 1992.11 770.593 1980.59 797.353 1962.25 847.725 1961.2 914.362 1985.3 981Z" fill="#FCB561" fill-rule="evenodd"/><path d="M1983 970.091 1991.89 1014 2075 1010.11 2069.59 970.091 2043.69 946 1983 970.091Z" fill="#FCB561" fill-rule="evenodd"/><path d="M1998.74 1001.08C1998.74 1001.08 1997.07 1020.42 1998.74 1043.54L1999.58 1052.98C2000.83 1074.21 2020.9 1083.65 2036.79 1081.76L2045.15 1080.82C2061.04 1079.41 2073.17 1063.36 2071.91 1045.43L2071.07 1035.99C2069.4 1012.87 2063.97 994 2063.97 994L1998.74 1001.08Z" fill="#E5A458" fill-rule="evenodd"/><path d="M1993.64 974 2061.12 967.445C2056.51 905.169 2111 875.671 2074.11 801.221 2074.11 801.221 2074.11 801.221 2074.11 801.221 2064.47 782.024 2051.48 775 2034.72 775 2016.69 775 1999.09 786.238 1989.87 810.118 1975.2 855.068 1974.36 914.534 1993.64 974Z" fill="#E5A458" fill-rule="evenodd"/><path d="M1991 964.611 1998.15 1004 2065 1000.51 2060.65 964.611 2039.82 943 1991 964.611Z" fill="#E5A458" fill-rule="evenodd"/><path d="M1972 932 2074.98 932 2072.28 940.417C2070.56 947.388 2069.4 954.65 2069.08 962.341L2069.27 971.673 2069.34 971.746 2074.6 1010.75 2076.63 1018.72C2078.59 1027.19 2080.8 1038.89 2081.85 1051.76L2082.89 1062.27C2084.45 1082.24 2069.34 1100.11 2049.53 1101.69L2039.1 1102.74C2019.29 1104.84 1994.27 1094.33 1992.71 1070.68L1991.67 1060.17C1990.1 1040.86 1990.88 1023.91 1991.37 1016.64L1991.61 1013.58 1985.14 981.523 1977.58 957.398C1975.62 950.126 1973.96 942.878 1972.57 935.677Z" fill="#F5A569" fill-rule="evenodd"/><path d="M1984 932 2065.01 932 2061.81 946.743 2061.14 966.416 2065.28 1000.63 2066.91 1007.76C2068.47 1015.32 2070.24 1025.76 2071.08 1037.26L2071.91 1046.64C2073.16 1064.47 2061.07 1080.42 2045.21 1081.83L2036.87 1082.77C2021.02 1084.64 2001 1075.26 1999.75 1054.15L1998.91 1044.76C1997.66 1027.52 1998.29 1012.39 1998.68 1005.9L1998.87 1003.18 1993.69 974.539 1987.64 953.008Z" fill="#D38D59" fill-rule="evenodd"/><path d="M2014.1 869.247C2021.35 842.176 2014.62 839.082 2014.88 824L2036.23 827.094C2030.8 850.169 2036.23 853.907 2036.23 867.313L2040.12 879.302C2049.56 891.291 2061.34 893.998 2068.46 915.268 2069.24 936.409 2069.24 951.362 2068.07 969.023 2067.55 996.609 2068.59 985.137 2067.29 993L2054.09 991.066 2055.65 943.886C2055.52 936.28 2056.16 932.928 2055.26 921.069 2049.43 907.275 2043.61 903.537 2037.79 894.771L2029.25 884.33 2023.03 884.716C2015.14 898.638 2009.57 899.412 1999.35 926.483 1996.89 952.909 2000.64 968.507 2001.29 989.519L1986.15 988.359C1985.63 968.636 1982.78 952.78 1984.6 929.19 1990.94 911.272 1991.84 907.662 2001.29 893.998 2010.61 879.431 2009.83 876.853 2014.1 869.247Z" fill="#196893" fill-rule="evenodd"/><path d="M2054.25 919 2068.57 919 2068.89 930.044C2069.16 944.009 2068.94 955.743 2068.07 969 2067.55 996.613 2068.59 985.129 2067.29 993L2054.09 991.065 2055.65 943.84C2055.52 936.227 2056.16 932.872 2055.26 921.001ZM1988.19 919 2002.34 919 1999.35 926.421C1996.89 952.872 2000.64 968.484 2001.29 989.516L1986.15 988.355C1985.63 968.613 1982.78 952.743 1984.6 929.13Z" fill="#135173" fill-rule="evenodd"/><path d="M0.93423 7.8017C0.93423 7.8017-1.16774 29.1262 0.93423 54.6115L1.98511 65.0137C3.56144 88.4186 28.783 98.8208 48.7502 96.7404L59.2592 95.7001C79.2262 94.1397 94.4644 76.4561 92.888 56.6919L91.8369 46.2897C89.7352 20.8044 82.9044 0 82.9044 0L0.93423 7.8017Z" fill="#FCB561" fill-rule="evenodd" transform="matrix(-1 0 0 1 2236 1057)"/><path d="M18.3012 223 102.651 215.654C96.8876 145.868 164.996 112.812 118.892 29.3836 118.892 29.3836 118.892 29.3836 118.892 29.3836 106.842 7.87066 90.6006 0 69.6442 0 47.1161 0 25.1119 12.5929 13.5859 39.3529-4.75083 89.7248-5.79863 156.362 18.3012 223Z" fill="#FCB561" fill-rule="evenodd" transform="matrix(-1 0 0 1 2260 811)"/><path d="M0 24.0914 8.89076 68 92 64.1143 86.5882 24.0914 60.6891 0 0 24.0914Z" fill="#FCB561" fill-rule="evenodd" transform="matrix(-1 0 0 1 2244 999)"/><path d="M0.753412 6.99741C0.753412 6.99741-0.941723 26.1235 0.753412 48.9815L1.6009 58.3113C2.87213 79.3033 23.2121 88.6331 39.3147 86.7672L47.7897 85.8341C63.8921 84.4346 76.1809 68.5741 74.9097 50.8474L74.062 41.5176C72.3671 18.6596 66.8584 0 66.8584 0L0.753412 6.99741Z" fill="#E5A458" fill-rule="evenodd" transform="matrix(-1 0 0 1 2229 1048)"/><path d="M14.7765 199 82.8808 192.445C78.2278 130.17 133.219 100.671 95.9942 26.2213 95.9942 26.2213 95.9942 26.2213 95.9942 26.2213 86.265 7.02359 73.1516 0 56.2313 0 38.0419 0 20.2755 11.2376 10.9693 35.1176-3.83585 80.0683-4.68185 139.534 14.7765 199Z" fill="#E5A458" fill-rule="evenodd" transform="matrix(-1 0 0 1 2248 829)"/><path d="M0 21.2571 7.15126 60 74 56.5714 69.6471 21.2571 48.8151 0 0 21.2571Z" fill="#E5A458" fill-rule="evenodd" transform="matrix(-1 0 0 1 2235 997)"/><path d="M0 0 103.911 0 101.182 8.36728C99.4508 15.298 98.2725 22.5172 97.9505 30.1638L98.1431 39.4412 98.222 39.5137 103.528 78.2901 105.576 86.2133C107.549 94.6378 109.784 106.262 110.836 119.062L111.888 129.511C113.466 149.364 98.2124 167.127 78.2255 168.694L67.7059 169.739C47.7188 171.829 22.4721 161.38 20.8942 137.87L19.8422 127.421C18.2641 108.221 19.0532 91.3725 19.5463 84.148L19.7866 81.1071 13.2551 49.2339 5.62545 25.2494C3.65609 18.0201 1.9767 10.8149 0.577523 3.65503Z" fill="#F5A569" fill-rule="evenodd" transform="matrix(-1 0 0 1 2255 986)"/><path d="M0 0 81.9345 0 78.6928 14.7425 78.0204 34.4159 82.2016 68.6261 83.8474 75.7561C85.4296 83.3215 87.2224 93.7606 88.066 105.255L88.91 114.639C90.1756 132.468 77.9413 148.42 61.9105 149.827L53.4732 150.766C37.4422 152.642 17.1925 143.259 15.9269 122.146L15.0833 112.762C13.8175 95.5201 14.4504 80.3891 14.846 73.9012L15.0381 71.1761 9.79701 42.5385 3.67973 21.0079Z" fill="#D38D59" fill-rule="evenodd" transform="matrix(-1 0 0 1 2243 986)"/><path d="M29.7492 45.2471C36.9114 18.1762 30.2608 15.0824 30.5166 0L51.6193 3.09382C46.2477 26.1686 51.6193 29.9069 51.6193 43.3135L55.4562 55.3021C64.7925 67.2906 76.431 69.9977 83.4653 91.2677 84.2326 112.409 84.2326 127.362 83.0816 145.023 82.57 172.609 83.5931 161.137 82.3142 169L69.2689 167.066 70.8036 119.886C70.6757 112.28 71.3152 108.928 70.4199 97.0686 64.6646 83.2754 58.9094 79.537 53.1541 70.7712L44.713 60.3295 38.574 60.7162C30.7724 74.6384 25.2729 75.4119 15.1692 102.483 12.7392 128.909 16.4481 144.507 17.0876 165.519L2.12387 164.359C1.61229 144.636-1.20141 128.78 0.589124 105.19 6.85599 87.2715 7.75126 83.6621 17.0876 69.9977 26.2961 55.431 25.5287 52.8528 29.7492 45.2471Z" fill="#196893" fill-rule="evenodd" transform="matrix(-1 0 0 1 2242 877)"/><path d="M69.4274 0 83.5744 0 83.8908 11.0435C84.1607 25.0091 83.9448 36.7426 83.0816 50.0004 82.57 77.6128 83.5932 66.1292 82.3142 74L69.2689 72.0646 70.8036 24.8396C70.6758 17.2268 71.3152 13.872 70.42 2.00129ZM4.14158 0 18.125 0 15.1693 7.42054C12.7393 33.8717 16.4483 49.4843 17.0878 70.5162L2.12406 69.3549C1.61248 49.6133-1.20121 33.7427 0.589324 10.1302Z" fill="#135173" fill-rule="evenodd" transform="matrix(-1 0 0 1 2242 972)"/></g></svg>