<svg width="495" height="373" xmlns="http://www.w3.org/2000/svg" xmlns:xlink="http://www.w3.org/1999/xlink" overflow="hidden"><defs><clipPath id="clip0"><rect x="1331" y="783" width="495" height="373"/></clipPath><clipPath id="clip1"><path d="M1363 828.299 1473.24 804C1473.49 903.981 1473.75 1003.96 1474 1103.94L1364.52 1129C1364.01 1028.77 1363.51 928.533 1363 828.299Z" fill-rule="evenodd" clip-rule="evenodd"/></clipPath><clipPath id="clip2"><rect x="1354" y="804" width="485" height="325"/></clipPath><clipPath id="clip3"><rect x="1354" y="804" width="485" height="325"/></clipPath><clipPath id="clip4"><rect x="1354" y="804" width="485" height="325"/></clipPath><clipPath id="clip5"><rect x="1429" y="905" width="186" height="225"/></clipPath><clipPath id="clip6"><rect x="1429" y="905" width="186" height="225"/></clipPath><clipPath id="clip7"><rect x="1429" y="905" width="186" height="225"/></clipPath><clipPath id="clip8"><path d="M1580 828.299 1469.76 804C1469.51 903.981 1469.25 1003.96 1469 1103.94L1578.48 1129C1578.99 1028.77 1579.49 928.533 1580 828.299Z" fill-rule="evenodd" clip-rule="evenodd"/></clipPath><clipPath id="clip9"><rect x="1354" y="804" width="485" height="325"/></clipPath><clipPath id="clip10"><rect x="1354" y="804" width="485" height="325"/></clipPath><clipPath id="clip11"><rect x="1354" y="804" width="485" height="325"/></clipPath><clipPath id="clip12"><rect x="1578" y="807" width="261" height="317"/></clipPath><clipPath id="clip13"><rect x="1578" y="807" width="261" height="317"/></clipPath><clipPath id="clip14"><rect x="1578" y="807" width="261" height="317"/></clipPath><clipPath id="clip15"><rect x="1429" y="905" width="186" height="225"/></clipPath><clipPath id="clip16"><rect x="1429" y="905" width="186" height="225"/></clipPath><clipPath id="clip17"><rect x="1429" y="905" width="186" height="225"/></clipPath><clipPath id="clip18"><path d="M1577 828.299 1687.24 804C1687.49 903.981 1687.75 1003.96 1688 1103.94L1578.52 1129C1578.01 1028.77 1577.51 928.533 1577 828.299Z" fill-rule="evenodd" clip-rule="evenodd"/></clipPath><clipPath id="clip19"><rect x="1354" y="804" width="485" height="325"/></clipPath><clipPath id="clip20"><rect x="1354" y="804" width="485" height="325"/></clipPath><clipPath id="clip21"><rect x="1354" y="804" width="485" height="325"/></clipPath><clipPath id="clip22"><rect x="1578" y="807" width="261" height="317"/></clipPath><clipPath id="clip23"><rect x="1578" y="807" width="261" height="317"/></clipPath><clipPath id="clip24"><rect x="1578" y="807" width="261" height="317"/></clipPath><clipPath id="clip25"><rect x="1429" y="905" width="186" height="225"/></clipPath><clipPath id="clip26"><rect x="1429" y="905" width="186" height="225"/></clipPath><clipPath id="clip27"><rect x="1429" y="905" width="186" height="225"/></clipPath><clipPath id="clip28"><path d="M1795 828.299 1684.76 804C1684.51 903.981 1684.25 1003.96 1684 1103.94L1793.48 1129C1793.99 1028.77 1794.49 928.533 1795 828.299Z" fill-rule="evenodd" clip-rule="evenodd"/></clipPath><clipPath id="clip29"><rect x="1354" y="804" width="485" height="325"/></clipPath><clipPath id="clip30"><rect x="1354" y="804" width="485" height="325"/></clipPath><clipPath id="clip31"><rect x="1354" y="804" width="485" height="325"/></clipPath><clipPath id="clip32"><rect x="1578" y="807" width="261" height="317"/></clipPath><clipPath id="clip33"><rect x="1578" y="807" width="261" height="317"/></clipPath><clipPath id="clip34"><rect x="1578" y="807" width="261" height="317"/></clipPath></defs><g clip-path="url(#clip0)" transform="translate(-1331 -783)"><path d="M1454.24 784 1456.07 784.402 1457.89 784 1457.89 784.804 1578.36 811.348 1699.11 784.744 1699.11 784 1700.8 784.372 1702.48 784 1702.49 784.744 1825 811.738C1824.42 926.159 1823.84 1040.58 1823.26 1155L1700.8 1126.98 1578.4 1154.98 1578.4 1155 1578.36 1154.99 1578.33 1155 1578.33 1154.98 1456.07 1127.01 1333.74 1155C1333.16 1040.58 1332.58 926.159 1332 811.738L1454.24 784.804Z" fill="#F2F2F2" fill-rule="evenodd"/><g clip-path="url(#clip1)"><g clip-path="url(#clip2)"><g clip-path="url(#clip3)"><g clip-path="url(#clip4)"><path d="M389.79-45.1222 829.052-45.1222 829.052 221.805 389.79 221.805Z" fill="#00B3ED" transform="matrix(1 0 0 1.21508 965.113 858.827)"/><path d="M389.247-45.1222 511.992-45.1222 511.905-43.2293C511.417-38.1585 510.459-33.7469 509.13-30.8196 516.232-28.9486 521.49-23.758 529.106-24.09L529.408-23.758C532.007-21.3136 532.43-15.6704 530.738-10.7514 527.716-1.93947 531.796-1.00393 533.095 5.96716 533.826 11.7223 532.693 17.56 529.861 22.6253 527.051 28.6609 525.932 24.0135 521.943 31.1052L519.163 32.1917C522.79 35.813 524.331 39.6154 521.611 43.6894 519.888 46.2545 513.965 45.2587 513.633 48.3368 513.535 52.0432 512.81 55.7063 511.487 59.1704 512.333 57.6313 508.253 59.1704 506.379 59.4117L508.465 62.822C506.237 66.7058 501.921 68.9075 497.464 68.4351L501 73.6861 500.818 74.6217C495.953 76.3717 493.838 79.1182 494.382 82.86 487.31 83.9163 480.359 94.2673 473.74 92.9397 473.74 92.6075 470.718 92.1547 470.718 91.7926L470.416 92.819 466.488 91.5512C466.371 90.2835 465.636 89.1549 464.523 88.5335L463.193 91.1288C454.701 94.9615 446.511 97.7074 438.019 91.3403 436.176 92.4265 428.59 91.9736 425.447 92.7587 422.921 90.8287 420.265 89.0739 417.499 87.5076L418.829 84.4899C420.491 84.0974 421.851 83.3732 421.488 81.4721 426.172 75.9194 424.057 74.4706 427.532 68.9782L426.021 63.2444C429.043 59.714 422.788 53.7085 418.768 59.0198 409.294 60.5588 400.092 56.5299 390.638 54.4831L389.247 54.2419Z" fill="#65D8B5" fill-rule="evenodd" transform="matrix(1 0 0 1.21508 965.113 858.827)"/><g clip-path="url(#clip5)"><g clip-path="url(#clip6)"><g clip-path="url(#clip7)"><path d="M143.384 52.6595C143.23 52.0819 143.096 51.5043 142.922 50.9459 142.479 49.5789 142.286 49.3671 140.804 49.3864 139.678 49.3875 138.587 48.9922 137.723 48.2696 137.203 47.8774 136.708 47.4529 136.241 46.9989 135.319 46.1465 134.282 45.427 133.16 44.8617 132.436 44.3949 131.551 44.2486 130.715 44.4574 129.416 44.7348 128.061 44.5723 126.864 43.9953 125.903 43.5905 124.826 43.5562 123.841 43.899L122.32 44.4766C122.292 44.3239 122.292 44.1672 122.32 44.0145 122.514 43.451 122.472 42.8333 122.204 42.3009 121.885 41.7941 121.321 41.494 120.722 41.5115 120.549 41.5115 120.414 41.2612 120.241 41.1842 119.144 40.7414 118.046 40.2792 116.929 39.8942 115.891 39.3341 114.596 39.7114 114.022 40.7414 113.774 41.0313 113.51 41.3076 113.233 41.5693 113.125 41.1455 113.187 40.6963 113.406 40.3178 113.56 39.9134 113.637 39.4706 113.752 39.047 113.128 38.6654 112.404 38.4778 111.673 38.5079 111.23 38.5079 110.749 38.6042 110.421 38.1806 109.574 38.5364 108.664 38.7196 107.745 38.7196 108.047 38.06 108.592 37.5427 109.266 37.2756 109.381 37.2756 109.594 37.3912 109.767 37.4489 109.544 37.0292 109.622 36.513 109.959 36.1782 110.426 35.7328 110.618 35.0709 110.46 34.4453 109.161 33.7887 108.325 32.4731 108.284 31.0181 108.181 29.901 107.57 28.8933 106.629 28.2841 106.082 27.924 105.566 27.5183 105.088 27.071 104.447 26.5119 103.701 26.0866 102.893 25.8195 101.321 25.1532 99.597 24.9269 97.9062 25.1649 96.3981 25.4163 94.8583 24.9622 93.728 23.9326 93.1817 23.4854 92.6026 23.0799 91.9952 22.7197 91.7259 21.6361 91.0318 20.7062 90.07 20.1396 88.9659 19.5428 87.7674 19.139 86.527 18.9459 86.527 18.3297 86.527 17.7714 86.4114 17.0205 85.696 16.7041 84.955 16.4465 84.1977 16.2503 83.3662 16.0951 82.7332 15.4155 82.6378 14.5753 81.3439 14.3051 79.9961 14.6069 78.941 15.4031 77.8363 16.2151 76.3157 16.1511 75.283 15.2491 74.7764 14.8379 74.1063 14.6882 73.4733 14.8448 72.5142 15.0469 71.5246 15.0469 70.5655 14.8448 70.427 14.6919 70.3163 14.516 70.2384 14.3249 70.029 13.437 69.2253 12.818 68.3131 12.8424 66.583 12.7544 64.8824 13.31 63.5379 14.4019 63.5379 14.4019 63.5379 14.5175 63.4223 14.7293 63.6725 15.1914 63.9806 15.769 64.2505 16.3466 64.492 16.7566 64.492 17.2652 64.2505 17.6751 63.9822 18.1343 63.3928 18.2893 62.9337 18.0214 62.9234 18.0152 62.913 18.0089 62.9026 18.0024L62.075 16.4814 63.0373 14.6907C62.8258 13.9784 62.6333 13.3815 62.4403 12.7654 62.8241 12.507 63.1911 12.224 63.5379 11.9182 63.7036 11.7359 63.775 11.4867 63.7303 11.2443 63.6333 10.9516 63.3176 10.793 63.0248 10.8901 62.9888 10.9019 62.9544 10.9174 62.9217 10.9362 62.5368 11.148 62.19 11.4753 61.8051 11.7064 60.8863 12.32 59.9202 12.8608 58.9169 13.3238 58.05 13.5891 57.1607 13.776 56.2599 13.8821 55.3865 14.0246 54.6989 14.7045 54.5462 15.5764 54.4502 16.0963 54.3731 16.6162 54.2768 17.1552 53.8954 17.403 53.529 17.673 53.1794 17.9639 52.7943 18.3297 52.5055 18.7726 52.1011 19.0999 51.6968 19.4272 52.1011 20.0818 51.4273 20.1781 51.0807 19.8508 50.6764 19.562 50.3298 19.2347 50.186 20.2721 49.8943 21.2837 49.4634 22.2383 50.2019 23.0435 50.6198 24.0917 50.6379 25.1842 50.7245 26.0935 50.7245 27.0088 50.6379 27.9182 50.4803 28.5803 50.6061 29.2779 50.9844 29.8436 50.5907 30.5608 50.1469 31.2493 49.6559 31.9038 49.3286 32.2889 48.7509 32.4237 48.3466 32.751 48.1375 32.9851 47.98 33.2606 47.8845 33.5596 47.0951 35.3695 47.1144 35.3695 45.2853 36.1204 45.1193 36.2265 44.9645 36.3491 44.8232 36.4862 44.7677 37.2768 44.4943 38.0363 44.0338 38.6812 43.2191 39.7132 42.8893 41.0465 43.1288 42.3394 43.1775 42.5092 43.1775 42.6895 43.1288 42.8592 43.5909 43.976 44.4959 43.3599 45.0542 43.668 45.2887 44.4113 44.9664 45.2167 44.2841 45.5933 43.7065 46.0362 43.1481 46.479 42.609 46.9411 42.0521 47.345 41.8517 48.0823 42.1276 48.7124 42.2624 49.0783 42.2816 49.5596 42.5319 49.8099 43.0903 50.3683 42.5319 50.9267 42.6282 51.5236 42.8592 51.6775 43.1288 51.8701 43.4176 52.0241 44.0911 52.3074 44.6763 52.7662 45.112 53.3526 45.9206 54.6809 46.7871 55.9906 47.5187 57.3766 48.2504 58.7632 48.828 60.2648 49.5596 61.6513 50.5031 63.4223 51.5813 65.1551 52.5632 66.9265 52.8282 67.2924 52.9818 67.727 53.0061 68.1784 52.8422 69.0912 53.1892 70.0214 53.911 70.6042 54.772 71.6037 55.8183 72.4275 56.9917 73.03 58.1852 73.5693 59.3406 74.1854 60.4959 74.8206 61.5101 75.271 62.4561 75.8609 63.3072 76.573 63.8764 77.1908 64.4811 77.7758 65.1169 78.3249 65.5962 78.6831 65.8977 79.2305 65.9446 79.827 66.0411 81.3286 66.2335 82.8111 66.2913 84.3127 66.4315 86.2047 66.1556 88.1038 65.4827 89.8775 65.4827 89.9931 65.3481 90.1469 65.4827 90.2434 65.8677 91.2254 65.3284 92.1686 65.4827 93.1506 65.6212 94.5846 65.504 96.0317 65.136 97.4248 64.8001 99.2868 64.3039 101.117 63.6534 102.893 63.4959 103.322 63.4959 103.793 63.6534 104.222 63.9975 104.817 63.9975 105.551 63.6534 106.147 63.0553 107.173 62.9223 108.405 63.2876 109.536 63.5564 110.883 63.5564 112.27 63.2876 113.617 62.9795 115.023 62.3443 116.313 62.1518 117.738 62.0842 117.998 61.9872 118.25 61.8629 118.489 61.4583 119.452 61.093 120.414 60.6693 121.377 60.2457 122.34 59.9376 123.61 58.7435 124.265 59.0134 125.728 59.2446 127.153 59.5527 128.559 59.6841 129.139 59.5799 129.749 59.2637 130.253 58.2872 131.797 58.0543 133.698 58.6285 135.432 57.2032 136.414 57.8193 138.012 57.3384 139.283 58.3395 139.476 58.7435 139.283 58.7435 138.455 58.7435 138.012 58.4742 137.608 58.7435 137.107 58.9398 136.612 59.0756 136.095 59.1481 135.567L59.7255 135.182 60.5728 134.681 61.2658 136.607C60.6639 137.85 60.2669 139.183 60.0914 140.554 59.9741 141.964 59.7092 143.357 59.3019 144.713 59.1257 145.636 58.737 146.507 58.1661 147.254L57.146 146.176 54.9508 148.101C55.6051 148.429 56.0288 148.91 56.7801 148.852 57.5309 148.794 57.7043 149.276 57.5113 149.892 57.3188 150.508 56.8379 150.951 57.0107 151.817L58.6857 151.817 58.6857 152.684 57.0685 152.395C57.0685 153.03 57.0685 153.55 57.0685 154.051 57.0685 154.551 57.0685 154.59 56.6449 154.59 56.3564 154.07 56.0865 153.55 55.7981 153.05 55.7981 153.05 55.586 153.05 55.4901 152.915L54.6618 153.955 55.5669 154.937 55.3548 156.746C55.7403 156.901 56.0484 157.093 55.7207 157.594L55.7207 157.594C56.0097 157.786 56.3177 158.017 56.5489 157.594 56.7801 157.17 56.7027 156.958 56.8379 156.669 57.1225 156.403 57.4322 156.165 57.7621 155.957L56.9917 158.518C57.2855 159.126 57.4862 159.775 57.5887 160.443 57.5887 161.194 58.2239 161.56 58.3395 162.215 58.5511 163.235 58.8787 163.485 60.0336 163.909 60.0336 164.64 59.0516 164.39 58.8209 165.045 58.9556 165.507 58.9556 166.258 59.3215 166.546 59.6873 166.835 60.1879 167.837 60.8618 168.26 61.3623 166.893 62.5368 166.585 64.0193 166.335 63.8078 166.778 63.75 167.067 63.5956 167.163 63.1502 167.404 62.6867 167.61 62.2096 167.779 61.8629 167.933 61.4392 167.933 61.3045 168.376 61.9207 168.684 62.5177 169.011 63.2298 169.28 63.9424 169.55 64.3852 169.28 64.4239 168.53 64.4495 167.686 64.6594 166.858 65.04 166.104 65.877 165.648 66.8219 165.428 67.7739 165.469 67.6583 164.929 67.7739 164.602 68.4287 164.583 68.8622 164.598 69.2934 164.649 69.7187 164.737 69.6539 164.355 69.5165 163.989 69.3142 163.658 68.824 162.877 68.5143 161.995 68.4091 161.078 68.1119 160.088 68.5879 159.03 69.5257 158.595 69.8093 158.425 70.1053 158.276 70.4118 158.152 71.1287 157.939 71.6069 157.262 71.5671 156.515 71.686 155.383 72.3365 154.376 73.319 153.8 73.5883 153.608 73.8964 153.473 74.1854 153.3 75.0267 152.773 75.6014 151.91 75.7644 150.932 75.9149 150.466 75.6597 149.967 75.1941 149.816 75.1292 149.795 75.0621 149.782 74.994 149.776 74.0033 149.724 73.0802 149.255 72.4526 148.486 71.6631 147.716 71.644 147.254 72.1255 146.195 72.4455 145.297 73.1527 144.59 74.0507 144.27L75.8604 143.712C75.976 143.48 76.0338 143.172 76.2071 143.018 76.7851 142.562 77.0163 141.792 76.7846 141.093 76.6613 140.571 76.8222 140.022 77.2082 139.649 77.4781 139.341 77.8053 139.11 78.0746 138.84 78.3445 138.571 78.0746 138.609 78.0746 138.494L77.4781 137.839 78.1711 136.915C77.8293 136.584 77.5435 136.2 77.3238 135.779 77.1575 135.078 77.067 134.362 77.0545 133.642 77.1368 133.265 77.2867 132.906 77.4972 132.583L79.8074 133.43C81.0625 133.849 82.4469 133.512 83.3695 132.564 82.9791 131.939 82.9791 131.147 83.3695 130.522 83.7135 129.927 83.7135 129.193 83.3695 128.597 83.3695 128.366 83.3695 128.02 83.3695 127.577 84.3253 128.001 85.3929 128.102 86.4114 127.865 88.3116 127.707 90.1823 127.299 91.9762 126.653 92.5318 126.456 93.0377 126.141 93.4587 125.728 94.0901 124.975 94.6571 124.17 95.1528 123.322 95.6729 122.474 95.596 122.07 94.7678 121.396 94.2482 120.914 93.8245 120.434 94.1904 119.683 94.5563 118.931 94.1904 118.546 93.6321 118.2 93.0737 117.853 92.5732 117.641 92.1108 117.295 91.8671 117.09 91.709 116.802 91.6681 116.487 91.6681 116.255 91.9565 116.005 92.1686 115.697 92.715 116.338 93.5034 116.721 94.3442 116.756 94.7296 116.82 95.0966 116.964 95.4226 117.18 96.0655 117.521 96.8005 117.65 97.5213 117.545 97.843 117.46 98.1816 117.46 98.5033 117.545 99.7355 117.935 101.077 117.464 101.795 116.39 102.624 115.466 103.298 114.465 104.202 113.541 104.388 113.354 104.521 113.121 104.588 112.867 104.857 112 105.492 111.288 105.473 110.287 105.509 109.823 105.739 109.396 106.108 109.112 106.696 108.586 107.145 107.926 107.417 107.187 107.822 106.34 108.361 106.34 109.343 107.187 109.574 106.686 109.805 106.243 110.017 105.781 110.442 104.662 111.161 103.678 112.096 102.932 112.997 102.349 113.557 101.365 113.598 100.294 113.598 99.7159 113.502 99.1194 113.502 98.5224 113.502 96.0579 113.252 95.6729 115.524 93.7858 116.693 92.6315 118.108 91.7564 119.663 91.2254 120.438 91.0574 121.159 90.7003 121.762 90.1856 122.489 89.5269 123.463 89.2118 124.438 89.3192 125.623 89.3066 126.805 89.2292 127.981 89.088 128.154 87.9135 129.233 87.6633 129.906 87.1627 130.09 86.3421 130.388 85.551 130.792 84.8138 131.466 83.9087 131.909 82.888 132.544 81.9835 132.889 81.502 133.058 80.9181 133.025 80.3276 132.967 79.4683 133.197 78.6144 133.68 77.9012 133.91 77.5163 134.066 77.0921 134.142 76.6499 134.296 76.0147 134.315 75.3408 134.489 74.7246 134.717 73.7072 134.762 72.6576 134.624 71.6249 134.339 69.8109 134.58 67.9538 135.317 66.2723 136.587 66.1567 136.607 66.2723 137.127 65.3481 137.421 64.9179 137.673 64.4604 137.878 63.9806 138.332 63.0128 138.989 62.1524 139.803 61.4583 140.554 60.7271 141.285 59.9567 141.998 59.1868 143.61 57.4235 144.14 54.9257 143.384 52.6595ZM60.5919 165.853C61.5548 165.276 61.5548 165.276 62.9795 165.622 62.2407 165.97 61.4038 166.052 60.6115 165.853Z" fill="#65D8B5" transform="matrix(-1 1.48805e-16 -1.22105e-16 -1.21151 1614.76 1129)"/><path d="M67.7548 165.372C68.1621 165.551 68.5803 165.706 69.0061 165.834 69.5535 165.874 69.9794 166.325 69.9881 166.874 69.9875 167.124 70.0541 167.37 70.1806 167.586 71.7285 169.731 73.9749 171.27 76.5343 171.938 76.5343 171.938 76.5343 171.938 76.5343 172.073 75.4236 172.546 74.2137 172.737 73.0109 172.631L72.5295 173.401 71.0082 173.285 70.7389 172.323C69.969 171.86 69.7569 173.17 69.0639 172.804L67.7548 173.709C66.8688 173.439 67.0999 172.881 67.1577 172.226L65.2325 172.381 63.6725 171.264C64.462 170.802 65.1551 171.264 65.829 171.148L67.7548 170.936C67.7548 170.436 67.2542 170.455 67.0034 170.262 66.1567 169.627 66.1567 169.358 67.0999 168.703 67.3311 168.549 67.5236 168.337 67.9854 167.933 67.4407 167.965 66.8944 167.965 66.3491 167.933 66.1049 167.923 65.878 167.802 65.733 167.605 65.7139 167.362 65.7897 167.12 65.9446 166.931 66.1708 166.706 66.4156 166.5 66.6763 166.315L67.6583 165.391Z" fill="#65D8B5" transform="matrix(-1 1.48805e-16 -1.22105e-16 -1.21151 1614.76 1129)"/><path d="M89.6463 164.024C89.8775 163.139 90.8017 162.811 90.9942 161.945L92.0143 162.176C92.3033 162.176 92.6114 162.176 92.9385 162.176 92.9385 162.407 92.9385 162.696 92.9385 162.773 91.9456 163.425 90.8219 163.852 89.6463 164.024Z" fill="#65D8B5" transform="matrix(-1 1.48805e-16 -1.22105e-16 -1.21151 1614.76 1129)"/><path d="M61.2854 168.183C61.2854 168.664 61.6895 169.203 61.0156 169.704 60.4381 169.377 59.514 169.704 59.2059 168.664 59.6295 167.875 60.4769 168.664 60.9774 168.202L61.3236 168.202Z" fill="#65D8B5" transform="matrix(-1 1.48805e-16 -1.22105e-16 -1.21151 1614.76 1129)"/><path d="M89.3961 162.542C89.088 163.562 88.1638 163.774 87.1627 164.217 87.4708 163.716 87.7211 163.37 87.9135 163.004 88.3372 162.215 88.3372 162.195 89.3961 162.542Z" fill="#65D8B5" transform="matrix(-1 1.48805e-16 -1.22105e-16 -1.21151 1614.76 1129)"/><path d="M80.5391 137.107C80.5391 137.377 80.5391 137.569 80.4044 137.743 80.2698 137.916 79.7883 138.205 79.6149 138.012 79.4759 137.821 79.3957 137.593 79.3837 137.357 79.3979 137.23 79.4601 137.113 79.5571 137.03 79.7305 136.857 79.9426 136.607 80.1155 136.626 80.2888 136.645 80.4235 136.953 80.5391 137.107Z" fill="#65D8B5" transform="matrix(-1 1.48805e-16 -1.22105e-16 -1.21151 1614.76 1129)"/><path d="M65.5596 169.435 65.2325 170.262C64.8279 170.147 64.9048 169.877 64.9822 169.666 65.0591 169.454 65.2128 169.416 65.3284 169.28Z" fill="#65D8B5" transform="matrix(-1 1.48805e-16 -1.22105e-16 -1.21151 1614.76 1129)"/><path d="M63.5379 170.34 62.4021 170.07C62.4021 169.492 62.768 169.646 63.0182 169.82 63.2074 169.972 63.3699 170.154 63.4997 170.359Z" fill="#65D8B5" transform="matrix(-1 1.48805e-16 -1.22105e-16 -1.21151 1614.76 1129)"/><path d="M69.68 173.131C69.8147 173.459 69.9494 173.613 69.9494 173.767 69.9494 173.921 69.6991 173.979 69.5454 173.998 69.3911 174.017 69.3142 173.863 69.3142 173.824 69.4183 173.584 69.5405 173.353 69.68 173.131Z" fill="#65D8B5" transform="matrix(-1 1.48805e-16 -1.22105e-16 -1.21151 1614.76 1129)"/></g></g></g></g></g></g></g><g clip-path="url(#clip8)"><g clip-path="url(#clip9)"><g clip-path="url(#clip10)"><g clip-path="url(#clip11)"><path d="M389.79-45.1222 829.052-45.1222 829.052 221.805 389.79 221.805Z" fill="#00B3ED" transform="matrix(1 0 0 1.21508 965.113 858.827)"/><path d="M389.247-45.1222 511.992-45.1222 511.905-43.2293C511.417-38.1585 510.459-33.7469 509.13-30.8196 516.232-28.9486 521.49-23.758 529.106-24.09L529.408-23.758C532.007-21.3136 532.43-15.6704 530.738-10.7514 527.716-1.93947 531.796-1.00393 533.095 5.96716 533.826 11.7223 532.693 17.56 529.861 22.6253 527.051 28.6609 525.932 24.0135 521.943 31.1052L519.163 32.1917C522.79 35.813 524.331 39.6154 521.611 43.6894 519.888 46.2545 513.965 45.2587 513.633 48.3368 513.535 52.0432 512.81 55.7063 511.487 59.1704 512.333 57.6313 508.253 59.1704 506.379 59.4117L508.465 62.822C506.237 66.7058 501.921 68.9075 497.464 68.4351L501 73.6861 500.818 74.6217C495.953 76.3717 493.838 79.1182 494.382 82.86 487.31 83.9163 480.359 94.2673 473.74 92.9397 473.74 92.6075 470.718 92.1547 470.718 91.7926L470.416 92.819 466.488 91.5512C466.371 90.2835 465.636 89.1549 464.523 88.5335L463.193 91.1288C454.701 94.9615 446.511 97.7074 438.019 91.3403 436.176 92.4265 428.59 91.9736 425.447 92.7587 422.921 90.8287 420.265 89.0739 417.499 87.5076L418.829 84.4899C420.491 84.0974 421.851 83.3732 421.488 81.4721 426.172 75.9194 424.057 74.4706 427.532 68.9782L426.021 63.2444C429.043 59.714 422.788 53.7085 418.768 59.0198 409.294 60.5588 400.092 56.5299 390.638 54.4831L389.247 54.2419Z" fill="#65D8B5" fill-rule="evenodd" transform="matrix(1 0 0 1.21508 965.113 858.827)"/><g clip-path="url(#clip12)"><g clip-path="url(#clip13)"><g clip-path="url(#clip14)"><path d="M814.808 32.1727C814.591 31.3607 814.401 30.5486 814.156 29.7636 813.536 27.8417 813.264 27.544 811.182 27.5711 809.595 27.5727 808.062 27.017 806.849 26.0011 806.115 25.4497 805.42 24.8528 804.767 24.2146 803.468 23.0162 802.011 22.0047 800.434 21.2099 799.418 20.5537 798.173 20.348 796.999 20.6415 795.172 21.0315 793.264 20.8031 791.584 19.9918 790.23 19.4228 788.719 19.3746 787.333 19.8565L785.196 20.6685C785.153 20.4539 785.153 20.2335 785.196 20.0189 785.468 19.2265 785.408 18.3582 785.033 17.6098 784.582 16.8973 783.788 16.4753 782.945 16.4999 782.706 16.4999 782.516 16.148 782.271 16.0398 780.727 15.4172 779.184 14.7676 777.612 14.2261 776.155 13.4387 774.334 13.9693 773.53 15.4172 773.176 15.8248 772.807 16.2133 772.415 16.5811 772.268 15.9854 772.355 15.3539 772.66 14.8216 772.877 14.2532 772.986 13.6306 773.149 13.0351 772.268 12.4986 771.252 12.235 770.224 12.2772 769.605 12.2772 768.925 12.4126 768.468 11.8171 767.272 12.3173 765.995 12.5749 764.701 12.5749 765.125 11.6476 765.891 10.9203 766.843 10.5448 767.006 10.5448 767.3 10.7072 767.544 10.7884 767.234 10.1983 767.343 9.47261 767.816 9.00187 768.474 8.37581 768.74 7.44516 768.517 6.56571 766.691 5.64266 765.522 3.79305 765.462 1.74747 765.315 0.176934 764.456-1.23984 763.135-2.0963 762.363-2.60249 761.64-3.17283 760.966-3.80163 760.064-4.58771 759.02-5.18566 757.884-5.56112 755.671-6.49797 753.246-6.816 750.871-6.48144 748.751-6.12792 746.587-6.76648 744.999-8.21386 744.227-8.84264 743.412-9.4127 742.558-9.91916 742.183-11.4426 741.205-12.7497 739.857-13.5464 738.302-14.3855 736.616-14.9532 734.871-15.2247 734.871-16.0908 734.871-16.8758 734.708-17.9315 733.703-18.3763 732.664-18.7385 731.599-19.0143 730.43-19.2326 729.538-20.1879 729.408-21.3693 727.587-21.749 725.689-21.3247 724.211-20.2053 722.656-19.0637 720.519-19.1538 719.068-20.4219 718.356-21 717.41-21.2105 716.524-20.9903 715.175-20.7062 713.784-20.7062 712.435-20.9903 712.24-21.2052 712.082-21.4526 711.973-21.7212 711.68-22.9695 710.549-23.8397 709.266-23.8055 706.836-23.9291 704.444-23.1481 702.552-21.6129 702.552-21.6129 702.552-21.4505 702.389-21.1527 702.742-20.5031 703.177-19.691 703.552-18.8789 703.895-18.3026 703.895-17.5875 703.552-17.0112 703.177-16.3656 702.351-16.1476 701.704-16.5244 701.688-16.533 701.677-16.5419 701.66-16.551L700.497-18.6894 701.851-21.2069C701.552-22.2084 701.28-23.0475 701.008-23.9137 701.552-24.2769 702.063-24.6748 702.552-25.1048 702.786-25.361 702.889-25.7114 702.824-26.0522 702.688-26.4637 702.242-26.6866 701.834-26.5501 701.78-26.5335 701.731-26.5117 701.688-26.4852 701.144-26.1875 700.66-25.7273 700.116-25.4025 698.823-24.5398 697.469-23.7796 696.055-23.1287 694.838-22.7556 693.587-22.493 692.321-22.3437 691.092-22.1434 690.124-21.1875 689.912-19.9617 689.776-19.2308 689.668-18.5 689.532-17.742 688.999-17.3938 688.483-17.0142 687.988-16.6052 687.45-16.0908 687.042-15.4683 686.477-15.0081 685.906-14.5479 686.477-13.6276 685.525-13.4922 685.041-13.9524 684.471-14.3585 683.987-14.8186 683.78-13.3602 683.372-11.938 682.763-10.5959 683.802-9.46386 684.394-7.99026 684.416-6.45437 684.541-5.17591 684.541-3.88907 684.416-2.61061 684.193-1.67971 684.373-0.699013 684.905 0.0962668 684.351 1.10458 683.726 2.07256 683.035 2.99263 682.579 3.53401 681.763 3.72349 681.198 4.18366 680.904 4.51281 680.681 4.90016 680.545 5.32054 679.436 7.86501 679.464 7.86501 676.892 8.9207 676.658 9.06983 676.441 9.24227 676.245 9.43499 676.164 10.5465 675.778 11.6143 675.131 12.5209 673.989 13.9717 673.522 15.8462 673.859 17.6639 673.929 17.9026 673.929 18.156 673.859 18.3948 674.511 19.9648 675.783 19.0985 676.566 19.5316 676.898 20.5767 676.446 21.709 675.484 22.2385 674.674 22.8611 673.886 23.4837 673.13 24.1333 672.347 24.7012 672.065 25.7377 672.451 26.6236 672.641 27.138 672.668 27.8147 673.021 28.1666 673.804 28.9516 673.021 29.7366 673.157 30.5757 673.484 30.7922 673.859 31.0629 674.266 31.2795 675.212 31.6777 676.039 32.3227 676.648 33.1472 677.784 35.015 679.001 36.8557 680.034 38.8046 681.062 40.7536 681.872 42.8649 682.899 44.8139 684.226 47.3042 685.743 49.7404 687.123 52.2307 687.499 52.745 687.711 53.356 687.749 53.9902 687.515 55.2741 688.004 56.5816 689.021 57.4008 690.228 58.8061 691.701 59.9641 693.348 60.8116 695.028 61.5695 696.653 62.4355 698.279 63.3287 699.703 63.962 701.03 64.7911 702.226 65.7919 703.03 66.6606 703.878 67.4832 704.775 68.2551 705.444 68.7591 705.868 69.5284 705.939 70.3666 706.075 72.4781 706.341 74.5625 706.423 76.674 706.624 79.3334 706.232 82.0033 705.286 84.4964 705.286 84.659 705.096 84.8759 705.286 85.0112 705.83 86.3915 705.069 87.718 705.286 89.0983 705.482 91.1147 705.319 93.149 704.803 95.1077 704.33 97.7253 703.628 100.297 702.715 102.795 702.492 103.398 702.492 104.06 702.715 104.663 703.199 105.5 703.199 106.532 702.715 107.37 701.872 108.812 701.688 110.545 702.204 112.134 702.579 114.028 702.579 115.978 702.204 117.873 701.769 119.848 700.878 121.662 700.606 123.665 700.508 124.031 700.372 124.385 700.198 124.721 699.633 126.075 699.116 127.428 698.518 128.781 697.926 130.134 697.491 131.921 695.811 132.841 696.191 134.899 696.518 136.902 696.952 138.878 697.137 139.694 696.99 140.551 696.545 141.26 695.169 143.431 694.843 146.103 695.653 148.542 693.647 149.922 694.512 152.169 693.837 153.955 695.245 154.226 695.811 153.955 695.811 152.791 695.811 152.169 695.436 151.6 695.811 150.896 696.088 150.2 696.278 149.473 696.382 148.731L697.192 148.189 698.382 147.486 699.361 150.193C698.513 151.941 697.953 153.815 697.708 155.742 697.545 157.724 697.17 159.684 696.599 161.588 696.349 162.887 695.805 164.11 695.001 165.162L693.566 163.646 690.483 166.352C691.402 166.813 691.995 167.49 693.055 167.408 694.109 167.327 694.354 168.004 694.082 168.87 693.81 169.736 693.131 170.359 693.375 171.577L695.735 171.577 695.735 172.795 693.457 172.389C693.457 173.282 693.457 174.013 693.457 174.717 693.457 175.421 693.457 175.475 692.864 175.475 692.457 174.744 692.076 174.013 691.674 173.309 691.674 173.309 691.375 173.309 691.239 173.12L690.075 174.581 691.348 175.962 691.049 178.507C691.592 178.723 692.022 178.994 691.565 179.698L691.565 179.698C691.967 179.968 692.402 180.293 692.728 179.698 693.055 179.102 692.946 178.804 693.131 178.398 693.533 178.024 693.968 177.689 694.435 177.396L693.348 180.997C693.761 181.853 694.044 182.765 694.191 183.704 694.191 184.759 695.082 185.274 695.245 186.194 695.544 187.629 696.001 187.981 697.627 188.576 697.627 189.605 696.246 189.253 695.92 190.173 696.11 190.823 696.11 191.878 696.626 192.285 697.137 192.691 697.844 194.098 698.79 194.693 699.497 192.772 701.144 192.338 703.232 191.987 702.932 192.609 702.851 193.015 702.633 193.151 702.008 193.489 701.356 193.779 700.687 194.017 700.198 194.233 699.605 194.233 699.415 194.856 700.28 195.289 701.117 195.749 702.122 196.128 703.123 196.507 703.743 196.128 703.797 195.072 703.835 193.886 704.128 192.722 704.667 191.662 705.841 191.021 707.167 190.712 708.51 190.769 708.347 190.01 708.51 189.551 709.429 189.523 710.038 189.545 710.647 189.617 711.245 189.74 711.152 189.203 710.957 188.688 710.674 188.224 709.984 187.125 709.549 185.886 709.402 184.597 708.983 183.205 709.652 181.717 710.973 181.105 711.37 180.865 711.788 180.657 712.218 180.483 713.224 180.184 713.898 179.232 713.843 178.181 714.006 176.59 714.925 175.173 716.306 174.365 716.681 174.094 717.116 173.905 717.524 173.661 718.704 172.92 719.514 171.708 719.742 170.332 719.954 169.677 719.595 168.975 718.943 168.764 718.85 168.735 718.752 168.716 718.66 168.707 717.268 168.633 715.969 167.975 715.088 166.894 713.974 165.811 713.947 165.162 714.626 163.673 715.077 162.41 716.072 161.416 717.334 160.966L719.878 160.181C720.041 159.856 720.122 159.423 720.367 159.206 721.177 158.565 721.503 157.483 721.177 156.499 721.003 155.765 721.232 154.994 721.77 154.469 722.15 154.036 722.612 153.712 722.993 153.333 723.368 152.954 722.993 153.008 722.993 152.845L722.15 151.925 723.123 150.626C722.645 150.161 722.243 149.621 721.933 149.029 721.699 148.044 721.574 147.036 721.558 146.024 721.672 145.494 721.884 144.99 722.177 144.535L725.428 145.726C727.19 146.315 729.136 145.842 730.435 144.508 729.886 143.63 729.886 142.516 730.435 141.639 730.919 140.801 730.919 139.769 730.435 138.932 730.435 138.607 730.435 138.12 730.435 137.498 731.778 138.093 733.279 138.236 734.708 137.903 737.383 137.68 740.014 137.107 742.531 136.198 743.314 135.922 744.026 135.478 744.619 134.899 745.505 133.84 746.304 132.708 747 131.515 747.729 130.324 747.625 129.756 746.456 128.808 745.728 128.132 745.13 127.455 745.646 126.399 746.163 125.343 745.646 124.802 744.864 124.315 744.075 123.828 743.374 123.53 742.722 123.043 742.379 122.755 742.156 122.35 742.102 121.906 742.102 121.581 742.504 121.229 742.803 120.796 743.575 121.697 744.679 122.236 745.864 122.285 746.402 122.375 746.924 122.578 747.381 122.88 748.283 123.361 749.316 123.541 750.327 123.394 750.784 123.275 751.257 123.275 751.708 123.394 753.442 123.942 755.329 123.28 756.34 121.771 757.503 120.471 758.449 119.063 759.721 117.764 759.982 117.502 760.172 117.175 760.265 116.817 760.645 115.599 761.537 114.597 761.51 113.19 761.559 112.537 761.885 111.937 762.401 111.538 763.228 110.8 763.858 109.87 764.244 108.831 764.81 107.64 765.571 107.64 766.952 108.831 767.272 108.128 767.599 107.505 767.898 106.855 768.496 105.282 769.507 103.899 770.822 102.849 772.089 102.031 772.872 100.647 772.932 99.141 772.932 98.3288 772.796 97.4894 772.796 96.6506 772.796 93.186 772.442 92.6445 775.639 89.9915 777.281 88.3688 779.271 87.1385 781.461 86.3915 782.549 86.1556 783.56 85.6533 784.408 84.9297 785.43 84.0039 786.8 83.5608 788.17 83.7119 789.839 83.6945 791.497 83.5858 793.155 83.3868 793.394 81.7358 794.911 81.3835 795.857 80.68 796.118 79.5264 796.536 78.4142 797.102 77.3774 798.053 76.1053 798.673 74.6706 799.57 73.3985 800.054 72.7222 800.288 71.9008 800.244 71.0707 800.163 69.8627 800.483 68.6618 801.163 67.6599 801.489 67.1184 801.707 66.522 801.815 65.9006 802.033 65.0069 802.06 64.0599 802.299 63.1933 802.62 61.7635 802.685 60.2881 802.489 58.8355 802.093 56.2858 802.43 53.6745 803.468 51.3104 805.251 51.148 805.278 51.3104 806.012 50.0111 806.425 49.4069 806.779 48.7632 807.067 48.0892 807.703 46.7279 808.627 45.5187 809.774 44.5432 810.829 43.5146 811.856 42.4318 812.857 41.3491 815.124 38.8704 815.868 35.3585 814.808 32.1727ZM698.409 191.31C699.763 190.498 699.763 190.498 701.769 190.985 700.731 191.474 699.551 191.589 698.437 191.31Z" fill="#65D8B5" transform="matrix(1 0 0 1.21508 965.113 858.827)"/><path d="M708.483 190.633C709.054 190.885 709.641 191.102 710.239 191.283 711.011 191.339 711.609 191.974 711.62 192.744 711.62 193.097 711.712 193.442 711.892 193.746 714.066 196.761 717.225 198.925 720.824 199.864 720.824 199.864 720.824 199.864 720.824 200.053 719.263 200.719 717.562 200.988 715.871 200.838L715.197 201.921 713.055 201.759 712.675 200.405C711.593 199.755 711.299 201.596 710.321 201.082L708.483 202.354C707.238 201.975 707.559 201.19 707.64 200.27L704.933 200.486 702.742 198.916C703.851 198.267 704.824 198.916 705.776 198.754L708.483 198.456C708.483 197.752 707.776 197.78 707.428 197.509 706.232 196.616 706.232 196.236 707.559 195.316 707.885 195.1 708.157 194.802 708.804 194.233 708.037 194.278 707.271 194.278 706.504 194.233 706.162 194.219 705.841 194.05 705.64 193.773 705.613 193.431 705.721 193.091 705.939 192.826 706.254 192.508 706.597 192.219 706.966 191.959L708.347 190.66Z" fill="#65D8B5" transform="matrix(1 0 0 1.21508 965.113 858.827)"/><path d="M739.259 188.738C739.585 187.493 740.884 187.033 741.156 185.815L742.586 186.14C742.993 186.14 743.428 186.14 743.885 186.14 743.885 186.465 743.885 186.871 743.885 186.979 742.493 187.896 740.911 188.497 739.259 188.738Z" fill="#65D8B5" transform="matrix(1 0 0 1.21508 965.113 858.827)"/><path d="M699.388 194.585C699.388 195.262 699.953 196.02 699.007 196.724 698.197 196.263 696.898 196.724 696.463 195.262 697.056 194.152 698.252 195.262 698.953 194.612L699.442 194.612Z" fill="#65D8B5" transform="matrix(1 0 0 1.21508 965.113 858.827)"/><path d="M738.905 186.654C738.476 188.089 737.176 188.387 735.768 189.009 736.198 188.306 736.551 187.818 736.823 187.304 737.416 186.194 737.416 186.167 738.905 186.654Z" fill="#65D8B5" transform="matrix(1 0 0 1.21508 965.113 858.827)"/><path d="M726.456 150.896C726.456 151.276 726.456 151.546 726.266 151.79 726.075 152.033 725.401 152.439 725.157 152.169 724.961 151.9 724.847 151.58 724.83 151.248 724.852 151.07 724.939 150.905 725.075 150.788 725.32 150.544 725.613 150.193 725.858 150.22 726.102 150.246 726.293 150.68 726.456 150.896Z" fill="#65D8B5" transform="matrix(1 0 0 1.21508 965.113 858.827)"/><path d="M705.395 196.345 704.933 197.509C704.368 197.346 704.476 196.967 704.585 196.67 704.694 196.372 704.906 196.318 705.069 196.128Z" fill="#65D8B5" transform="matrix(1 0 0 1.21508 965.113 858.827)"/><path d="M702.552 197.617 700.954 197.238C700.954 196.426 701.47 196.642 701.823 196.886 702.09 197.1 702.318 197.356 702.498 197.644Z" fill="#65D8B5" transform="matrix(1 0 0 1.21508 965.113 858.827)"/><path d="M711.19 201.542C711.375 202.002 711.566 202.218 711.566 202.435 711.566 202.652 711.218 202.733 711 202.76 710.783 202.787 710.674 202.571 710.674 202.516 710.821 202.179 710.995 201.853 711.19 201.542Z" fill="#65D8B5" transform="matrix(1 0 0 1.21508 965.113 858.827)"/></g></g></g><g clip-path="url(#clip15)"><g clip-path="url(#clip16)"><g clip-path="url(#clip17)"><path d="M143.384 52.6595C143.23 52.0819 143.096 51.5043 142.922 50.9459 142.479 49.5789 142.286 49.3671 140.804 49.3864 139.678 49.3875 138.587 48.9922 137.723 48.2696 137.203 47.8774 136.708 47.4529 136.241 46.9989 135.319 46.1465 134.282 45.427 133.16 44.8617 132.436 44.3949 131.551 44.2486 130.715 44.4574 129.416 44.7348 128.061 44.5723 126.864 43.9953 125.903 43.5905 124.826 43.5562 123.841 43.899L122.32 44.4766C122.292 44.3239 122.292 44.1672 122.32 44.0145 122.514 43.451 122.472 42.8333 122.204 42.3009 121.885 41.7941 121.321 41.494 120.722 41.5115 120.549 41.5115 120.414 41.2612 120.241 41.1842 119.144 40.7414 118.046 40.2792 116.929 39.8942 115.891 39.3341 114.596 39.7114 114.022 40.7414 113.774 41.0313 113.51 41.3076 113.233 41.5693 113.125 41.1455 113.187 40.6963 113.406 40.3178 113.56 39.9134 113.637 39.4706 113.752 39.047 113.128 38.6654 112.404 38.4778 111.673 38.5079 111.23 38.5079 110.749 38.6042 110.421 38.1806 109.574 38.5364 108.664 38.7196 107.745 38.7196 108.047 38.06 108.592 37.5427 109.266 37.2756 109.381 37.2756 109.594 37.3912 109.767 37.4489 109.544 37.0292 109.622 36.513 109.959 36.1782 110.426 35.7328 110.618 35.0709 110.46 34.4453 109.161 33.7887 108.325 32.4731 108.284 31.0181 108.181 29.901 107.57 28.8933 106.629 28.2841 106.082 27.924 105.566 27.5183 105.088 27.071 104.447 26.5119 103.701 26.0866 102.893 25.8195 101.321 25.1532 99.597 24.9269 97.9062 25.1649 96.3981 25.4163 94.8583 24.9622 93.728 23.9326 93.1817 23.4854 92.6026 23.0799 91.9952 22.7197 91.7259 21.6361 91.0318 20.7062 90.07 20.1396 88.9659 19.5428 87.7674 19.139 86.527 18.9459 86.527 18.3297 86.527 17.7714 86.4114 17.0205 85.696 16.7041 84.955 16.4465 84.1977 16.2503 83.3662 16.0951 82.7332 15.4155 82.6378 14.5753 81.3439 14.3051 79.9961 14.6069 78.941 15.4031 77.8363 16.2151 76.3157 16.1511 75.283 15.2491 74.7764 14.8379 74.1063 14.6882 73.4733 14.8448 72.5142 15.0469 71.5246 15.0469 70.5655 14.8448 70.427 14.6919 70.3163 14.516 70.2384 14.3249 70.029 13.437 69.2253 12.818 68.3131 12.8424 66.583 12.7544 64.8824 13.31 63.5379 14.4019 63.5379 14.4019 63.5379 14.5175 63.4223 14.7293 63.6725 15.1914 63.9806 15.769 64.2505 16.3466 64.492 16.7566 64.492 17.2652 64.2505 17.6751 63.9822 18.1343 63.3928 18.2893 62.9337 18.0214 62.9234 18.0152 62.913 18.0089 62.9026 18.0024L62.075 16.4814 63.0373 14.6907C62.8258 13.9784 62.6333 13.3815 62.4403 12.7654 62.8241 12.507 63.1911 12.224 63.5379 11.9182 63.7036 11.7359 63.775 11.4867 63.7303 11.2443 63.6333 10.9516 63.3176 10.793 63.0248 10.8901 62.9888 10.9019 62.9544 10.9174 62.9217 10.9362 62.5368 11.148 62.19 11.4753 61.8051 11.7064 60.8863 12.32 59.9202 12.8608 58.9169 13.3238 58.05 13.5891 57.1607 13.776 56.2599 13.8821 55.3865 14.0246 54.6989 14.7045 54.5462 15.5764 54.4502 16.0963 54.3731 16.6162 54.2768 17.1552 53.8954 17.403 53.529 17.673 53.1794 17.9639 52.7943 18.3297 52.5055 18.7726 52.1011 19.0999 51.6968 19.4272 52.1011 20.0818 51.4273 20.1781 51.0807 19.8508 50.6764 19.562 50.3298 19.2347 50.186 20.2721 49.8943 21.2837 49.4634 22.2383 50.2019 23.0435 50.6198 24.0917 50.6379 25.1842 50.7245 26.0935 50.7245 27.0088 50.6379 27.9182 50.4803 28.5803 50.6061 29.2779 50.9844 29.8436 50.5907 30.5608 50.1469 31.2493 49.6559 31.9038 49.3286 32.2889 48.7509 32.4237 48.3466 32.751 48.1375 32.9851 47.98 33.2606 47.8845 33.5596 47.0951 35.3695 47.1144 35.3695 45.2853 36.1204 45.1193 36.2265 44.9645 36.3491 44.8232 36.4862 44.7677 37.2768 44.4943 38.0363 44.0338 38.6812 43.2191 39.7132 42.8893 41.0465 43.1288 42.3394 43.1775 42.5092 43.1775 42.6895 43.1288 42.8592 43.5909 43.976 44.4959 43.3599 45.0542 43.668 45.2887 44.4113 44.9664 45.2167 44.2841 45.5933 43.7065 46.0362 43.1481 46.479 42.609 46.9411 42.0521 47.345 41.8517 48.0823 42.1276 48.7124 42.2624 49.0783 42.2816 49.5596 42.5319 49.8099 43.0903 50.3683 42.5319 50.9267 42.6282 51.5236 42.8592 51.6775 43.1288 51.8701 43.4176 52.0241 44.0911 52.3074 44.6763 52.7662 45.112 53.3526 45.9206 54.6809 46.7871 55.9906 47.5187 57.3766 48.2504 58.7632 48.828 60.2648 49.5596 61.6513 50.5031 63.4223 51.5813 65.1551 52.5632 66.9265 52.8282 67.2924 52.9818 67.727 53.0061 68.1784 52.8422 69.0912 53.1892 70.0214 53.911 70.6042 54.772 71.6037 55.8183 72.4275 56.9917 73.03 58.1852 73.5693 59.3406 74.1854 60.4959 74.8206 61.5101 75.271 62.4561 75.8609 63.3072 76.573 63.8764 77.1908 64.4811 77.7758 65.1169 78.3249 65.5962 78.6831 65.8977 79.2305 65.9446 79.827 66.0411 81.3286 66.2335 82.8111 66.2913 84.3127 66.4315 86.2047 66.1556 88.1038 65.4827 89.8775 65.4827 89.9931 65.3481 90.1469 65.4827 90.2434 65.8677 91.2254 65.3284 92.1686 65.4827 93.1506 65.6212 94.5846 65.504 96.0317 65.136 97.4248 64.8001 99.2868 64.3039 101.117 63.6534 102.893 63.4959 103.322 63.4959 103.793 63.6534 104.222 63.9975 104.817 63.9975 105.551 63.6534 106.147 63.0553 107.173 62.9223 108.405 63.2876 109.536 63.5564 110.883 63.5564 112.27 63.2876 113.617 62.9795 115.023 62.3443 116.313 62.1518 117.738 62.0842 117.998 61.9872 118.25 61.8629 118.489 61.4583 119.452 61.093 120.414 60.6693 121.377 60.2457 122.34 59.9376 123.61 58.7435 124.265 59.0134 125.728 59.2446 127.153 59.5527 128.559 59.6841 129.139 59.5799 129.749 59.2637 130.253 58.2872 131.797 58.0543 133.698 58.6285 135.432 57.2032 136.414 57.8193 138.012 57.3384 139.283 58.3395 139.476 58.7435 139.283 58.7435 138.455 58.7435 138.012 58.4742 137.608 58.7435 137.107 58.9398 136.612 59.0756 136.095 59.1481 135.567L59.7255 135.182 60.5728 134.681 61.2658 136.607C60.6639 137.85 60.2669 139.183 60.0914 140.554 59.9741 141.964 59.7092 143.357 59.3019 144.713 59.1257 145.636 58.737 146.507 58.1661 147.254L57.146 146.176 54.9508 148.101C55.6051 148.429 56.0288 148.91 56.7801 148.852 57.5309 148.794 57.7043 149.276 57.5113 149.892 57.3188 150.508 56.8379 150.951 57.0107 151.817L58.6857 151.817 58.6857 152.684 57.0685 152.395C57.0685 153.03 57.0685 153.55 57.0685 154.051 57.0685 154.551 57.0685 154.59 56.6449 154.59 56.3564 154.07 56.0865 153.55 55.7981 153.05 55.7981 153.05 55.586 153.05 55.4901 152.915L54.6618 153.955 55.5669 154.937 55.3548 156.746C55.7403 156.901 56.0484 157.093 55.7207 157.594L55.7207 157.594C56.0097 157.786 56.3177 158.017 56.5489 157.594 56.7801 157.17 56.7027 156.958 56.8379 156.669 57.1225 156.403 57.4322 156.165 57.7621 155.957L56.9917 158.518C57.2855 159.126 57.4862 159.775 57.5887 160.443 57.5887 161.194 58.2239 161.56 58.3395 162.215 58.5511 163.235 58.8787 163.485 60.0336 163.909 60.0336 164.64 59.0516 164.39 58.8209 165.045 58.9556 165.507 58.9556 166.258 59.3215 166.546 59.6873 166.835 60.1879 167.837 60.8618 168.26 61.3623 166.893 62.5368 166.585 64.0193 166.335 63.8078 166.778 63.75 167.067 63.5956 167.163 63.1502 167.404 62.6867 167.61 62.2096 167.779 61.8629 167.933 61.4392 167.933 61.3045 168.376 61.9207 168.684 62.5177 169.011 63.2298 169.28 63.9424 169.55 64.3852 169.28 64.4239 168.53 64.4495 167.686 64.6594 166.858 65.04 166.104 65.877 165.648 66.8219 165.428 67.7739 165.469 67.6583 164.929 67.7739 164.602 68.4287 164.583 68.8622 164.598 69.2934 164.649 69.7187 164.737 69.6539 164.355 69.5165 163.989 69.3142 163.658 68.824 162.877 68.5143 161.995 68.4091 161.078 68.1119 160.088 68.5879 159.03 69.5257 158.595 69.8093 158.425 70.1053 158.276 70.4118 158.152 71.1287 157.939 71.6069 157.262 71.5671 156.515 71.686 155.383 72.3365 154.376 73.319 153.8 73.5883 153.608 73.8964 153.473 74.1854 153.3 75.0267 152.773 75.6014 151.91 75.7644 150.932 75.9149 150.466 75.6597 149.967 75.1941 149.816 75.1292 149.795 75.0621 149.782 74.994 149.776 74.0033 149.724 73.0802 149.255 72.4526 148.486 71.6631 147.716 71.644 147.254 72.1255 146.195 72.4455 145.297 73.1527 144.59 74.0507 144.27L75.8604 143.712C75.976 143.48 76.0338 143.172 76.2071 143.018 76.7851 142.562 77.0163 141.792 76.7846 141.093 76.6613 140.571 76.8222 140.022 77.2082 139.649 77.4781 139.341 77.8053 139.11 78.0746 138.84 78.3445 138.571 78.0746 138.609 78.0746 138.494L77.4781 137.839 78.1711 136.915C77.8293 136.584 77.5435 136.2 77.3238 135.779 77.1575 135.078 77.067 134.362 77.0545 133.642 77.1368 133.265 77.2867 132.906 77.4972 132.583L79.8074 133.43C81.0625 133.849 82.4469 133.512 83.3695 132.564 82.9791 131.939 82.9791 131.147 83.3695 130.522 83.7135 129.927 83.7135 129.193 83.3695 128.597 83.3695 128.366 83.3695 128.02 83.3695 127.577 84.3253 128.001 85.3929 128.102 86.4114 127.865 88.3116 127.707 90.1823 127.299 91.9762 126.653 92.5318 126.456 93.0377 126.141 93.4587 125.728 94.0901 124.975 94.6571 124.17 95.1528 123.322 95.6729 122.474 95.596 122.07 94.7678 121.396 94.2482 120.914 93.8245 120.434 94.1904 119.683 94.5563 118.931 94.1904 118.546 93.6321 118.2 93.0737 117.853 92.5732 117.641 92.1108 117.295 91.8671 117.09 91.709 116.802 91.6681 116.487 91.6681 116.255 91.9565 116.005 92.1686 115.697 92.715 116.338 93.5034 116.721 94.3442 116.756 94.7296 116.82 95.0966 116.964 95.4226 117.18 96.0655 117.521 96.8005 117.65 97.5213 117.545 97.843 117.46 98.1816 117.46 98.5033 117.545 99.7355 117.935 101.077 117.464 101.795 116.39 102.624 115.466 103.298 114.465 104.202 113.541 104.388 113.354 104.521 113.121 104.588 112.867 104.857 112 105.492 111.288 105.473 110.287 105.509 109.823 105.739 109.396 106.108 109.112 106.696 108.586 107.145 107.926 107.417 107.187 107.822 106.34 108.361 106.34 109.343 107.187 109.574 106.686 109.805 106.243 110.017 105.781 110.442 104.662 111.161 103.678 112.096 102.932 112.997 102.349 113.557 101.365 113.598 100.294 113.598 99.7159 113.502 99.1194 113.502 98.5224 113.502 96.0579 113.252 95.6729 115.524 93.7858 116.693 92.6315 118.108 91.7564 119.663 91.2254 120.438 91.0574 121.159 90.7003 121.762 90.1856 122.489 89.5269 123.463 89.2118 124.438 89.3192 125.623 89.3066 126.805 89.2292 127.981 89.088 128.154 87.9135 129.233 87.6633 129.906 87.1627 130.09 86.3421 130.388 85.551 130.792 84.8138 131.466 83.9087 131.909 82.888 132.544 81.9835 132.889 81.502 133.058 80.9181 133.025 80.3276 132.967 79.4683 133.197 78.6144 133.68 77.9012 133.91 77.5163 134.066 77.0921 134.142 76.6499 134.296 76.0147 134.315 75.3408 134.489 74.7246 134.717 73.7072 134.762 72.6576 134.624 71.6249 134.339 69.8109 134.58 67.9538 135.317 66.2723 136.587 66.1567 136.607 66.2723 137.127 65.3481 137.421 64.9179 137.673 64.4604 137.878 63.9806 138.332 63.0128 138.989 62.1524 139.803 61.4583 140.554 60.7271 141.285 59.9567 141.998 59.1868 143.61 57.4235 144.14 54.9257 143.384 52.6595ZM60.5919 165.853C61.5548 165.276 61.5548 165.276 62.9795 165.622 62.2407 165.97 61.4038 166.052 60.6115 165.853Z" fill="#65D8B5" transform="matrix(-1 1.48805e-16 -1.22105e-16 -1.21151 1614.76 1129)"/><path d="M67.7548 165.372C68.1621 165.551 68.5803 165.706 69.0061 165.834 69.5535 165.874 69.9794 166.325 69.9881 166.874 69.9875 167.124 70.0541 167.37 70.1806 167.586 71.7285 169.731 73.9749 171.27 76.5343 171.938 76.5343 171.938 76.5343 171.938 76.5343 172.073 75.4236 172.546 74.2137 172.737 73.0109 172.631L72.5295 173.401 71.0082 173.285 70.7389 172.323C69.969 171.86 69.7569 173.17 69.0639 172.804L67.7548 173.709C66.8688 173.439 67.0999 172.881 67.1577 172.226L65.2325 172.381 63.6725 171.264C64.462 170.802 65.1551 171.264 65.829 171.148L67.7548 170.936C67.7548 170.436 67.2542 170.455 67.0034 170.262 66.1567 169.627 66.1567 169.358 67.0999 168.703 67.3311 168.549 67.5236 168.337 67.9854 167.933 67.4407 167.965 66.8944 167.965 66.3491 167.933 66.1049 167.923 65.878 167.802 65.733 167.605 65.7139 167.362 65.7897 167.12 65.9446 166.931 66.1708 166.706 66.4156 166.5 66.6763 166.315L67.6583 165.391Z" fill="#65D8B5" transform="matrix(-1 1.48805e-16 -1.22105e-16 -1.21151 1614.76 1129)"/><path d="M89.6463 164.024C89.8775 163.139 90.8017 162.811 90.9942 161.945L92.0143 162.176C92.3033 162.176 92.6114 162.176 92.9385 162.176 92.9385 162.407 92.9385 162.696 92.9385 162.773 91.9456 163.425 90.8219 163.852 89.6463 164.024Z" fill="#65D8B5" transform="matrix(-1 1.48805e-16 -1.22105e-16 -1.21151 1614.76 1129)"/><path d="M61.2854 168.183C61.2854 168.664 61.6895 169.203 61.0156 169.704 60.4381 169.377 59.514 169.704 59.2059 168.664 59.6295 167.875 60.4769 168.664 60.9774 168.202L61.3236 168.202Z" fill="#65D8B5" transform="matrix(-1 1.48805e-16 -1.22105e-16 -1.21151 1614.76 1129)"/><path d="M89.3961 162.542C89.088 163.562 88.1638 163.774 87.1627 164.217 87.4708 163.716 87.7211 163.37 87.9135 163.004 88.3372 162.215 88.3372 162.195 89.3961 162.542Z" fill="#65D8B5" transform="matrix(-1 1.48805e-16 -1.22105e-16 -1.21151 1614.76 1129)"/><path d="M80.5391 137.107C80.5391 137.377 80.5391 137.569 80.4044 137.743 80.2698 137.916 79.7883 138.205 79.6149 138.012 79.4759 137.821 79.3957 137.593 79.3837 137.357 79.3979 137.23 79.4601 137.113 79.5571 137.03 79.7305 136.857 79.9426 136.607 80.1155 136.626 80.2888 136.645 80.4235 136.953 80.5391 137.107Z" fill="#65D8B5" transform="matrix(-1 1.48805e-16 -1.22105e-16 -1.21151 1614.76 1129)"/><path d="M65.5596 169.435 65.2325 170.262C64.8279 170.147 64.9048 169.877 64.9822 169.666 65.0591 169.454 65.2128 169.416 65.3284 169.28Z" fill="#65D8B5" transform="matrix(-1 1.48805e-16 -1.22105e-16 -1.21151 1614.76 1129)"/><path d="M63.5379 170.34 62.4021 170.07C62.4021 169.492 62.768 169.646 63.0182 169.82 63.2074 169.972 63.3699 170.154 63.4997 170.359Z" fill="#65D8B5" transform="matrix(-1 1.48805e-16 -1.22105e-16 -1.21151 1614.76 1129)"/><path d="M69.68 173.131C69.8147 173.459 69.9494 173.613 69.9494 173.767 69.9494 173.921 69.6991 173.979 69.5454 173.998 69.3911 174.017 69.3142 173.863 69.3142 173.824 69.4183 173.584 69.5405 173.353 69.68 173.131Z" fill="#65D8B5" transform="matrix(-1 1.48805e-16 -1.22105e-16 -1.21151 1614.76 1129)"/></g></g></g></g></g></g></g><g clip-path="url(#clip18)"><g clip-path="url(#clip19)"><g clip-path="url(#clip20)"><g clip-path="url(#clip21)"><path d="M389.79-45.1222 829.052-45.1222 829.052 221.805 389.79 221.805Z" fill="#00B3ED" transform="matrix(1 0 0 1.21508 965.113 858.827)"/><path d="M389.247-45.1222 511.992-45.1222 511.905-43.2293C511.417-38.1585 510.459-33.7469 509.13-30.8196 516.232-28.9486 521.49-23.758 529.106-24.09L529.408-23.758C532.007-21.3136 532.43-15.6704 530.738-10.7514 527.716-1.93947 531.796-1.00393 533.095 5.96716 533.826 11.7223 532.693 17.56 529.861 22.6253 527.051 28.6609 525.932 24.0135 521.943 31.1052L519.163 32.1917C522.79 35.813 524.331 39.6154 521.611 43.6894 519.888 46.2545 513.965 45.2587 513.633 48.3368 513.535 52.0432 512.81 55.7063 511.487 59.1704 512.333 57.6313 508.253 59.1704 506.379 59.4117L508.465 62.822C506.237 66.7058 501.921 68.9075 497.464 68.4351L501 73.6861 500.818 74.6217C495.953 76.3717 493.838 79.1182 494.382 82.86 487.31 83.9163 480.359 94.2673 473.74 92.9397 473.74 92.6075 470.718 92.1547 470.718 91.7926L470.416 92.819 466.488 91.5512C466.371 90.2835 465.636 89.1549 464.523 88.5335L463.193 91.1288C454.701 94.9615 446.511 97.7074 438.019 91.3403 436.176 92.4265 428.59 91.9736 425.447 92.7587 422.921 90.8287 420.265 89.0739 417.499 87.5076L418.829 84.4899C420.491 84.0974 421.851 83.3732 421.488 81.4721 426.172 75.9194 424.057 74.4706 427.532 68.9782L426.021 63.2444C429.043 59.714 422.788 53.7085 418.768 59.0198 409.294 60.5588 400.092 56.5299 390.638 54.4831L389.247 54.2419Z" fill="#65D8B5" fill-rule="evenodd" transform="matrix(1 0 0 1.21508 965.113 858.827)"/><g clip-path="url(#clip22)"><g clip-path="url(#clip23)"><g clip-path="url(#clip24)"><path d="M814.808 32.1727C814.591 31.3607 814.401 30.5486 814.156 29.7636 813.536 27.8417 813.264 27.544 811.182 27.5711 809.595 27.5727 808.062 27.017 806.849 26.0011 806.115 25.4497 805.42 24.8528 804.767 24.2146 803.468 23.0162 802.011 22.0047 800.434 21.2099 799.418 20.5537 798.173 20.348 796.999 20.6415 795.172 21.0315 793.264 20.8031 791.584 19.9918 790.23 19.4228 788.719 19.3746 787.333 19.8565L785.196 20.6685C785.153 20.4539 785.153 20.2335 785.196 20.0189 785.468 19.2265 785.408 18.3582 785.033 17.6098 784.582 16.8973 783.788 16.4753 782.945 16.4999 782.706 16.4999 782.516 16.148 782.271 16.0398 780.727 15.4172 779.184 14.7676 777.612 14.2261 776.155 13.4387 774.334 13.9693 773.53 15.4172 773.176 15.8248 772.807 16.2133 772.415 16.5811 772.268 15.9854 772.355 15.3539 772.66 14.8216 772.877 14.2532 772.986 13.6306 773.149 13.0351 772.268 12.4986 771.252 12.235 770.224 12.2772 769.605 12.2772 768.925 12.4126 768.468 11.8171 767.272 12.3173 765.995 12.5749 764.701 12.5749 765.125 11.6476 765.891 10.9203 766.843 10.5448 767.006 10.5448 767.3 10.7072 767.544 10.7884 767.234 10.1983 767.343 9.47261 767.816 9.00187 768.474 8.37581 768.74 7.44516 768.517 6.56571 766.691 5.64266 765.522 3.79305 765.462 1.74747 765.315 0.176934 764.456-1.23984 763.135-2.0963 762.363-2.60249 761.64-3.17283 760.966-3.80163 760.064-4.58771 759.02-5.18566 757.884-5.56112 755.671-6.49797 753.246-6.816 750.871-6.48144 748.751-6.12792 746.587-6.76648 744.999-8.21386 744.227-8.84264 743.412-9.4127 742.558-9.91916 742.183-11.4426 741.205-12.7497 739.857-13.5464 738.302-14.3855 736.616-14.9532 734.871-15.2247 734.871-16.0908 734.871-16.8758 734.708-17.9315 733.703-18.3763 732.664-18.7385 731.599-19.0143 730.43-19.2326 729.538-20.1879 729.408-21.3693 727.587-21.749 725.689-21.3247 724.211-20.2053 722.656-19.0637 720.519-19.1538 719.068-20.4219 718.356-21 717.41-21.2105 716.524-20.9903 715.175-20.7062 713.784-20.7062 712.435-20.9903 712.24-21.2052 712.082-21.4526 711.973-21.7212 711.68-22.9695 710.549-23.8397 709.266-23.8055 706.836-23.9291 704.444-23.1481 702.552-21.6129 702.552-21.6129 702.552-21.4505 702.389-21.1527 702.742-20.5031 703.177-19.691 703.552-18.8789 703.895-18.3026 703.895-17.5875 703.552-17.0112 703.177-16.3656 702.351-16.1476 701.704-16.5244 701.688-16.533 701.677-16.5419 701.66-16.551L700.497-18.6894 701.851-21.2069C701.552-22.2084 701.28-23.0475 701.008-23.9137 701.552-24.2769 702.063-24.6748 702.552-25.1048 702.786-25.361 702.889-25.7114 702.824-26.0522 702.688-26.4637 702.242-26.6866 701.834-26.5501 701.78-26.5335 701.731-26.5117 701.688-26.4852 701.144-26.1875 700.66-25.7273 700.116-25.4025 698.823-24.5398 697.469-23.7796 696.055-23.1287 694.838-22.7556 693.587-22.493 692.321-22.3437 691.092-22.1434 690.124-21.1875 689.912-19.9617 689.776-19.2308 689.668-18.5 689.532-17.742 688.999-17.3938 688.483-17.0142 687.988-16.6052 687.45-16.0908 687.042-15.4683 686.477-15.0081 685.906-14.5479 686.477-13.6276 685.525-13.4922 685.041-13.9524 684.471-14.3585 683.987-14.8186 683.78-13.3602 683.372-11.938 682.763-10.5959 683.802-9.46386 684.394-7.99026 684.416-6.45437 684.541-5.17591 684.541-3.88907 684.416-2.61061 684.193-1.67971 684.373-0.699013 684.905 0.0962668 684.351 1.10458 683.726 2.07256 683.035 2.99263 682.579 3.53401 681.763 3.72349 681.198 4.18366 680.904 4.51281 680.681 4.90016 680.545 5.32054 679.436 7.86501 679.464 7.86501 676.892 8.9207 676.658 9.06983 676.441 9.24227 676.245 9.43499 676.164 10.5465 675.778 11.6143 675.131 12.5209 673.989 13.9717 673.522 15.8462 673.859 17.6639 673.929 17.9026 673.929 18.156 673.859 18.3948 674.511 19.9648 675.783 19.0985 676.566 19.5316 676.898 20.5767 676.446 21.709 675.484 22.2385 674.674 22.8611 673.886 23.4837 673.13 24.1333 672.347 24.7012 672.065 25.7377 672.451 26.6236 672.641 27.138 672.668 27.8147 673.021 28.1666 673.804 28.9516 673.021 29.7366 673.157 30.5757 673.484 30.7922 673.859 31.0629 674.266 31.2795 675.212 31.6777 676.039 32.3227 676.648 33.1472 677.784 35.015 679.001 36.8557 680.034 38.8046 681.062 40.7536 681.872 42.8649 682.899 44.8139 684.226 47.3042 685.743 49.7404 687.123 52.2307 687.499 52.745 687.711 53.356 687.749 53.9902 687.515 55.2741 688.004 56.5816 689.021 57.4008 690.228 58.8061 691.701 59.9641 693.348 60.8116 695.028 61.5695 696.653 62.4355 698.279 63.3287 699.703 63.962 701.03 64.7911 702.226 65.7919 703.03 66.6606 703.878 67.4832 704.775 68.2551 705.444 68.7591 705.868 69.5284 705.939 70.3666 706.075 72.4781 706.341 74.5625 706.423 76.674 706.624 79.3334 706.232 82.0033 705.286 84.4964 705.286 84.659 705.096 84.8759 705.286 85.0112 705.83 86.3915 705.069 87.718 705.286 89.0983 705.482 91.1147 705.319 93.149 704.803 95.1077 704.33 97.7253 703.628 100.297 702.715 102.795 702.492 103.398 702.492 104.06 702.715 104.663 703.199 105.5 703.199 106.532 702.715 107.37 701.872 108.812 701.688 110.545 702.204 112.134 702.579 114.028 702.579 115.978 702.204 117.873 701.769 119.848 700.878 121.662 700.606 123.665 700.508 124.031 700.372 124.385 700.198 124.721 699.633 126.075 699.116 127.428 698.518 128.781 697.926 130.134 697.491 131.921 695.811 132.841 696.191 134.899 696.518 136.902 696.952 138.878 697.137 139.694 696.99 140.551 696.545 141.26 695.169 143.431 694.843 146.103 695.653 148.542 693.647 149.922 694.512 152.169 693.837 153.955 695.245 154.226 695.811 153.955 695.811 152.791 695.811 152.169 695.436 151.6 695.811 150.896 696.088 150.2 696.278 149.473 696.382 148.731L697.192 148.189 698.382 147.486 699.361 150.193C698.513 151.941 697.953 153.815 697.708 155.742 697.545 157.724 697.17 159.684 696.599 161.588 696.349 162.887 695.805 164.11 695.001 165.162L693.566 163.646 690.483 166.352C691.402 166.813 691.995 167.49 693.055 167.408 694.109 167.327 694.354 168.004 694.082 168.87 693.81 169.736 693.131 170.359 693.375 171.577L695.735 171.577 695.735 172.795 693.457 172.389C693.457 173.282 693.457 174.013 693.457 174.717 693.457 175.421 693.457 175.475 692.864 175.475 692.457 174.744 692.076 174.013 691.674 173.309 691.674 173.309 691.375 173.309 691.239 173.12L690.075 174.581 691.348 175.962 691.049 178.507C691.592 178.723 692.022 178.994 691.565 179.698L691.565 179.698C691.967 179.968 692.402 180.293 692.728 179.698 693.055 179.102 692.946 178.804 693.131 178.398 693.533 178.024 693.968 177.689 694.435 177.396L693.348 180.997C693.761 181.853 694.044 182.765 694.191 183.704 694.191 184.759 695.082 185.274 695.245 186.194 695.544 187.629 696.001 187.981 697.627 188.576 697.627 189.605 696.246 189.253 695.92 190.173 696.11 190.823 696.11 191.878 696.626 192.285 697.137 192.691 697.844 194.098 698.79 194.693 699.497 192.772 701.144 192.338 703.232 191.987 702.932 192.609 702.851 193.015 702.633 193.151 702.008 193.489 701.356 193.779 700.687 194.017 700.198 194.233 699.605 194.233 699.415 194.856 700.28 195.289 701.117 195.749 702.122 196.128 703.123 196.507 703.743 196.128 703.797 195.072 703.835 193.886 704.128 192.722 704.667 191.662 705.841 191.021 707.167 190.712 708.51 190.769 708.347 190.01 708.51 189.551 709.429 189.523 710.038 189.545 710.647 189.617 711.245 189.74 711.152 189.203 710.957 188.688 710.674 188.224 709.984 187.125 709.549 185.886 709.402 184.597 708.983 183.205 709.652 181.717 710.973 181.105 711.37 180.865 711.788 180.657 712.218 180.483 713.224 180.184 713.898 179.232 713.843 178.181 714.006 176.59 714.925 175.173 716.306 174.365 716.681 174.094 717.116 173.905 717.524 173.661 718.704 172.92 719.514 171.708 719.742 170.332 719.954 169.677 719.595 168.975 718.943 168.764 718.85 168.735 718.752 168.716 718.66 168.707 717.268 168.633 715.969 167.975 715.088 166.894 713.974 165.811 713.947 165.162 714.626 163.673 715.077 162.41 716.072 161.416 717.334 160.966L719.878 160.181C720.041 159.856 720.122 159.423 720.367 159.206 721.177 158.565 721.503 157.483 721.177 156.499 721.003 155.765 721.232 154.994 721.77 154.469 722.15 154.036 722.612 153.712 722.993 153.333 723.368 152.954 722.993 153.008 722.993 152.845L722.15 151.925 723.123 150.626C722.645 150.161 722.243 149.621 721.933 149.029 721.699 148.044 721.574 147.036 721.558 146.024 721.672 145.494 721.884 144.99 722.177 144.535L725.428 145.726C727.19 146.315 729.136 145.842 730.435 144.508 729.886 143.63 729.886 142.516 730.435 141.639 730.919 140.801 730.919 139.769 730.435 138.932 730.435 138.607 730.435 138.12 730.435 137.498 731.778 138.093 733.279 138.236 734.708 137.903 737.383 137.68 740.014 137.107 742.531 136.198 743.314 135.922 744.026 135.478 744.619 134.899 745.505 133.84 746.304 132.708 747 131.515 747.729 130.324 747.625 129.756 746.456 128.808 745.728 128.132 745.13 127.455 745.646 126.399 746.163 125.343 745.646 124.802 744.864 124.315 744.075 123.828 743.374 123.53 742.722 123.043 742.379 122.755 742.156 122.35 742.102 121.906 742.102 121.581 742.504 121.229 742.803 120.796 743.575 121.697 744.679 122.236 745.864 122.285 746.402 122.375 746.924 122.578 747.381 122.88 748.283 123.361 749.316 123.541 750.327 123.394 750.784 123.275 751.257 123.275 751.708 123.394 753.442 123.942 755.329 123.28 756.34 121.771 757.503 120.471 758.449 119.063 759.721 117.764 759.982 117.502 760.172 117.175 760.265 116.817 760.645 115.599 761.537 114.597 761.51 113.19 761.559 112.537 761.885 111.937 762.401 111.538 763.228 110.8 763.858 109.87 764.244 108.831 764.81 107.64 765.571 107.64 766.952 108.831 767.272 108.128 767.599 107.505 767.898 106.855 768.496 105.282 769.507 103.899 770.822 102.849 772.089 102.031 772.872 100.647 772.932 99.141 772.932 98.3288 772.796 97.4894 772.796 96.6506 772.796 93.186 772.442 92.6445 775.639 89.9915 777.281 88.3688 779.271 87.1385 781.461 86.3915 782.549 86.1556 783.56 85.6533 784.408 84.9297 785.43 84.0039 786.8 83.5608 788.17 83.7119 789.839 83.6945 791.497 83.5858 793.155 83.3868 793.394 81.7358 794.911 81.3835 795.857 80.68 796.118 79.5264 796.536 78.4142 797.102 77.3774 798.053 76.1053 798.673 74.6706 799.57 73.3985 800.054 72.7222 800.288 71.9008 800.244 71.0707 800.163 69.8627 800.483 68.6618 801.163 67.6599 801.489 67.1184 801.707 66.522 801.815 65.9006 802.033 65.0069 802.06 64.0599 802.299 63.1933 802.62 61.7635 802.685 60.2881 802.489 58.8355 802.093 56.2858 802.43 53.6745 803.468 51.3104 805.251 51.148 805.278 51.3104 806.012 50.0111 806.425 49.4069 806.779 48.7632 807.067 48.0892 807.703 46.7279 808.627 45.5187 809.774 44.5432 810.829 43.5146 811.856 42.4318 812.857 41.3491 815.124 38.8704 815.868 35.3585 814.808 32.1727ZM698.409 191.31C699.763 190.498 699.763 190.498 701.769 190.985 700.731 191.474 699.551 191.589 698.437 191.31Z" fill="#65D8B5" transform="matrix(1 0 0 1.21508 965.113 858.827)"/><path d="M708.483 190.633C709.054 190.885 709.641 191.102 710.239 191.283 711.011 191.339 711.609 191.974 711.62 192.744 711.62 193.097 711.712 193.442 711.892 193.746 714.066 196.761 717.225 198.925 720.824 199.864 720.824 199.864 720.824 199.864 720.824 200.053 719.263 200.719 717.562 200.988 715.871 200.838L715.197 201.921 713.055 201.759 712.675 200.405C711.593 199.755 711.299 201.596 710.321 201.082L708.483 202.354C707.238 201.975 707.559 201.19 707.64 200.27L704.933 200.486 702.742 198.916C703.851 198.267 704.824 198.916 705.776 198.754L708.483 198.456C708.483 197.752 707.776 197.78 707.428 197.509 706.232 196.616 706.232 196.236 707.559 195.316 707.885 195.1 708.157 194.802 708.804 194.233 708.037 194.278 707.271 194.278 706.504 194.233 706.162 194.219 705.841 194.05 705.64 193.773 705.613 193.431 705.721 193.091 705.939 192.826 706.254 192.508 706.597 192.219 706.966 191.959L708.347 190.66Z" fill="#65D8B5" transform="matrix(1 0 0 1.21508 965.113 858.827)"/><path d="M739.259 188.738C739.585 187.493 740.884 187.033 741.156 185.815L742.586 186.14C742.993 186.14 743.428 186.14 743.885 186.14 743.885 186.465 743.885 186.871 743.885 186.979 742.493 187.896 740.911 188.497 739.259 188.738Z" fill="#65D8B5" transform="matrix(1 0 0 1.21508 965.113 858.827)"/><path d="M699.388 194.585C699.388 195.262 699.953 196.02 699.007 196.724 698.197 196.263 696.898 196.724 696.463 195.262 697.056 194.152 698.252 195.262 698.953 194.612L699.442 194.612Z" fill="#65D8B5" transform="matrix(1 0 0 1.21508 965.113 858.827)"/><path d="M738.905 186.654C738.476 188.089 737.176 188.387 735.768 189.009 736.198 188.306 736.551 187.818 736.823 187.304 737.416 186.194 737.416 186.167 738.905 186.654Z" fill="#65D8B5" transform="matrix(1 0 0 1.21508 965.113 858.827)"/><path d="M726.456 150.896C726.456 151.276 726.456 151.546 726.266 151.79 726.075 152.033 725.401 152.439 725.157 152.169 724.961 151.9 724.847 151.58 724.83 151.248 724.852 151.07 724.939 150.905 725.075 150.788 725.32 150.544 725.613 150.193 725.858 150.22 726.102 150.246 726.293 150.68 726.456 150.896Z" fill="#65D8B5" transform="matrix(1 0 0 1.21508 965.113 858.827)"/><path d="M705.395 196.345 704.933 197.509C704.368 197.346 704.476 196.967 704.585 196.67 704.694 196.372 704.906 196.318 705.069 196.128Z" fill="#65D8B5" transform="matrix(1 0 0 1.21508 965.113 858.827)"/><path d="M702.552 197.617 700.954 197.238C700.954 196.426 701.47 196.642 701.823 196.886 702.09 197.1 702.318 197.356 702.498 197.644Z" fill="#65D8B5" transform="matrix(1 0 0 1.21508 965.113 858.827)"/><path d="M711.19 201.542C711.375 202.002 711.566 202.218 711.566 202.435 711.566 202.652 711.218 202.733 711 202.76 710.783 202.787 710.674 202.571 710.674 202.516 710.821 202.179 710.995 201.853 711.19 201.542Z" fill="#65D8B5" transform="matrix(1 0 0 1.21508 965.113 858.827)"/></g></g></g><g clip-path="url(#clip25)"><g clip-path="url(#clip26)"><g clip-path="url(#clip27)"><path d="M143.384 52.6595C143.23 52.0819 143.096 51.5043 142.922 50.9459 142.479 49.5789 142.286 49.3671 140.804 49.3864 139.678 49.3875 138.587 48.9922 137.723 48.2696 137.203 47.8774 136.708 47.4529 136.241 46.9989 135.319 46.1465 134.282 45.427 133.16 44.8617 132.436 44.3949 131.551 44.2486 130.715 44.4574 129.416 44.7348 128.061 44.5723 126.864 43.9953 125.903 43.5905 124.826 43.5562 123.841 43.899L122.32 44.4766C122.292 44.3239 122.292 44.1672 122.32 44.0145 122.514 43.451 122.472 42.8333 122.204 42.3009 121.885 41.7941 121.321 41.494 120.722 41.5115 120.549 41.5115 120.414 41.2612 120.241 41.1842 119.144 40.7414 118.046 40.2792 116.929 39.8942 115.891 39.3341 114.596 39.7114 114.022 40.7414 113.774 41.0313 113.51 41.3076 113.233 41.5693 113.125 41.1455 113.187 40.6963 113.406 40.3178 113.56 39.9134 113.637 39.4706 113.752 39.047 113.128 38.6654 112.404 38.4778 111.673 38.5079 111.23 38.5079 110.749 38.6042 110.421 38.1806 109.574 38.5364 108.664 38.7196 107.745 38.7196 108.047 38.06 108.592 37.5427 109.266 37.2756 109.381 37.2756 109.594 37.3912 109.767 37.4489 109.544 37.0292 109.622 36.513 109.959 36.1782 110.426 35.7328 110.618 35.0709 110.46 34.4453 109.161 33.7887 108.325 32.4731 108.284 31.0181 108.181 29.901 107.57 28.8933 106.629 28.2841 106.082 27.924 105.566 27.5183 105.088 27.071 104.447 26.5119 103.701 26.0866 102.893 25.8195 101.321 25.1532 99.597 24.9269 97.9062 25.1649 96.3981 25.4163 94.8583 24.9622 93.728 23.9326 93.1817 23.4854 92.6026 23.0799 91.9952 22.7197 91.7259 21.6361 91.0318 20.7062 90.07 20.1396 88.9659 19.5428 87.7674 19.139 86.527 18.9459 86.527 18.3297 86.527 17.7714 86.4114 17.0205 85.696 16.7041 84.955 16.4465 84.1977 16.2503 83.3662 16.0951 82.7332 15.4155 82.6378 14.5753 81.3439 14.3051 79.9961 14.6069 78.941 15.4031 77.8363 16.2151 76.3157 16.1511 75.283 15.2491 74.7764 14.8379 74.1063 14.6882 73.4733 14.8448 72.5142 15.0469 71.5246 15.0469 70.5655 14.8448 70.427 14.6919 70.3163 14.516 70.2384 14.3249 70.029 13.437 69.2253 12.818 68.3131 12.8424 66.583 12.7544 64.8824 13.31 63.5379 14.4019 63.5379 14.4019 63.5379 14.5175 63.4223 14.7293 63.6725 15.1914 63.9806 15.769 64.2505 16.3466 64.492 16.7566 64.492 17.2652 64.2505 17.6751 63.9822 18.1343 63.3928 18.2893 62.9337 18.0214 62.9234 18.0152 62.913 18.0089 62.9026 18.0024L62.075 16.4814 63.0373 14.6907C62.8258 13.9784 62.6333 13.3815 62.4403 12.7654 62.8241 12.507 63.1911 12.224 63.5379 11.9182 63.7036 11.7359 63.775 11.4867 63.7303 11.2443 63.6333 10.9516 63.3176 10.793 63.0248 10.8901 62.9888 10.9019 62.9544 10.9174 62.9217 10.9362 62.5368 11.148 62.19 11.4753 61.8051 11.7064 60.8863 12.32 59.9202 12.8608 58.9169 13.3238 58.05 13.5891 57.1607 13.776 56.2599 13.8821 55.3865 14.0246 54.6989 14.7045 54.5462 15.5764 54.4502 16.0963 54.3731 16.6162 54.2768 17.1552 53.8954 17.403 53.529 17.673 53.1794 17.9639 52.7943 18.3297 52.5055 18.7726 52.1011 19.0999 51.6968 19.4272 52.1011 20.0818 51.4273 20.1781 51.0807 19.8508 50.6764 19.562 50.3298 19.2347 50.186 20.2721 49.8943 21.2837 49.4634 22.2383 50.2019 23.0435 50.6198 24.0917 50.6379 25.1842 50.7245 26.0935 50.7245 27.0088 50.6379 27.9182 50.4803 28.5803 50.6061 29.2779 50.9844 29.8436 50.5907 30.5608 50.1469 31.2493 49.6559 31.9038 49.3286 32.2889 48.7509 32.4237 48.3466 32.751 48.1375 32.9851 47.98 33.2606 47.8845 33.5596 47.0951 35.3695 47.1144 35.3695 45.2853 36.1204 45.1193 36.2265 44.9645 36.3491 44.8232 36.4862 44.7677 37.2768 44.4943 38.0363 44.0338 38.6812 43.2191 39.7132 42.8893 41.0465 43.1288 42.3394 43.1775 42.5092 43.1775 42.6895 43.1288 42.8592 43.5909 43.976 44.4959 43.3599 45.0542 43.668 45.2887 44.4113 44.9664 45.2167 44.2841 45.5933 43.7065 46.0362 43.1481 46.479 42.609 46.9411 42.0521 47.345 41.8517 48.0823 42.1276 48.7124 42.2624 49.0783 42.2816 49.5596 42.5319 49.8099 43.0903 50.3683 42.5319 50.9267 42.6282 51.5236 42.8592 51.6775 43.1288 51.8701 43.4176 52.0241 44.0911 52.3074 44.6763 52.7662 45.112 53.3526 45.9206 54.6809 46.7871 55.9906 47.5187 57.3766 48.2504 58.7632 48.828 60.2648 49.5596 61.6513 50.5031 63.4223 51.5813 65.1551 52.5632 66.9265 52.8282 67.2924 52.9818 67.727 53.0061 68.1784 52.8422 69.0912 53.1892 70.0214 53.911 70.6042 54.772 71.6037 55.8183 72.4275 56.9917 73.03 58.1852 73.5693 59.3406 74.1854 60.4959 74.8206 61.5101 75.271 62.4561 75.8609 63.3072 76.573 63.8764 77.1908 64.4811 77.7758 65.1169 78.3249 65.5962 78.6831 65.8977 79.2305 65.9446 79.827 66.0411 81.3286 66.2335 82.8111 66.2913 84.3127 66.4315 86.2047 66.1556 88.1038 65.4827 89.8775 65.4827 89.9931 65.3481 90.1469 65.4827 90.2434 65.8677 91.2254 65.3284 92.1686 65.4827 93.1506 65.6212 94.5846 65.504 96.0317 65.136 97.4248 64.8001 99.2868 64.3039 101.117 63.6534 102.893 63.4959 103.322 63.4959 103.793 63.6534 104.222 63.9975 104.817 63.9975 105.551 63.6534 106.147 63.0553 107.173 62.9223 108.405 63.2876 109.536 63.5564 110.883 63.5564 112.27 63.2876 113.617 62.9795 115.023 62.3443 116.313 62.1518 117.738 62.0842 117.998 61.9872 118.25 61.8629 118.489 61.4583 119.452 61.093 120.414 60.6693 121.377 60.2457 122.34 59.9376 123.61 58.7435 124.265 59.0134 125.728 59.2446 127.153 59.5527 128.559 59.6841 129.139 59.5799 129.749 59.2637 130.253 58.2872 131.797 58.0543 133.698 58.6285 135.432 57.2032 136.414 57.8193 138.012 57.3384 139.283 58.3395 139.476 58.7435 139.283 58.7435 138.455 58.7435 138.012 58.4742 137.608 58.7435 137.107 58.9398 136.612 59.0756 136.095 59.1481 135.567L59.7255 135.182 60.5728 134.681 61.2658 136.607C60.6639 137.85 60.2669 139.183 60.0914 140.554 59.9741 141.964 59.7092 143.357 59.3019 144.713 59.1257 145.636 58.737 146.507 58.1661 147.254L57.146 146.176 54.9508 148.101C55.6051 148.429 56.0288 148.91 56.7801 148.852 57.5309 148.794 57.7043 149.276 57.5113 149.892 57.3188 150.508 56.8379 150.951 57.0107 151.817L58.6857 151.817 58.6857 152.684 57.0685 152.395C57.0685 153.03 57.0685 153.55 57.0685 154.051 57.0685 154.551 57.0685 154.59 56.6449 154.59 56.3564 154.07 56.0865 153.55 55.7981 153.05 55.7981 153.05 55.586 153.05 55.4901 152.915L54.6618 153.955 55.5669 154.937 55.3548 156.746C55.7403 156.901 56.0484 157.093 55.7207 157.594L55.7207 157.594C56.0097 157.786 56.3177 158.017 56.5489 157.594 56.7801 157.17 56.7027 156.958 56.8379 156.669 57.1225 156.403 57.4322 156.165 57.7621 155.957L56.9917 158.518C57.2855 159.126 57.4862 159.775 57.5887 160.443 57.5887 161.194 58.2239 161.56 58.3395 162.215 58.5511 163.235 58.8787 163.485 60.0336 163.909 60.0336 164.64 59.0516 164.39 58.8209 165.045 58.9556 165.507 58.9556 166.258 59.3215 166.546 59.6873 166.835 60.1879 167.837 60.8618 168.26 61.3623 166.893 62.5368 166.585 64.0193 166.335 63.8078 166.778 63.75 167.067 63.5956 167.163 63.1502 167.404 62.6867 167.61 62.2096 167.779 61.8629 167.933 61.4392 167.933 61.3045 168.376 61.9207 168.684 62.5177 169.011 63.2298 169.28 63.9424 169.55 64.3852 169.28 64.4239 168.53 64.4495 167.686 64.6594 166.858 65.04 166.104 65.877 165.648 66.8219 165.428 67.7739 165.469 67.6583 164.929 67.7739 164.602 68.4287 164.583 68.8622 164.598 69.2934 164.649 69.7187 164.737 69.6539 164.355 69.5165 163.989 69.3142 163.658 68.824 162.877 68.5143 161.995 68.4091 161.078 68.1119 160.088 68.5879 159.03 69.5257 158.595 69.8093 158.425 70.1053 158.276 70.4118 158.152 71.1287 157.939 71.6069 157.262 71.5671 156.515 71.686 155.383 72.3365 154.376 73.319 153.8 73.5883 153.608 73.8964 153.473 74.1854 153.3 75.0267 152.773 75.6014 151.91 75.7644 150.932 75.9149 150.466 75.6597 149.967 75.1941 149.816 75.1292 149.795 75.0621 149.782 74.994 149.776 74.0033 149.724 73.0802 149.255 72.4526 148.486 71.6631 147.716 71.644 147.254 72.1255 146.195 72.4455 145.297 73.1527 144.59 74.0507 144.27L75.8604 143.712C75.976 143.48 76.0338 143.172 76.2071 143.018 76.7851 142.562 77.0163 141.792 76.7846 141.093 76.6613 140.571 76.8222 140.022 77.2082 139.649 77.4781 139.341 77.8053 139.11 78.0746 138.84 78.3445 138.571 78.0746 138.609 78.0746 138.494L77.4781 137.839 78.1711 136.915C77.8293 136.584 77.5435 136.2 77.3238 135.779 77.1575 135.078 77.067 134.362 77.0545 133.642 77.1368 133.265 77.2867 132.906 77.4972 132.583L79.8074 133.43C81.0625 133.849 82.4469 133.512 83.3695 132.564 82.9791 131.939 82.9791 131.147 83.3695 130.522 83.7135 129.927 83.7135 129.193 83.3695 128.597 83.3695 128.366 83.3695 128.02 83.3695 127.577 84.3253 128.001 85.3929 128.102 86.4114 127.865 88.3116 127.707 90.1823 127.299 91.9762 126.653 92.5318 126.456 93.0377 126.141 93.4587 125.728 94.0901 124.975 94.6571 124.17 95.1528 123.322 95.6729 122.474 95.596 122.07 94.7678 121.396 94.2482 120.914 93.8245 120.434 94.1904 119.683 94.5563 118.931 94.1904 118.546 93.6321 118.2 93.0737 117.853 92.5732 117.641 92.1108 117.295 91.8671 117.09 91.709 116.802 91.6681 116.487 91.6681 116.255 91.9565 116.005 92.1686 115.697 92.715 116.338 93.5034 116.721 94.3442 116.756 94.7296 116.82 95.0966 116.964 95.4226 117.18 96.0655 117.521 96.8005 117.65 97.5213 117.545 97.843 117.46 98.1816 117.46 98.5033 117.545 99.7355 117.935 101.077 117.464 101.795 116.39 102.624 115.466 103.298 114.465 104.202 113.541 104.388 113.354 104.521 113.121 104.588 112.867 104.857 112 105.492 111.288 105.473 110.287 105.509 109.823 105.739 109.396 106.108 109.112 106.696 108.586 107.145 107.926 107.417 107.187 107.822 106.34 108.361 106.34 109.343 107.187 109.574 106.686 109.805 106.243 110.017 105.781 110.442 104.662 111.161 103.678 112.096 102.932 112.997 102.349 113.557 101.365 113.598 100.294 113.598 99.7159 113.502 99.1194 113.502 98.5224 113.502 96.0579 113.252 95.6729 115.524 93.7858 116.693 92.6315 118.108 91.7564 119.663 91.2254 120.438 91.0574 121.159 90.7003 121.762 90.1856 122.489 89.5269 123.463 89.2118 124.438 89.3192 125.623 89.3066 126.805 89.2292 127.981 89.088 128.154 87.9135 129.233 87.6633 129.906 87.1627 130.09 86.3421 130.388 85.551 130.792 84.8138 131.466 83.9087 131.909 82.888 132.544 81.9835 132.889 81.502 133.058 80.9181 133.025 80.3276 132.967 79.4683 133.197 78.6144 133.68 77.9012 133.91 77.5163 134.066 77.0921 134.142 76.6499 134.296 76.0147 134.315 75.3408 134.489 74.7246 134.717 73.7072 134.762 72.6576 134.624 71.6249 134.339 69.8109 134.58 67.9538 135.317 66.2723 136.587 66.1567 136.607 66.2723 137.127 65.3481 137.421 64.9179 137.673 64.4604 137.878 63.9806 138.332 63.0128 138.989 62.1524 139.803 61.4583 140.554 60.7271 141.285 59.9567 141.998 59.1868 143.61 57.4235 144.14 54.9257 143.384 52.6595ZM60.5919 165.853C61.5548 165.276 61.5548 165.276 62.9795 165.622 62.2407 165.97 61.4038 166.052 60.6115 165.853Z" fill="#65D8B5" transform="matrix(-1 1.48805e-16 -1.22105e-16 -1.21151 1614.76 1129)"/><path d="M67.7548 165.372C68.1621 165.551 68.5803 165.706 69.0061 165.834 69.5535 165.874 69.9794 166.325 69.9881 166.874 69.9875 167.124 70.0541 167.37 70.1806 167.586 71.7285 169.731 73.9749 171.27 76.5343 171.938 76.5343 171.938 76.5343 171.938 76.5343 172.073 75.4236 172.546 74.2137 172.737 73.0109 172.631L72.5295 173.401 71.0082 173.285 70.7389 172.323C69.969 171.86 69.7569 173.17 69.0639 172.804L67.7548 173.709C66.8688 173.439 67.0999 172.881 67.1577 172.226L65.2325 172.381 63.6725 171.264C64.462 170.802 65.1551 171.264 65.829 171.148L67.7548 170.936C67.7548 170.436 67.2542 170.455 67.0034 170.262 66.1567 169.627 66.1567 169.358 67.0999 168.703 67.3311 168.549 67.5236 168.337 67.9854 167.933 67.4407 167.965 66.8944 167.965 66.3491 167.933 66.1049 167.923 65.878 167.802 65.733 167.605 65.7139 167.362 65.7897 167.12 65.9446 166.931 66.1708 166.706 66.4156 166.5 66.6763 166.315L67.6583 165.391Z" fill="#65D8B5" transform="matrix(-1 1.48805e-16 -1.22105e-16 -1.21151 1614.76 1129)"/><path d="M89.6463 164.024C89.8775 163.139 90.8017 162.811 90.9942 161.945L92.0143 162.176C92.3033 162.176 92.6114 162.176 92.9385 162.176 92.9385 162.407 92.9385 162.696 92.9385 162.773 91.9456 163.425 90.8219 163.852 89.6463 164.024Z" fill="#65D8B5" transform="matrix(-1 1.48805e-16 -1.22105e-16 -1.21151 1614.76 1129)"/><path d="M61.2854 168.183C61.2854 168.664 61.6895 169.203 61.0156 169.704 60.4381 169.377 59.514 169.704 59.2059 168.664 59.6295 167.875 60.4769 168.664 60.9774 168.202L61.3236 168.202Z" fill="#65D8B5" transform="matrix(-1 1.48805e-16 -1.22105e-16 -1.21151 1614.76 1129)"/><path d="M89.3961 162.542C89.088 163.562 88.1638 163.774 87.1627 164.217 87.4708 163.716 87.7211 163.37 87.9135 163.004 88.3372 162.215 88.3372 162.195 89.3961 162.542Z" fill="#65D8B5" transform="matrix(-1 1.48805e-16 -1.22105e-16 -1.21151 1614.76 1129)"/><path d="M80.5391 137.107C80.5391 137.377 80.5391 137.569 80.4044 137.743 80.2698 137.916 79.7883 138.205 79.6149 138.012 79.4759 137.821 79.3957 137.593 79.3837 137.357 79.3979 137.23 79.4601 137.113 79.5571 137.03 79.7305 136.857 79.9426 136.607 80.1155 136.626 80.2888 136.645 80.4235 136.953 80.5391 137.107Z" fill="#65D8B5" transform="matrix(-1 1.48805e-16 -1.22105e-16 -1.21151 1614.76 1129)"/><path d="M65.5596 169.435 65.2325 170.262C64.8279 170.147 64.9048 169.877 64.9822 169.666 65.0591 169.454 65.2128 169.416 65.3284 169.28Z" fill="#65D8B5" transform="matrix(-1 1.48805e-16 -1.22105e-16 -1.21151 1614.76 1129)"/><path d="M63.5379 170.34 62.4021 170.07C62.4021 169.492 62.768 169.646 63.0182 169.82 63.2074 169.972 63.3699 170.154 63.4997 170.359Z" fill="#65D8B5" transform="matrix(-1 1.48805e-16 -1.22105e-16 -1.21151 1614.76 1129)"/><path d="M69.68 173.131C69.8147 173.459 69.9494 173.613 69.9494 173.767 69.9494 173.921 69.6991 173.979 69.5454 173.998 69.3911 174.017 69.3142 173.863 69.3142 173.824 69.4183 173.584 69.5405 173.353 69.68 173.131Z" fill="#65D8B5" transform="matrix(-1 1.48805e-16 -1.22105e-16 -1.21151 1614.76 1129)"/></g></g></g></g></g></g></g><g clip-path="url(#clip28)"><g clip-path="url(#clip29)"><g clip-path="url(#clip30)"><g clip-path="url(#clip31)"><path d="M389.79-45.1222 829.052-45.1222 829.052 221.805 389.79 221.805Z" fill="#00B3ED" transform="matrix(1 0 0 1.21508 965.113 858.827)"/><path d="M389.247-45.1222 511.992-45.1222 511.905-43.2293C511.417-38.1585 510.459-33.7469 509.13-30.8196 516.232-28.9486 521.49-23.758 529.106-24.09L529.408-23.758C532.007-21.3136 532.43-15.6704 530.738-10.7514 527.716-1.93947 531.796-1.00393 533.095 5.96716 533.826 11.7223 532.693 17.56 529.861 22.6253 527.051 28.6609 525.932 24.0135 521.943 31.1052L519.163 32.1917C522.79 35.813 524.331 39.6154 521.611 43.6894 519.888 46.2545 513.965 45.2587 513.633 48.3368 513.535 52.0432 512.81 55.7063 511.487 59.1704 512.333 57.6313 508.253 59.1704 506.379 59.4117L508.465 62.822C506.237 66.7058 501.921 68.9075 497.464 68.4351L501 73.6861 500.818 74.6217C495.953 76.3717 493.838 79.1182 494.382 82.86 487.31 83.9163 480.359 94.2673 473.74 92.9397 473.74 92.6075 470.718 92.1547 470.718 91.7926L470.416 92.819 466.488 91.5512C466.371 90.2835 465.636 89.1549 464.523 88.5335L463.193 91.1288C454.701 94.9615 446.511 97.7074 438.019 91.3403 436.176 92.4265 428.59 91.9736 425.447 92.7587 422.921 90.8287 420.265 89.0739 417.499 87.5076L418.829 84.4899C420.491 84.0974 421.851 83.3732 421.488 81.4721 426.172 75.9194 424.057 74.4706 427.532 68.9782L426.021 63.2444C429.043 59.714 422.788 53.7085 418.768 59.0198 409.294 60.5588 400.092 56.5299 390.638 54.4831L389.247 54.2419Z" fill="#65D8B5" fill-rule="evenodd" transform="matrix(1 0 0 1.21508 965.113 858.827)"/><g clip-path="url(#clip32)"><g clip-path="url(#clip33)"><g clip-path="url(#clip34)"><path d="M814.808 32.1727C814.591 31.3607 814.401 30.5486 814.156 29.7636 813.536 27.8417 813.264 27.544 811.182 27.5711 809.595 27.5727 808.062 27.017 806.849 26.0011 806.115 25.4497 805.42 24.8528 804.767 24.2146 803.468 23.0162 802.011 22.0047 800.434 21.2099 799.418 20.5537 798.173 20.348 796.999 20.6415 795.172 21.0315 793.264 20.8031 791.584 19.9918 790.23 19.4228 788.719 19.3746 787.333 19.8565L785.196 20.6685C785.153 20.4539 785.153 20.2335 785.196 20.0189 785.468 19.2265 785.408 18.3582 785.033 17.6098 784.582 16.8973 783.788 16.4753 782.945 16.4999 782.706 16.4999 782.516 16.148 782.271 16.0398 780.727 15.4172 779.184 14.7676 777.612 14.2261 776.155 13.4387 774.334 13.9693 773.53 15.4172 773.176 15.8248 772.807 16.2133 772.415 16.5811 772.268 15.9854 772.355 15.3539 772.66 14.8216 772.877 14.2532 772.986 13.6306 773.149 13.0351 772.268 12.4986 771.252 12.235 770.224 12.2772 769.605 12.2772 768.925 12.4126 768.468 11.8171 767.272 12.3173 765.995 12.5749 764.701 12.5749 765.125 11.6476 765.891 10.9203 766.843 10.5448 767.006 10.5448 767.3 10.7072 767.544 10.7884 767.234 10.1983 767.343 9.47261 767.816 9.00187 768.474 8.37581 768.74 7.44516 768.517 6.56571 766.691 5.64266 765.522 3.79305 765.462 1.74747 765.315 0.176934 764.456-1.23984 763.135-2.0963 762.363-2.60249 761.64-3.17283 760.966-3.80163 760.064-4.58771 759.02-5.18566 757.884-5.56112 755.671-6.49797 753.246-6.816 750.871-6.48144 748.751-6.12792 746.587-6.76648 744.999-8.21386 744.227-8.84264 743.412-9.4127 742.558-9.91916 742.183-11.4426 741.205-12.7497 739.857-13.5464 738.302-14.3855 736.616-14.9532 734.871-15.2247 734.871-16.0908 734.871-16.8758 734.708-17.9315 733.703-18.3763 732.664-18.7385 731.599-19.0143 730.43-19.2326 729.538-20.1879 729.408-21.3693 727.587-21.749 725.689-21.3247 724.211-20.2053 722.656-19.0637 720.519-19.1538 719.068-20.4219 718.356-21 717.41-21.2105 716.524-20.9903 715.175-20.7062 713.784-20.7062 712.435-20.9903 712.24-21.2052 712.082-21.4526 711.973-21.7212 711.68-22.9695 710.549-23.8397 709.266-23.8055 706.836-23.9291 704.444-23.1481 702.552-21.6129 702.552-21.6129 702.552-21.4505 702.389-21.1527 702.742-20.5031 703.177-19.691 703.552-18.8789 703.895-18.3026 703.895-17.5875 703.552-17.0112 703.177-16.3656 702.351-16.1476 701.704-16.5244 701.688-16.533 701.677-16.5419 701.66-16.551L700.497-18.6894 701.851-21.2069C701.552-22.2084 701.28-23.0475 701.008-23.9137 701.552-24.2769 702.063-24.6748 702.552-25.1048 702.786-25.361 702.889-25.7114 702.824-26.0522 702.688-26.4637 702.242-26.6866 701.834-26.5501 701.78-26.5335 701.731-26.5117 701.688-26.4852 701.144-26.1875 700.66-25.7273 700.116-25.4025 698.823-24.5398 697.469-23.7796 696.055-23.1287 694.838-22.7556 693.587-22.493 692.321-22.3437 691.092-22.1434 690.124-21.1875 689.912-19.9617 689.776-19.2308 689.668-18.5 689.532-17.742 688.999-17.3938 688.483-17.0142 687.988-16.6052 687.45-16.0908 687.042-15.4683 686.477-15.0081 685.906-14.5479 686.477-13.6276 685.525-13.4922 685.041-13.9524 684.471-14.3585 683.987-14.8186 683.78-13.3602 683.372-11.938 682.763-10.5959 683.802-9.46386 684.394-7.99026 684.416-6.45437 684.541-5.17591 684.541-3.88907 684.416-2.61061 684.193-1.67971 684.373-0.699013 684.905 0.0962668 684.351 1.10458 683.726 2.07256 683.035 2.99263 682.579 3.53401 681.763 3.72349 681.198 4.18366 680.904 4.51281 680.681 4.90016 680.545 5.32054 679.436 7.86501 679.464 7.86501 676.892 8.9207 676.658 9.06983 676.441 9.24227 676.245 9.43499 676.164 10.5465 675.778 11.6143 675.131 12.5209 673.989 13.9717 673.522 15.8462 673.859 17.6639 673.929 17.9026 673.929 18.156 673.859 18.3948 674.511 19.9648 675.783 19.0985 676.566 19.5316 676.898 20.5767 676.446 21.709 675.484 22.2385 674.674 22.8611 673.886 23.4837 673.13 24.1333 672.347 24.7012 672.065 25.7377 672.451 26.6236 672.641 27.138 672.668 27.8147 673.021 28.1666 673.804 28.9516 673.021 29.7366 673.157 30.5757 673.484 30.7922 673.859 31.0629 674.266 31.2795 675.212 31.6777 676.039 32.3227 676.648 33.1472 677.784 35.015 679.001 36.8557 680.034 38.8046 681.062 40.7536 681.872 42.8649 682.899 44.8139 684.226 47.3042 685.743 49.7404 687.123 52.2307 687.499 52.745 687.711 53.356 687.749 53.9902 687.515 55.2741 688.004 56.5816 689.021 57.4008 690.228 58.8061 691.701 59.9641 693.348 60.8116 695.028 61.5695 696.653 62.4355 698.279 63.3287 699.703 63.962 701.03 64.7911 702.226 65.7919 703.03 66.6606 703.878 67.4832 704.775 68.2551 705.444 68.7591 705.868 69.5284 705.939 70.3666 706.075 72.4781 706.341 74.5625 706.423 76.674 706.624 79.3334 706.232 82.0033 705.286 84.4964 705.286 84.659 705.096 84.8759 705.286 85.0112 705.83 86.3915 705.069 87.718 705.286 89.0983 705.482 91.1147 705.319 93.149 704.803 95.1077 704.33 97.7253 703.628 100.297 702.715 102.795 702.492 103.398 702.492 104.06 702.715 104.663 703.199 105.5 703.199 106.532 702.715 107.37 701.872 108.812 701.688 110.545 702.204 112.134 702.579 114.028 702.579 115.978 702.204 117.873 701.769 119.848 700.878 121.662 700.606 123.665 700.508 124.031 700.372 124.385 700.198 124.721 699.633 126.075 699.116 127.428 698.518 128.781 697.926 130.134 697.491 131.921 695.811 132.841 696.191 134.899 696.518 136.902 696.952 138.878 697.137 139.694 696.99 140.551 696.545 141.26 695.169 143.431 694.843 146.103 695.653 148.542 693.647 149.922 694.512 152.169 693.837 153.955 695.245 154.226 695.811 153.955 695.811 152.791 695.811 152.169 695.436 151.6 695.811 150.896 696.088 150.2 696.278 149.473 696.382 148.731L697.192 148.189 698.382 147.486 699.361 150.193C698.513 151.941 697.953 153.815 697.708 155.742 697.545 157.724 697.17 159.684 696.599 161.588 696.349 162.887 695.805 164.11 695.001 165.162L693.566 163.646 690.483 166.352C691.402 166.813 691.995 167.49 693.055 167.408 694.109 167.327 694.354 168.004 694.082 168.87 693.81 169.736 693.131 170.359 693.375 171.577L695.735 171.577 695.735 172.795 693.457 172.389C693.457 173.282 693.457 174.013 693.457 174.717 693.457 175.421 693.457 175.475 692.864 175.475 692.457 174.744 692.076 174.013 691.674 173.309 691.674 173.309 691.375 173.309 691.239 173.12L690.075 174.581 691.348 175.962 691.049 178.507C691.592 178.723 692.022 178.994 691.565 179.698L691.565 179.698C691.967 179.968 692.402 180.293 692.728 179.698 693.055 179.102 692.946 178.804 693.131 178.398 693.533 178.024 693.968 177.689 694.435 177.396L693.348 180.997C693.761 181.853 694.044 182.765 694.191 183.704 694.191 184.759 695.082 185.274 695.245 186.194 695.544 187.629 696.001 187.981 697.627 188.576 697.627 189.605 696.246 189.253 695.92 190.173 696.11 190.823 696.11 191.878 696.626 192.285 697.137 192.691 697.844 194.098 698.79 194.693 699.497 192.772 701.144 192.338 703.232 191.987 702.932 192.609 702.851 193.015 702.633 193.151 702.008 193.489 701.356 193.779 700.687 194.017 700.198 194.233 699.605 194.233 699.415 194.856 700.28 195.289 701.117 195.749 702.122 196.128 703.123 196.507 703.743 196.128 703.797 195.072 703.835 193.886 704.128 192.722 704.667 191.662 705.841 191.021 707.167 190.712 708.51 190.769 708.347 190.01 708.51 189.551 709.429 189.523 710.038 189.545 710.647 189.617 711.245 189.74 711.152 189.203 710.957 188.688 710.674 188.224 709.984 187.125 709.549 185.886 709.402 184.597 708.983 183.205 709.652 181.717 710.973 181.105 711.37 180.865 711.788 180.657 712.218 180.483 713.224 180.184 713.898 179.232 713.843 178.181 714.006 176.59 714.925 175.173 716.306 174.365 716.681 174.094 717.116 173.905 717.524 173.661 718.704 172.92 719.514 171.708 719.742 170.332 719.954 169.677 719.595 168.975 718.943 168.764 718.85 168.735 718.752 168.716 718.66 168.707 717.268 168.633 715.969 167.975 715.088 166.894 713.974 165.811 713.947 165.162 714.626 163.673 715.077 162.41 716.072 161.416 717.334 160.966L719.878 160.181C720.041 159.856 720.122 159.423 720.367 159.206 721.177 158.565 721.503 157.483 721.177 156.499 721.003 155.765 721.232 154.994 721.77 154.469 722.15 154.036 722.612 153.712 722.993 153.333 723.368 152.954 722.993 153.008 722.993 152.845L722.15 151.925 723.123 150.626C722.645 150.161 722.243 149.621 721.933 149.029 721.699 148.044 721.574 147.036 721.558 146.024 721.672 145.494 721.884 144.99 722.177 144.535L725.428 145.726C727.19 146.315 729.136 145.842 730.435 144.508 729.886 143.63 729.886 142.516 730.435 141.639 730.919 140.801 730.919 139.769 730.435 138.932 730.435 138.607 730.435 138.12 730.435 137.498 731.778 138.093 733.279 138.236 734.708 137.903 737.383 137.68 740.014 137.107 742.531 136.198 743.314 135.922 744.026 135.478 744.619 134.899 745.505 133.84 746.304 132.708 747 131.515 747.729 130.324 747.625 129.756 746.456 128.808 745.728 128.132 745.13 127.455 745.646 126.399 746.163 125.343 745.646 124.802 744.864 124.315 744.075 123.828 743.374 123.53 742.722 123.043 742.379 122.755 742.156 122.35 742.102 121.906 742.102 121.581 742.504 121.229 742.803 120.796 743.575 121.697 744.679 122.236 745.864 122.285 746.402 122.375 746.924 122.578 747.381 122.88 748.283 123.361 749.316 123.541 750.327 123.394 750.784 123.275 751.257 123.275 751.708 123.394 753.442 123.942 755.329 123.28 756.34 121.771 757.503 120.471 758.449 119.063 759.721 117.764 759.982 117.502 760.172 117.175 760.265 116.817 760.645 115.599 761.537 114.597 761.51 113.19 761.559 112.537 761.885 111.937 762.401 111.538 763.228 110.8 763.858 109.87 764.244 108.831 764.81 107.64 765.571 107.64 766.952 108.831 767.272 108.128 767.599 107.505 767.898 106.855 768.496 105.282 769.507 103.899 770.822 102.849 772.089 102.031 772.872 100.647 772.932 99.141 772.932 98.3288 772.796 97.4894 772.796 96.6506 772.796 93.186 772.442 92.6445 775.639 89.9915 777.281 88.3688 779.271 87.1385 781.461 86.3915 782.549 86.1556 783.56 85.6533 784.408 84.9297 785.43 84.0039 786.8 83.5608 788.17 83.7119 789.839 83.6945 791.497 83.5858 793.155 83.3868 793.394 81.7358 794.911 81.3835 795.857 80.68 796.118 79.5264 796.536 78.4142 797.102 77.3774 798.053 76.1053 798.673 74.6706 799.57 73.3985 800.054 72.7222 800.288 71.9008 800.244 71.0707 800.163 69.8627 800.483 68.6618 801.163 67.6599 801.489 67.1184 801.707 66.522 801.815 65.9006 802.033 65.0069 802.06 64.0599 802.299 63.1933 802.62 61.7635 802.685 60.2881 802.489 58.8355 802.093 56.2858 802.43 53.6745 803.468 51.3104 805.251 51.148 805.278 51.3104 806.012 50.0111 806.425 49.4069 806.779 48.7632 807.067 48.0892 807.703 46.7279 808.627 45.5187 809.774 44.5432 810.829 43.5146 811.856 42.4318 812.857 41.3491 815.124 38.8704 815.868 35.3585 814.808 32.1727ZM698.409 191.31C699.763 190.498 699.763 190.498 701.769 190.985 700.731 191.474 699.551 191.589 698.437 191.31Z" fill="#65D8B5" transform="matrix(1 0 0 1.21508 965.113 858.827)"/><path d="M708.483 190.633C709.054 190.885 709.641 191.102 710.239 191.283 711.011 191.339 711.609 191.974 711.62 192.744 711.62 193.097 711.712 193.442 711.892 193.746 714.066 196.761 717.225 198.925 720.824 199.864 720.824 199.864 720.824 199.864 720.824 200.053 719.263 200.719 717.562 200.988 715.871 200.838L715.197 201.921 713.055 201.759 712.675 200.405C711.593 199.755 711.299 201.596 710.321 201.082L708.483 202.354C707.238 201.975 707.559 201.19 707.64 200.27L704.933 200.486 702.742 198.916C703.851 198.267 704.824 198.916 705.776 198.754L708.483 198.456C708.483 197.752 707.776 197.78 707.428 197.509 706.232 196.616 706.232 196.236 707.559 195.316 707.885 195.1 708.157 194.802 708.804 194.233 708.037 194.278 707.271 194.278 706.504 194.233 706.162 194.219 705.841 194.05 705.64 193.773 705.613 193.431 705.721 193.091 705.939 192.826 706.254 192.508 706.597 192.219 706.966 191.959L708.347 190.66Z" fill="#65D8B5" transform="matrix(1 0 0 1.21508 965.113 858.827)"/><path d="M739.259 188.738C739.585 187.493 740.884 187.033 741.156 185.815L742.586 186.14C742.993 186.14 743.428 186.14 743.885 186.14 743.885 186.465 743.885 186.871 743.885 186.979 742.493 187.896 740.911 188.497 739.259 188.738Z" fill="#65D8B5" transform="matrix(1 0 0 1.21508 965.113 858.827)"/><path d="M699.388 194.585C699.388 195.262 699.953 196.02 699.007 196.724 698.197 196.263 696.898 196.724 696.463 195.262 697.056 194.152 698.252 195.262 698.953 194.612L699.442 194.612Z" fill="#65D8B5" transform="matrix(1 0 0 1.21508 965.113 858.827)"/><path d="M738.905 186.654C738.476 188.089 737.176 188.387 735.768 189.009 736.198 188.306 736.551 187.818 736.823 187.304 737.416 186.194 737.416 186.167 738.905 186.654Z" fill="#65D8B5" transform="matrix(1 0 0 1.21508 965.113 858.827)"/><path d="M726.456 150.896C726.456 151.276 726.456 151.546 726.266 151.79 726.075 152.033 725.401 152.439 725.157 152.169 724.961 151.9 724.847 151.58 724.83 151.248 724.852 151.07 724.939 150.905 725.075 150.788 725.32 150.544 725.613 150.193 725.858 150.22 726.102 150.246 726.293 150.68 726.456 150.896Z" fill="#65D8B5" transform="matrix(1 0 0 1.21508 965.113 858.827)"/><path d="M705.395 196.345 704.933 197.509C704.368 197.346 704.476 196.967 704.585 196.67 704.694 196.372 704.906 196.318 705.069 196.128Z" fill="#65D8B5" transform="matrix(1 0 0 1.21508 965.113 858.827)"/><path d="M702.552 197.617 700.954 197.238C700.954 196.426 701.47 196.642 701.823 196.886 702.09 197.1 702.318 197.356 702.498 197.644Z" fill="#65D8B5" transform="matrix(1 0 0 1.21508 965.113 858.827)"/><path d="M711.19 201.542C711.375 202.002 711.566 202.218 711.566 202.435 711.566 202.652 711.218 202.733 711 202.76 710.783 202.787 710.674 202.571 710.674 202.516 710.821 202.179 710.995 201.853 711.19 201.542Z" fill="#65D8B5" transform="matrix(1 0 0 1.21508 965.113 858.827)"/></g></g></g></g></g></g></g><path d="M1363 828.299 1473.24 804C1473.49 903.981 1473.75 1003.96 1474 1103.94L1364.52 1129C1364.01 1028.77 1363.51 928.533 1363 828.299Z" fill="#000000" fill-rule="evenodd" fill-opacity="0.2"/><path d="M1577 828.299 1687.24 804C1687.49 903.981 1687.75 1003.96 1688 1103.94L1578.52 1129C1578.01 1028.77 1577.51 928.533 1577 828.299Z" fill="#000000" fill-rule="evenodd" fill-opacity="0.2"/></g></svg>