<svg width="352" height="500" xmlns="http://www.w3.org/2000/svg" xmlns:xlink="http://www.w3.org/1999/xlink" overflow="hidden"><defs><clipPath id="clip0"><rect x="1922" y="195" width="352" height="500"/></clipPath></defs><g clip-path="url(#clip0)" transform="translate(-1922 -195)"><path d="M1972.59 240.058 2218.27 238.856C2241.28 238.743 2260.02 257.303 2260.13 280.309L2261.94 650.989C2262.06 673.996 2243.5 692.738 2220.49 692.85L1974.81 694.052C1971.93 694.066 1969.12 693.789 1966.41 693.247L1962.92 692.181 1933.14 692.326 1932.95 652.598 1931.14 281.919 1930.93 240.332 1971.89 240.132Z" fill="#F2F2F2" fill-rule="evenodd"/><path d="M1982.24 227.232 2227.93 226.031C2250.93 225.918 2269.67 244.478 2269.79 267.484L2271.6 638.164C2271.71 661.171 2253.15 679.913 2230.15 680.025L1984.47 681.227C1981.59 681.241 1978.78 680.963 1976.07 680.422L1972.57 679.356 1942.8 679.501 1942.6 639.773 1940.79 269.094 1940.59 227.507 1981.55 227.306Z" fill="#FFE699" fill-rule="evenodd"/><path d="M1942.67 425.957 2272.28 549.87 2272.71 638.053C2272.82 661.059 2254.26 679.801 2231.25 679.914L1985.57 681.116C1982.7 681.13 1979.89 680.852 1977.17 680.311L1973.68 679.244 1943.91 679.39 1943.71 639.662Z" fill="#FFD966" fill-rule="evenodd"/><path d="M1962.34 261.088C1962.31 255.142 1967.11 250.298 1973.05 250.269 1979 250.24 1983.84 255.037 1983.87 260.983 1983.9 266.929 1979.1 271.773 1973.16 271.802 1967.21 271.831 1962.37 267.034 1962.34 261.088Z" fill="#FFFFFF" fill-rule="evenodd"/><path d="M1962.57 309.398C1962.54 303.452 1967.34 298.608 1973.29 298.579 1979.23 298.55 1984.08 303.346 1984.11 309.293 1984.14 315.239 1979.34 320.083 1973.39 320.112 1967.45 320.141 1962.6 315.344 1962.57 309.398Z" fill="#FFFFFF" fill-rule="evenodd"/><path d="M1962.81 357.708C1962.78 351.762 1967.58 346.918 1973.52 346.889 1979.47 346.86 1984.31 351.656 1984.34 357.603 1984.37 363.549 1979.58 368.393 1973.63 368.422 1967.68 368.451 1962.84 363.654 1962.81 357.708Z" fill="#FFFFFF" fill-rule="evenodd"/><path d="M1962.76 406.019C1962.73 400.073 1967.53 395.229 1973.47 395.2 1979.42 395.171 1984.26 399.968 1984.29 405.914 1984.32 411.86 1979.52 416.704 1973.58 416.733 1967.63 416.762 1962.79 411.966 1962.76 406.019Z" fill="#FFFFFF" fill-rule="evenodd"/><path d="M1962.71 454.331C1962.68 448.385 1967.48 443.541 1973.42 443.512 1979.37 443.483 1984.21 448.279 1984.24 454.225 1984.27 460.172 1979.47 465.016 1973.53 465.045 1967.58 465.074 1962.74 460.277 1962.71 454.331Z" fill="#FFFFFF" fill-rule="evenodd"/><path d="M1962.66 502.642C1962.63 496.696 1967.42 491.852 1973.37 491.823 1979.32 491.794 1984.16 496.591 1984.19 502.537 1984.22 508.483 1979.42 513.327 1973.48 513.356 1967.53 513.385 1962.69 508.588 1962.66 502.642Z" fill="#FFFFFF" fill-rule="evenodd"/><path d="M1962.6 550.953C1962.58 545.007 1967.37 540.163 1973.32 540.134 1979.26 540.105 1984.11 544.902 1984.14 550.848 1984.17 556.794 1979.37 561.638 1973.42 561.667 1967.48 561.696 1962.63 556.9 1962.6 550.953Z" fill="#FFFFFF" fill-rule="evenodd"/><path d="M1962.55 599.265C1962.52 593.319 1967.32 588.475 1973.27 588.446 1979.21 588.417 1984.06 593.213 1984.09 599.159 1984.12 605.106 1979.32 609.95 1973.37 609.979 1967.43 610.008 1962.58 605.211 1962.55 599.265Z" fill="#FFFFFF" fill-rule="evenodd"/><path d="M1962.5 647.576C1962.47 641.63 1967.27 636.786 1973.22 636.757 1979.16 636.728 1984.01 641.525 1984.03 647.471 1984.06 653.417 1979.27 658.261 1973.32 658.29 1967.37 658.319 1962.53 653.522 1962.5 647.576Z" fill="#FFFFFF" fill-rule="evenodd"/><path d="M1922.29 261.284C1922.27 257.308 1925.48 254.068 1929.45 254.049L1970.25 253.849C1974.23 253.83 1977.47 257.038 1977.49 261.014L1977.49 261.014C1977.51 264.99 1974.3 268.23 1970.32 268.249L1929.52 268.449C1925.55 268.468 1922.31 265.26 1922.29 261.284Z" fill="#4472C4" fill-rule="evenodd"/><path d="M1922.53 309.594C1922.51 305.618 1925.71 302.378 1929.69 302.359L1970.49 302.159C1974.47 302.14 1977.7 305.348 1977.72 309.324L1977.72 309.324C1977.74 313.3 1974.54 316.54 1970.56 316.559L1929.76 316.759C1925.78 316.778 1922.54 313.57 1922.53 309.594Z" fill="#4472C4" fill-rule="evenodd"/><path d="M1922.76 357.904C1922.74 353.928 1925.95 350.688 1929.93 350.669L1970.73 350.469C1974.7 350.45 1977.94 353.658 1977.96 357.634L1977.96 357.634C1977.98 361.61 1974.77 364.85 1970.8 364.869L1930 365.069C1926.02 365.088 1922.78 361.88 1922.76 357.904Z" fill="#4472C4" fill-rule="evenodd"/><path d="M1923 406.214C1922.98 402.238 1926.19 398.998 1930.16 398.979L1970.96 398.779C1974.94 398.76 1978.18 401.968 1978.2 405.944L1978.2 405.944C1978.22 409.92 1975.01 413.16 1971.03 413.179L1930.23 413.379C1926.26 413.398 1923.02 410.19 1923 406.214Z" fill="#4472C4" fill-rule="evenodd"/><path d="M1923.23 454.524C1923.21 450.547 1926.42 447.308 1930.4 447.289L1971.2 447.089C1975.17 447.07 1978.41 450.277 1978.43 454.254L1978.43 454.254C1978.45 458.23 1975.24 461.47 1971.27 461.489L1930.47 461.689C1926.49 461.708 1923.25 458.5 1923.23 454.524Z" fill="#203864" fill-rule="evenodd"/><path d="M1923.47 502.834C1923.45 498.857 1926.66 495.618 1930.64 495.599L1971.43 495.399C1975.41 495.38 1978.65 498.587 1978.67 502.564L1978.67 502.564C1978.69 506.54 1975.48 509.78 1971.5 509.799L1930.71 509.998C1926.73 510.018 1923.49 506.81 1923.47 502.834Z" fill="#203864" fill-rule="evenodd"/><path d="M1923.71 551.144C1923.69 547.167 1926.89 543.928 1930.87 543.909L1971.67 543.709C1975.65 543.69 1978.89 546.897 1978.91 550.874L1978.91 550.874C1978.93 554.85 1975.72 558.09 1971.74 558.109L1930.94 558.309C1926.97 558.328 1923.73 555.12 1923.71 551.144Z" fill="#203864" fill-rule="evenodd"/><path d="M1923.94 599.454C1923.92 595.477 1927.13 592.238 1931.11 592.219L1971.91 592.019C1975.88 592 1979.12 595.207 1979.14 599.184L1979.14 599.184C1979.16 603.16 1975.95 606.399 1971.98 606.419L1931.18 606.618C1927.2 606.638 1923.96 603.43 1923.94 599.454Z" fill="#203864" fill-rule="evenodd"/><path d="M1924.18 647.764C1924.16 643.787 1927.37 640.548 1931.34 640.529L1972.14 640.329C1976.12 640.31 1979.36 643.517 1979.38 647.494L1979.38 647.494C1979.4 651.47 1976.19 654.709 1972.21 654.729L1931.41 654.928C1927.44 654.948 1924.2 651.74 1924.18 647.764Z" fill="#203864" fill-rule="evenodd"/><path d="M2015.29 281.81 2207.92 280.867 2208.19 335.527 2015.55 336.47Z" fill="#FFFFFF" fill-rule="evenodd"/><path d="M2038.75 310.591 2208.11 309.762 2208.24 335.717 2038.88 336.546Z" fill="#ECECEC" fill-rule="evenodd"/><path d="M2015.29 281.81 2038.49 281.696 2038.75 336.356 2015.55 336.47Z" fill="#4472C4" fill-rule="evenodd"/><path d="M2178.29 226.274 2178.14 195.339 2209.03 226.123Z" fill="#4472C4" fill-rule="evenodd"/><path d="M0 30.9352 0 0 30.7364 30.9352Z" fill="#4472C4" fill-rule="evenodd" transform="matrix(-0.999988 0.00489156 0.00489156 0.999988 2208.88 195.188)"/><path d="M2015.43 310.591 2038.63 310.477 2038.75 336.432 2015.55 336.546Z" fill="#2F5597" fill-rule="evenodd"/></g></svg>