<svg width="619" height="457" xmlns="http://www.w3.org/2000/svg" xmlns:xlink="http://www.w3.org/1999/xlink" overflow="hidden"><defs><clipPath id="clip0"><rect x="1845" y="-348" width="619" height="457"/></clipPath></defs><g clip-path="url(#clip0)" transform="translate(-1845 348)"><path d="M2391-210 2391-210C2378.3-210 2368-220.297 2368-233L2368-256 2414-256 2414-233C2414-220.297 2403.7-210 2391-210Z" fill="#BFBFBF" fill-rule="evenodd"/><path d="M2398.59-237C2402.37-237 2405.96-236.244 2409.24-234.878L2414-231.707 2413.64-228.158C2411.49-217.795 2402.2-210 2391.07-210 2384.71-210 2378.95-212.545 2374.78-216.661L2373-219.27 2373.39-220.51C2377.54-230.2 2387.26-237 2398.59-237Z" fill="#A6A6A6" fill-rule="evenodd"/><path d="M2360.21-220.558C2367.19-224.59 2376.12-222.197 2380.15-215.214L2380.15-215.214C2384.19-208.23 2381.79-199.301 2374.81-195.269L2166.15-74.8008C2159.17-70.769 2150.24-73.1617 2146.21-80.1451L2146.21-80.145C2142.18-87.1284 2144.57-96.058 2151.55-100.09Z" fill="#D9D9D9" fill-rule="evenodd"/><path d="M2146.21-80.1451 2380.15-215.214 2380.15-215.214C2384.19-208.231 2379.29-197.858 2369.23-192.046L2171.73-78.0241C2161.67-72.2122 2150.24-73.1618 2146.21-80.1451Z" fill="#A6A6A6" fill-rule="evenodd"/><path d="M2350.3-214.837 2377.18-230.357C2387.25-236.168 2398.68-235.219 2402.71-228.236 2406.74-221.252 2401.85-210.88 2391.78-205.068L2364.9-189.548C2374.97-195.36 2379.86-205.733 2375.83-212.716 2371.79-219.699 2360.37-220.649 2350.3-214.837Z" fill="#BFBFBF" fill-rule="evenodd"/><path d="M2375.83-212.716 2402.71-228.236C2406.74-221.252 2401.85-210.88 2391.78-205.068L2364.9-189.548C2374.97-195.36 2379.86-205.733 2375.83-212.716Z" fill="#7F7F7F" fill-rule="evenodd"/><path d="M2109.87-86.8954C2122.66-94.2778 2139.01-89.8967 2146.39-77.1099L2146.39-77.1099C2153.77-64.323 2149.39-47.9726 2136.6-40.5901L1885.75 104.242C1872.96 111.625 1856.61 107.244 1849.23 94.4567L1849.23 94.4569C1841.84 81.67 1846.23 65.3196 1859.01 57.9371Z" fill="#D9D9D9" fill-rule="evenodd"/><path d="M1849.23 94.4567 2146.39-77.1101 2146.39-77.11C2153.77-64.3233 2149.39-47.9729 2136.6-40.5905L1885.75 104.242C1872.96 111.625 1856.61 107.243 1849.23 94.4567Z" fill="#A6A6A6" fill-rule="evenodd"/><path d="M2104.37-83.7224 2138.52-103.436C2151.31-110.818 2167.66-106.437 2175.04-93.6501 2182.42-80.8634 2178.04-64.513 2165.25-57.1306L2131.11-37.4174C2143.9-44.7999 2148.28-61.1503 2140.89-73.9371 2133.51-86.7238 2117.16-91.1048 2104.37-83.7224Z" fill="#BFBFBF" fill-rule="evenodd"/><path d="M2140.89-73.9371 2175.04-93.6501C2182.42-80.8634 2178.04-64.513 2165.25-57.1306L2131.11-37.4175C2143.9-44.7999 2148.28-61.1504 2140.89-73.9371Z" fill="#7F7F7F" fill-rule="evenodd"/><path d="M2322.17-254C2313.79-254 2307-260.79 2307-269.167L2307-329.833C2307-338.209 2313.79-345 2322.17-345L2447.83-345C2456.21-345 2463-338.209 2463-329.833L2463-269.167C2463-260.79 2456.21-254 2447.83-254Z" fill="#BFBFBF" fill-rule="evenodd"/><path d="M2319.17-256C2310.79-256 2304-262.79 2304-271.167L2304-331.833C2304-340.209 2310.79-347 2319.17-347L2444.83-347C2453.21-347 2460-340.209 2460-331.833L2460-271.167C2460-262.79 2453.21-256 2444.83-256Z" fill="#FFFFFF" fill-rule="evenodd"/><path d="M2449.92-291C2448.31-291 2447-292.306 2447-293.916L2447-312.084C2447-313.694 2448.31-315 2449.92-315L2450.08-315C2451.69-315 2453-313.694 2453-312.084L2453-293.916C2453-292.306 2451.69-291 2450.08-291Z" fill="#FFFFFF" fill-rule="evenodd"/><path d="M2405-256 2405-347 2445.04-347C2453.3-347 2460-340.21 2460-331.833L2460-271.167C2460-262.79 2453.3-256 2445.04-256Z" fill="#D9D9D9" fill-rule="evenodd"/><rect x="2323.5" y="-342.5" width="117" height="83" stroke="#404040" stroke-width="1.33333" stroke-miterlimit="8" fill="#404040"/><path d="M2311.96-289.5C2311.15-289.5 2310.5-290.153 2310.5-290.958L2310.5-311.042C2310.5-311.847 2311.15-312.5 2311.96-312.5L2312.04-312.5C2312.85-312.5 2313.5-311.847 2313.5-311.042L2313.5-290.958C2313.5-290.153 2312.85-289.5 2312.04-289.5Z" stroke="#BFBFBF" stroke-miterlimit="8" fill="#FFFFFF" fill-rule="evenodd"/><path d="M2311-280C2309.9-280 2309-280.672 2309-281.5 2309-282.328 2309.9-283 2311-283 2312.1-283 2313-282.328 2313-281.5 2313-280.672 2312.1-280 2311-280Z" fill="#404040" fill-rule="evenodd"/><path d="M2450.42-288.5C2448.81-288.5 2447.5-289.806 2447.5-291.417L2447.5-308.584C2447.5-310.194 2448.81-311.5 2450.42-311.5L2450.58-311.5C2452.19-311.5 2453.5-310.194 2453.5-308.584L2453.5-291.417C2453.5-289.806 2452.19-288.5 2450.58-288.5Z" stroke="#BFBFBF" stroke-width="1.33333" stroke-miterlimit="8" fill="#BFBFBF" fill-rule="evenodd"/></g></svg>