<svg width="293" height="501" xmlns="http://www.w3.org/2000/svg" xmlns:xlink="http://www.w3.org/1999/xlink" overflow="hidden"><defs><clipPath id="clip0"><rect x="2557" y="-364" width="293" height="501"/></clipPath></defs><g clip-path="url(#clip0)" transform="translate(-2557 364)"><path d="M2557-305.499C2557-331.733 2578.27-353 2604.5-353L2794.5-353C2820.73-353 2842-331.733 2842-305.499L2842 88.499C2842 114.733 2820.73 136 2794.5 136L2604.5 136C2578.27 136 2557 114.733 2557 88.499Z" fill="#BFBFBF" fill-rule="evenodd"/><path d="M2564-315.493C2564-341.731 2585.27-363 2611.51-363L2801.53-363C2827.76-363 2849.03-341.731 2849.03-315.493L2849.03 79.4934C2849.03 105.731 2827.76 127 2801.53 127L2611.51 127C2585.27 127 2564 105.731 2564 79.4934Z" fill="#FFFFFF" fill-rule="evenodd"/><path d="M2673 94.2077C2673 88.5701 2677.57 84 2683.21 84L2737.79 84C2743.43 84 2748 88.5701 2748 94.2077L2748 94.7923C2748 100.43 2743.43 105 2737.79 105L2683.21 105C2677.57 105 2673 100.43 2673 94.7923Z" fill="#FFFFFF" fill-rule="evenodd"/><path d="M2564-48 2849-48 2849 78.6668C2849 104.808 2827.73 126 2801.5 126L2611.5 126C2585.27 126 2564 104.808 2564 78.6668Z" fill="#D9D9D9" fill-rule="evenodd"/><rect x="2577.5" y="-302.5" width="259" height="365" stroke="#404040" stroke-width="1.33333" stroke-miterlimit="8" fill="#404040"/><path d="M2669.5-340.125C2669.5-342.541 2671.46-344.5 2673.87-344.5L2739.13-344.5C2741.54-344.5 2743.5-342.541 2743.5-340.125L2743.5-339.875C2743.5-337.459 2741.54-335.5 2739.13-335.5L2673.87-335.5C2671.46-335.5 2669.5-337.459 2669.5-339.875Z" stroke="#BFBFBF" stroke-miterlimit="8" fill="#FFFFFF" fill-rule="evenodd"/><path d="M2639-341.5C2639-344.538 2641.46-347 2644.5-347 2647.54-347 2650-344.538 2650-341.5 2650-338.462 2647.54-336 2644.5-336 2641.46-336 2639-338.462 2639-341.5Z" fill="#404040" fill-rule="evenodd"/><path d="M2666.5 94.2216C2666.5 88.8525 2670.85 84.5001 2676.22 84.5001L2730.78 84.5001C2736.15 84.5001 2740.5 88.8525 2740.5 94.2216L2740.5 94.7785C2740.5 100.148 2736.15 104.5 2730.78 104.5L2676.22 104.5C2670.85 104.5 2666.5 100.148 2666.5 94.7785Z" stroke="#BFBFBF" stroke-width="1.33333" stroke-miterlimit="8" fill="#BFBFBF" fill-rule="evenodd"/></g></svg>