<svg width="336" height="574" xmlns="http://www.w3.org/2000/svg" xmlns:xlink="http://www.w3.org/1999/xlink" overflow="hidden"><defs><clipPath id="clip0"><rect x="1433" y="-466" width="336" height="574"/></clipPath></defs><g clip-path="url(#clip0)" transform="translate(-1433 466)"><path d="M1712.5 106 1490.5 106C1459.85 106 1435 81.1513 1435 50.499L1435-241 1768-241 1768 50.499C1768 81.1513 1743.15 106 1712.5 106Z" fill="#D9D9D9" fill-rule="evenodd"/><path d="M1766.67-240.679 1767.89-240.679 1767.89 51.3936C1767.89 82.0113 1743.07 106.832 1712.45 106.832L1490.71 106.832C1475.4 106.832 1461.54 100.627 1451.51 90.5944L1444.77 82.4272Z" fill="#BFBFBF" fill-rule="evenodd"/><path d="M1703.5 92 1500.5 92C1472.61 92 1450 69.3899 1450 41.4989L1450-211 1754-211 1754 41.4989C1754 69.3899 1731.39 92 1703.5 92Z" fill="#0D0D0D" fill-rule="evenodd" fill-opacity="0.101961"/><path d="M1453.92-368 1745.08-368C1756.64-368 1766-358.627 1766-347.065L1766-242.393 1765.96-242.393 1766-242.148C1766-215.557 1727.39-194 1679.76-194 1667.86-194 1656.51-195.347 1646.2-197.784L1642.62-198.868 1639.04-197.784C1628.72-195.347 1617.38-194 1605.47-194 1593.56-194 1582.22-195.347 1571.9-197.784L1562.35-200.678 1552.8-197.784C1542.49-195.347 1531.14-194 1519.24-194 1471.61-194 1433-215.557 1433-242.148L1433.04-242.393 1433-242.393 1433-347.065C1433-358.627 1442.36-368 1453.92-368Z" fill="#4472C4" fill-rule="evenodd"/><path d="M1761.46-358.03 1761.95-357.697C1765.74-353.911 1768.08-348.681 1768.08-342.905L1768.08-238.307 1768.04-238.307 1768.08-238.062C1768.08-211.49 1729.46-189.949 1681.83-189.949 1669.92-189.949 1658.57-191.295 1648.25-193.729L1644.67-194.813 1641.09-193.73C1630.77-191.295 1619.43-189.949 1607.52-189.949 1595.61-189.949 1584.27-191.295 1573.95-193.729L1564.39-196.622 1554.84-193.729C1544.52-191.295 1533.18-189.949 1521.27-189.948 1479.59-189.949 1444.81-206.441 1436.77-228.366L1436.08-230.867Z" fill="#2F5597" fill-rule="evenodd"/><path d="M1503-366.5C1503-420.9 1547.1-465 1601.5-465 1655.9-465 1700-420.9 1700-366.5 1700-365.153 1699.97-363.807 1699.92-362.462L1679.59-363.296C1681.36-406.423 1647.83-442.819 1604.7-444.588 1561.58-446.358 1525.18-412.831 1523.41-369.704 1523.37-368.637 1523.35-367.568 1523.35-366.5Z" fill="#4472C4" fill-rule="evenodd"/></g></svg>