<svg width="83" height="28" xmlns="http://www.w3.org/2000/svg" xmlns:xlink="http://www.w3.org/1999/xlink" overflow="hidden"><defs><clipPath id="clip0"><rect x="777" y="306" width="83" height="28"/></clipPath></defs><g clip-path="url(#clip0)" transform="translate(-777 -306)"><path d="M785.978 332.216C784.976 332.139 784.074 331.589 783.565 330.743L777.1 320.007C776.891 319.645 777.021 319.187 777.391 318.983 777.459 318.945 777.533 318.918 777.611 318.902L779.986 318.411C780.687 318.267 781.417 318.449 781.962 318.902L790.68 326.193 807.242 322.8 790.373 309.091C790.047 308.825 790.004 308.351 790.277 308.032 790.387 307.903 790.539 307.814 790.708 307.779L794.195 307.065C794.831 306.934 795.493 307.002 796.087 307.262L823.802 319.414 847.14 314.637C850.15 314.02 858.468 316.152 858.942 318.357 859.732 322.032 852.205 323.574 852.205 323.574L813.229 331.56C806.81 332.875 800.231 333.293 793.692 332.8Z" fill="#404040" fill-rule="evenodd"/></g></svg>