<svg width="402" height="1159" xmlns="http://www.w3.org/2000/svg" xmlns:xlink="http://www.w3.org/1999/xlink" overflow="hidden"><defs><clipPath id="clip0"><rect x="4735" y="179" width="402" height="1159"/></clipPath></defs><g clip-path="url(#clip0)" transform="translate(-4735 -179)"><path d="M4790.18 1337C4763.57 1337 4742 1315.43 4742 1288.82L4742 228.177C4742 201.569 4763.57 180 4790.18 180L5077.82 180C5104.43 180 5126 201.569 5126 228.177L5126 1288.82C5126 1315.43 5104.43 1337 5077.82 1337Z" fill="#F2F2F2" fill-rule="evenodd"/><path d="M4742 1288.43 4742 227.569C4742 204.323 4758.57 184.928 4780.59 180.443L4785 180 4785 1336 4780.59 1335.56C4758.57 1331.07 4742 1311.68 4742 1288.43Z" fill="#404040" fill-rule="evenodd"/><text fill="#595959" font-family="Malgun Gothic,Malgun Gothic_MSFontService,sans-serif" font-weight="400" font-size="24" transform="translate(4750.27 428)">-------------------------------------</text><path d="M5128 227.569 5128 1288.43C5128 1311.68 5111.43 1331.07 5089.41 1335.56L5085 1336 5085 180 5089.41 180.443C5111.43 184.928 5128 204.323 5128 227.569Z" fill="#404040" fill-rule="evenodd"/><rect x="4805" y="1198" width="19" height="112" fill="#404040"/><rect x="4830" y="1198" width="9" height="112" fill="#404040"/><rect x="4844" y="1198" width="9" height="112" fill="#404040"/><rect x="4858" y="1198" width="17" height="112" fill="#404040"/><rect x="4880" y="1198" width="5" height="112" fill="#404040"/><rect x="4891" y="1198" width="4" height="112" fill="#404040"/><rect x="4901" y="1198" width="5" height="112" fill="#404040"/><rect x="4912" y="1198" width="17" height="112" fill="#404040"/><rect x="4933" y="1198" width="5" height="112" fill="#404040"/><rect x="4944" y="1198" width="5" height="112" fill="#404040"/><rect x="4954" y="1198" width="5" height="112" fill="#404040"/><rect x="4964" y="1198" width="9" height="112" fill="#404040"/><rect x="4979" y="1198" width="9" height="112" fill="#404040"/><rect x="4993" y="1198" width="10" height="112" fill="#404040"/><rect x="5007" y="1198" width="5" height="112" fill="#404040"/><rect x="5016" y="1198" width="5" height="112" fill="#404040"/><rect x="5026" y="1198" width="5" height="112" fill="#404040"/><rect x="5036" y="1198" width="4" height="112" fill="#404040"/><rect x="5046" y="1198" width="17" height="112" fill="#404040"/><text fill="#FFFFFF" font-family="VITRO CORE TTF,VITRO CORE TTF_MSFontService,sans-serif" font-style="oblique" font-weight="900" font-size="24" transform="matrix(-1.83697e-16 -1 1 -1.83697e-16 4773.27 1308)">DAELIM AIRLINE<tspan font-size="24" x="927" y="1.70287e-13">DAELIM AL.</tspan><tspan font-size="24" x="8" y="341.126">BOARDING</tspan><tspan font-size="24" x="136" y="341.126">-</tspan><tspan font-size="24" x="149" y="341.126">PASS</tspan><tspan fill="#000000" font-family="Malgun Gothic,Malgun Gothic_MSFontService,sans-serif" font-style="normal" font-weight="400" font-size="21" x="162" y="74.2515">Name of Passenger :</tspan><tspan fill="#000000" font-family="Malgun Gothic,Malgun Gothic_MSFontService,sans-serif" font-style="normal" font-weight="400" font-size="21" x="156" y="153.936">From: Republic of Korea, ICN</tspan><tspan fill="#000000" font-family="Malgun Gothic,Malgun Gothic_MSFontService,sans-serif" font-style="normal" font-weight="400" font-size="21" x="156" y="179.936">To: Travel Destination</tspan><tspan fill="#000000" font-family="Malgun Gothic,Malgun Gothic_MSFontService,sans-serif" font-style="normal" font-weight="400" font-size="19" x="161" y="231.745">GATE</tspan><tspan fill="#000000" font-family="Malgun Gothic,Malgun Gothic_MSFontService,sans-serif" font-style="normal" font-weight="700" font-size="24" x="162" y="259.745">K1</tspan><tspan fill="#000000" font-family="Malgun Gothic,Malgun Gothic_MSFontService,sans-serif" font-style="normal" font-weight="700" font-size="24" x="191" y="259.745">8</tspan><tspan fill="#000000" font-family="Malgun Gothic,Malgun Gothic_MSFontService,sans-serif" font-style="normal" font-weight="400" font-size="19" x="273" y="231.745">BORADING TIME</tspan><tspan fill="#000000" font-family="Malgun Gothic,Malgun Gothic_MSFontService,sans-serif" font-style="normal" font-weight="700" font-size="24" x="314" y="259.745">10:35</tspan><tspan fill="#000000" font-family="Malgun Gothic,Malgun Gothic_MSFontService,sans-serif" font-style="normal" font-weight="400" font-size="15" x="931" y="272.809">GATE</tspan><tspan fill="#000000" font-family="Malgun Gothic,Malgun Gothic_MSFontService,sans-serif" font-style="normal" font-weight="400" font-size="19" x="933" y="294.809">K1</tspan><tspan fill="#000000" font-family="Malgun Gothic,Malgun Gothic_MSFontService,sans-serif" font-style="normal" font-weight="400" font-size="19" x="954" y="294.809">8</tspan><tspan fill="#000000" font-family="Malgun Gothic,Malgun Gothic_MSFontService,sans-serif" font-style="normal" font-weight="400" font-size="15" x="998" y="272.16">BORADING TIME</tspan><tspan fill="#000000" font-family="Malgun Gothic,Malgun Gothic_MSFontService,sans-serif" font-style="normal" font-weight="400" font-size="19" x="1032" y="294.16">10:35</tspan><tspan fill="#000000" font-family="Malgun Gothic,Malgun Gothic_MSFontService,sans-serif" font-style="normal" font-weight="400" font-size="21" x="461" y="74.2515">Carier:</tspan><tspan fill="#000000" font-family="Malgun Gothic,Malgun Gothic_MSFontService,sans-serif" font-style="normal" font-weight="400" font-size="21" x="461" y="100.251">AC</tspan><tspan fill="#000000" font-family="Malgun Gothic,Malgun Gothic_MSFontService,sans-serif" font-style="normal" font-weight="400" font-size="21" x="595" y="74.2515">Flight No:</tspan><tspan fill="#000000" font-family="Malgun Gothic,Malgun Gothic_MSFontService,sans-serif" font-style="normal" font-weight="400" font-size="21" x="595" y="100.251">TW 2332</tspan><tspan fill="#000000" font-family="Malgun Gothic,Malgun Gothic_MSFontService,sans-serif" font-style="normal" font-weight="400" font-size="21" x="721" y="74.2515">Class:</tspan><tspan fill="#000000" font-family="Malgun Gothic,Malgun Gothic_MSFontService,sans-serif" font-style="normal" font-weight="400" font-size="21" x="721" y="100.251">A</tspan><tspan fill="#000000" font-family="Malgun Gothic,Malgun Gothic_MSFontService,sans-serif" font-style="normal" font-weight="400" font-size="21" x="722" y="154.519">Seat: </tspan><tspan fill="#000000" font-family="Malgun Gothic,Malgun Gothic_MSFontService,sans-serif" font-style="normal" font-weight="400" font-size="21" x="722" y="180.519">5</tspan><tspan fill="#000000" font-family="Malgun Gothic,Malgun Gothic_MSFontService,sans-serif" font-style="normal" font-weight="400" font-size="21" x="734" y="180.519">A</tspan><tspan fill="#000000" font-family="Malgun Gothic,Malgun Gothic_MSFontService,sans-serif" font-style="normal" font-weight="400" font-size="21" x="593" y="154.519">Luggage: </tspan><tspan fill="#000000" font-family="Malgun Gothic,Malgun Gothic_MSFontService,sans-serif" font-style="normal" font-weight="400" font-size="21" x="593" y="180.519">Y</tspan><tspan fill="#000000" font-family="Malgun Gothic,Malgun Gothic_MSFontService,sans-serif" font-style="normal" font-weight="400" font-size="15" x="582" y="249.77">ETKT</tspan><tspan fill="#000000" font-family="Malgun Gothic,Malgun Gothic_MSFontService,sans-serif" font-style="normal" font-weight="400" font-size="15" x="620" y="249.77">555</tspan><tspan fill="#000000" font-family="Malgun Gothic,Malgun Gothic_MSFontService,sans-serif" font-style="normal" font-weight="400" font-size="15" x="649" y="249.77">1234567890</tspan><tspan fill="#000000" font-family="Malgun Gothic,Malgun Gothic_MSFontService,sans-serif" font-style="normal" font-weight="400" font-size="19" x="463" y="150.964">Date:</tspan><tspan fill="#000000" font-family="Malgun Gothic,Malgun Gothic_MSFontService,sans-serif" font-style="normal" font-weight="400" font-size="19" x="463" y="173.964">06/15/2021</tspan><tspan fill="#000000" font-family="Malgun Gothic,Malgun Gothic_MSFontService,sans-serif" font-style="normal" font-weight="400" font-size="19" x="904" y="44.6089">Name of Passenger :</tspan><tspan fill="#000000" font-family="Malgun Gothic,Malgun Gothic_MSFontService,sans-serif" font-style="normal" font-weight="400" font-size="16" x="902" y="102.795">From: Republic of Korea, ICN</tspan><tspan fill="#000000" font-family="Malgun Gothic,Malgun Gothic_MSFontService,sans-serif" font-style="normal" font-weight="400" font-size="16" x="902" y="121.795">To: Travel Destination</tspan><tspan fill="#000000" font-family="Malgun Gothic,Malgun Gothic_MSFontService,sans-serif" font-style="normal" font-weight="400" font-size="15" x="934" y="210.77">Seat</tspan><tspan fill="#000000" font-family="Malgun Gothic,Malgun Gothic_MSFontService,sans-serif" font-style="normal" font-weight="400" font-size="19" x="937" y="232.77">5</tspan><tspan fill="#000000" font-family="Malgun Gothic,Malgun Gothic_MSFontService,sans-serif" font-style="normal" font-weight="400" font-size="19" x="947" y="232.77">A</tspan><tspan fill="#000000" font-family="Malgun Gothic,Malgun Gothic_MSFontService,sans-serif" font-style="normal" font-weight="400" font-size="15" x="1037" y="211.025">Date:</tspan><tspan fill="#000000" font-family="Malgun Gothic,Malgun Gothic_MSFontService,sans-serif" font-style="normal" font-weight="400" font-size="19" x="1005" y="233.025">06/15/2021</tspan><tspan fill="#000000" font-family="Malgun Gothic,Malgun Gothic_MSFontService,sans-serif" font-style="normal" font-weight="400" font-size="15" x="933" y="162.307">ETKT</tspan><tspan fill="#000000" font-family="Malgun Gothic,Malgun Gothic_MSFontService,sans-serif" font-style="normal" font-weight="400" font-size="15" x="970" y="162.307">555</tspan><tspan fill="#000000" font-family="Malgun Gothic,Malgun Gothic_MSFontService,sans-serif" font-style="normal" font-weight="400" font-size="15" x="1000" y="162.307">1234567890</tspan></text></g></svg>