<svg width="423" height="1159" xmlns="http://www.w3.org/2000/svg" xmlns:xlink="http://www.w3.org/1999/xlink" overflow="hidden"><defs><clipPath id="clip0"><rect x="3817" y="174" width="423" height="1159"/></clipPath></defs><g clip-path="url(#clip0)" transform="translate(-3817 -174)"><rect x="3822" y="517" width="384" height="811" fill="#F2F2F2"/><path d="M3822 1328 3822 518 3856 518 3856 1328Z" fill="#00B0F0" fill-rule="evenodd"/><path d="M4172 1328 4172 518 4206 518 4206 1328Z" fill="#00B0F0" fill-rule="evenodd"/><path d="M3863.33 423C3840.51 423 3822 404.494 3822 381.666L3822 216.334C3822 193.506 3840.51 175 3863.33 175L4163.67 175C4186.49 175 4205 193.506 4205 216.334L4205 381.666C4205 404.494 4186.49 423 4163.67 423Z" fill="#F2F2F2" fill-rule="evenodd"/><path d="M3822 395.008 3822 202.992 3823.11 199.402C3827.29 189.427 3835.22 181.436 3845.11 177.217L3856 175 3856 423 3845.11 420.783C3835.22 416.564 3827.29 408.573 3823.11 398.598Z" fill="#00B0F0" fill-rule="evenodd"/><path d="M4206 202.992 4206 395.008 4204.89 398.598C4200.71 408.573 4192.79 416.564 4182.89 420.783L4172 423 4172 175 4182.89 177.217C4192.79 181.436 4200.71 189.427 4204.89 199.402Z" fill="#00B0F0" fill-rule="evenodd"/><path d="M3864.5 673C3841.58 673 3823 654.42 3823 631.499L3823 465.501C3823 442.581 3841.58 424 3864.5 424L4163.5 424C4186.42 424 4205 442.581 4205 465.501L4205 631.499C4205 654.42 4186.42 673 4163.5 673Z" fill="#F2F2F2" fill-rule="evenodd"/><path d="M3822 644.121 3822 452.879 3823.11 449.303C3827.29 439.369 3835.22 431.41 3845.11 427.208L3856 425 3856 672 3845.11 669.792C3835.22 665.59 3827.29 657.631 3823.11 647.696Z" fill="#00B0F0" fill-rule="evenodd"/><path d="M4205 454.685 4205 658.315 4203.93 662.122C4199.87 672.7 4192.17 681.175 4182.57 685.649L4172 688 4172 425 4182.57 427.351C4192.17 431.825 4199.87 440.3 4203.93 450.878Z" fill="#00B0F0" fill-rule="evenodd"/><text fill="#D9D9D9" font-family="Arial,Arial_MSFontService,sans-serif" font-style="italic" font-weight="700" font-size="101" transform="matrix(-1.83697e-16 -1 1 -1.83697e-16 4083.57 1162)">K<tspan font-size="59" x="77" y="-3.19702">-</tspan><tspan font-size="181" x="108" y="6.59448">A</tspan><tspan font-size="101" x="239" y="6.59448">IR</tspan></text><path d="M3945.97 1150.04 3945.97 992.036" stroke="#D9D9D9" stroke-width="4.2" stroke-miterlimit="8" fill="none" fill-rule="evenodd"/><path d="M3966.97 1137.04 3966.97 1001.04" stroke="#D9D9D9" stroke-width="4.2" stroke-miterlimit="8" fill="none" fill-rule="evenodd"/><rect x="3885" y="1188" width="19" height="112" fill="#404040"/><rect x="3910" y="1188" width="9" height="112" fill="#404040"/><rect x="3924" y="1188" width="9" height="112" fill="#404040"/><rect x="3938" y="1188" width="17" height="112" fill="#404040"/><rect x="3960" y="1188" width="5" height="112" fill="#404040"/><rect x="3970" y="1188" width="5" height="112" fill="#404040"/><rect x="3981" y="1188" width="5" height="112" fill="#404040"/><rect x="3992" y="1188" width="17" height="112" fill="#404040"/><rect x="4013" y="1188" width="5" height="112" fill="#404040"/><rect x="4024" y="1188" width="4" height="112" fill="#404040"/><rect x="4034" y="1188" width="5" height="112" fill="#404040"/><rect x="4044" y="1188" width="9" height="112" fill="#404040"/><rect x="4059" y="1188" width="9" height="112" fill="#404040"/><rect x="4073" y="1188" width="10" height="112" fill="#404040"/><rect x="4087" y="1188" width="5" height="112" fill="#404040"/><rect x="4096" y="1188" width="5" height="112" fill="#404040"/><rect x="4106" y="1188" width="5" height="112" fill="#404040"/><rect x="4115" y="1188" width="5" height="112" fill="#404040"/><rect x="4126" y="1188" width="17" height="112" fill="#404040"/><text font-family="Malgun Gothic,Malgun Gothic_MSFontService,sans-serif" font-weight="400" font-size="21" transform="matrix(-1.83697e-16 -1 1 -1.83697e-16 3928.97 1137)">Name of Passenger :<tspan font-size="21" x="-7" y="79.6838">From: Republic of Korea, ICN</tspan><tspan font-size="21" x="-7" y="105.684">To: Travel Destination</tspan><tspan font-size="19" x="-1" y="157.493">GATE</tspan><tspan font-weight="700" font-size="24" x="-1" y="185.493">K1</tspan><tspan font-weight="700" font-size="24" x="28" y="185.493">8</tspan><tspan font-size="19" x="111" y="157.493">BORADING TIME</tspan><tspan font-weight="700" font-size="24" x="151" y="185.493">10:35</tspan><tspan font-size="21" x="299" y="5.49254e-14">Carier:</tspan><tspan font-size="21" x="299" y="26">AC</tspan><tspan font-size="21" x="432" y="7.93571e-14">Flight No:</tspan><tspan font-size="21" x="432" y="26">TW 2332</tspan><tspan font-size="21" x="559" y="1.02687e-13">Class:</tspan><tspan font-size="21" x="559" y="26">A</tspan><tspan font-size="21" x="560" y="80.2673">Seat: </tspan><tspan font-size="21" x="560" y="106.267">5</tspan><tspan font-size="21" x="572" y="106.267">A</tspan><tspan font-size="21" x="431" y="80.2673">Luggage: </tspan><tspan font-size="21" x="431" y="106.267">Y</tspan><tspan font-size="15" x="420" y="175.518">ETKT</tspan><tspan font-size="15" x="457" y="175.518">555</tspan><tspan font-size="15" x="486" y="175.518">1234567890</tspan><tspan font-size="19" x="300" y="76.7124">Date:</tspan><tspan font-size="19" x="300" y="99.7124">06/15/2021</tspan><tspan fill="#FFFFFF" font-family="VITRO CORE TTF,VITRO CORE TTF_MSFontService,sans-serif" font-style="oblique" font-weight="900" font-size="24" x="-181" y="-82.7844">K</tspan><tspan fill="#FFFFFF" font-family="VITRO CORE TTF,VITRO CORE TTF_MSFontService,sans-serif" font-style="oblique" font-weight="900" font-size="24" x="-163" y="-82.7844">-</tspan><tspan fill="#FFFFFF" font-family="VITRO CORE TTF,VITRO CORE TTF_MSFontService,sans-serif" font-style="oblique" font-weight="900" font-size="24" x="-150" y="-82.7844">AIR</tspan><tspan fill="#FFFFFF" font-family="VITRO CORE TTF,VITRO CORE TTF_MSFontService,sans-serif" font-style="oblique" font-weight="900" font-size="24" x="-181" y="267.361">BOARDING</tspan><tspan fill="#FFFFFF" font-family="VITRO CORE TTF,VITRO CORE TTF_MSFontService,sans-serif" font-style="oblique" font-weight="900" font-size="24" x="-53" y="267.361">-</tspan><tspan fill="#FFFFFF" font-family="VITRO CORE TTF,VITRO CORE TTF_MSFontService,sans-serif" font-style="oblique" font-weight="900" font-size="24" x="-40" y="267.361">PASS</tspan><tspan font-size="15" x="755" y="201.322">GATE</tspan><tspan font-size="19" x="757" y="223.322">K1</tspan><tspan font-size="19" x="778" y="223.322">8</tspan><tspan font-size="15" x="822" y="200.673">BORADING TIME</tspan><tspan font-size="19" x="856" y="222.673">10:35</tspan><tspan font-size="19" x="729" y="-26.8782">Name of Passenger :</tspan><tspan font-size="16" x="727" y="31.3076">From: Republic of Korea, ICN</tspan><tspan font-size="16" x="727" y="50.3076">To: Travel Destination</tspan><tspan font-size="15" x="758" y="139.282">Seat</tspan><tspan font-size="19" x="761" y="161.282">5</tspan><tspan font-size="19" x="772" y="161.282">A</tspan><tspan font-size="15" x="861" y="139.538">Date:</tspan><tspan font-size="19" x="829" y="161.538">06/15/2021</tspan><tspan font-size="15" x="757" y="90.8203">ETKT</tspan><tspan font-size="15" x="795" y="90.8203">555</tspan><tspan font-size="15" x="824" y="90.8203">1234567890</tspan></text><path d="M3856 424 3892 424" stroke="#FFFFFF" stroke-width="6" stroke-miterlimit="8" fill="none" fill-rule="evenodd"/><path d="M3906 424 3942 424" stroke="#FFFFFF" stroke-width="6" stroke-miterlimit="8" fill="none" fill-rule="evenodd"/><path d="M3956 424 3992 424" stroke="#FFFFFF" stroke-width="6" stroke-miterlimit="8" fill="none" fill-rule="evenodd"/><path d="M4006 424 4042 424" stroke="#FFFFFF" stroke-width="6" stroke-miterlimit="8" fill="none" fill-rule="evenodd"/><path d="M4055 424 4091 424" stroke="#FFFFFF" stroke-width="6" stroke-miterlimit="8" fill="none" fill-rule="evenodd"/><path d="M4105 424 4141 424" stroke="#FFFFFF" stroke-width="6" stroke-miterlimit="8" fill="none" fill-rule="evenodd"/><path d="M4155 424 4171.75 424" stroke="#FFFFFF" stroke-width="6" stroke-miterlimit="8" fill="none" fill-rule="evenodd"/></g></svg>