<svg width="865" height="1000" xmlns="http://www.w3.org/2000/svg" xmlns:xlink="http://www.w3.org/1999/xlink" overflow="hidden"><defs><clipPath id="clip0"><rect x="209" y="-206" width="865" height="1000"/></clipPath></defs><g clip-path="url(#clip0)" transform="translate(-209 206)"><path d="M279.519-205 1002.48-205C1041.43-205 1073-173.427 1073-134.481L1073 793 209 793 209-134.481C209-173.427 240.573-205 279.519-205Z" fill="#404040" fill-rule="evenodd"/><path d="M309.725-6 973.275-6C1009.02-6 1038 22.9783 1038 58.7248L1038 793 245 793 245 58.7248C245 22.9783 273.978-6 309.725-6Z" fill="#DAE3F3" fill-rule="evenodd"/><text fill="#FFFFFF" font-family="VITRO CORE TTF,VITRO CORE TTF_MSFontService,sans-serif" font-weight="900" font-size="72" transform="translate(376.701 -67)">Self Check<tspan font-size="72" x="396.72" y="0">-</tspan>In</text><path d="M257-132.5C257-149.345 270.879-163 288-163 305.121-163 319-149.345 319-132.5 319-115.655 305.121-102 288-102 270.879-102 257-115.655 257-132.5Z" fill="#FFFFFF" fill-rule="evenodd"/><path d="M973-132.5C973-149.345 986.879-163 1004-163 1021.12-163 1035-149.345 1035-132.5 1035-115.655 1021.12-102 1004-102 986.879-102 973-115.655 973-132.5Z" fill="#FFFFFF" fill-rule="evenodd"/></g></svg>