<svg width="18" height="19" xmlns="http://www.w3.org/2000/svg" xmlns:xlink="http://www.w3.org/1999/xlink" overflow="hidden"><defs><clipPath id="clip0"><rect x="736" y="301" width="18" height="19"/></clipPath><clipPath id="clip1"><rect x="741" y="307" width="9" height="8"/></clipPath><clipPath id="clip2"><rect x="741" y="307" width="9" height="8"/></clipPath><clipPath id="clip3"><rect x="741" y="307" width="9" height="8"/></clipPath></defs><g clip-path="url(#clip0)" transform="translate(-736 -301)"><path d="M737.5 310.5C737.5 306.082 741.082 302.5 745.5 302.5 749.918 302.5 753.5 306.082 753.5 310.5 753.5 314.918 749.918 318.5 745.5 318.5 741.082 318.5 737.5 314.918 737.5 310.5Z" stroke="#FFFFFF" stroke-width="1.33333" stroke-miterlimit="8" fill="#70AD47" fill-rule="evenodd"/><g clip-path="url(#clip1)"><g clip-path="url(#clip2)"><g clip-path="url(#clip3)"><path d="M3.79167 1.66667C2.5 1.66667 1.45833 2.70833 1.45833 4 1.45833 4.40833 1.56667 4.79167 1.75 5.125 1.925 4.94167 2.11667 4.75833 2.325 4.55833 2.85 4.06667 3.46667 3.56667 3.98333 3.2 4.01667 3.175 4.05 3.15833 4.09167 3.15833 4.18333 3.15833 4.25833 3.23333 4.25833 3.325 4.25833 3.38333 4.23333 3.425 4.19167 3.45833L4.19167 3.45833C3.45 3.99167 2.46667 4.81667 1.8 5.56667 1.8 5.56667 1.70833 5.66667 1.66667 5.71667L1.66667 5.71667C1.29167 6.15833 1.04167 6.55833 1.04167 6.84167L1.54167 6.84167C1.54167 6.65833 1.83333 6.25833 2.275 5.78333 2.68333 6.13333 3.20833 6.34167 3.79167 6.34167 4.20833 6.34167 4.60833 6.23333 4.95 6.03333L4.95 6.03333C6.73333 5.04167 6.95833 3.21667 6.95833 1.16667 6.95833 1.16667 5.01667 1.7 3.79167 1.66667Z" fill="#FFFFFF" transform="matrix(1.125 0 0 1 741 307)"/></g></g></g></g></svg>