<svg width="552" height="743" xmlns="http://www.w3.org/2000/svg" xmlns:xlink="http://www.w3.org/1999/xlink" overflow="hidden"><defs><clipPath id="clip0"><rect x="319" y="-109" width="552" height="743"/></clipPath><clipPath id="clip1"><rect x="452" y="-66" width="285" height="285"/></clipPath><clipPath id="clip2"><rect x="452" y="-66" width="285" height="285"/></clipPath><clipPath id="clip3"><rect x="452" y="-66" width="285" height="285"/></clipPath><clipPath id="clip4"><rect x="320" y="292" width="222" height="222"/></clipPath><clipPath id="clip5"><rect x="320" y="292" width="222" height="222"/></clipPath><clipPath id="clip6"><rect x="320" y="292" width="222" height="222"/></clipPath></defs><g clip-path="url(#clip0)" transform="translate(-319 109)"><path d="M854.504-107.5C863.338-107.5 870.5-100.338 870.5-91.5041L870.5 245.504C870.5 254.338 863.338 261.5 854.504 261.5L336.496 261.5C327.662 261.5 320.5 254.338 320.5 245.504L320.5-91.5041C320.5-100.338 327.662-107.5 336.496-107.5Z" stroke="#C9D1D1" stroke-width="0.333333" stroke-miterlimit="8" fill="#D0E1F4" fill-rule="evenodd"/><path d="M854.504 263.5C863.338 263.5 870.5 270.662 870.5 279.496L870.5 616.504C870.5 625.338 863.338 632.5 854.504 632.5L336.496 632.5C327.662 632.5 320.5 625.338 320.5 616.504L320.5 279.496C320.5 270.662 327.662 263.5 336.496 263.5Z" stroke="#2F528F" stroke-width="1.33333" stroke-miterlimit="8" fill="#505D5D" fill-rule="evenodd"/><path d="M842.305 278C850.421 278 857 284.579 857 292.695L857 602.305C857 610.421 850.421 617 842.305 617L347.695 617C339.579 617 333 610.421 333 602.305L333 292.695C333 284.579 339.579 278 347.695 278Z" fill="#FFFFFF" fill-rule="evenodd"/><g clip-path="url(#clip1)"><g clip-path="url(#clip2)"><g clip-path="url(#clip3)"><path d="M707.312 76.5C707.312 14.1562 656.844-36.3125 594.5-36.3125 532.156-36.3125 481.688 14.1562 481.688 76.5 481.688 138.844 532.156 189.312 594.5 189.312 656.844 189.312 707.312 138.844 707.312 76.5ZM493.562 76.5C493.562 20.9844 538.984-24.4375 594.5-24.4375 595.984-24.4375 597.172-24.4375 598.656-24.4375L604-20.2812C605.484-19.0938 606.375-17.3125 606.375-15.5312L606.375-5.4375C606.375-4.25 605.781-3.35938 604.594-2.76563L583.219 7.92188C582.625 8.21875 582.328 8.51562 582.031 8.8125L579.656 12.375C578.469 14.4531 579.656 17.125 582.031 17.125L591.828 17.125C593.312 17.125 594.797 17.7188 595.984 18.9062L603.703 26.625C604.891 27.8125 604.891 29.8906 603.406 31.0781L592.125 39.9844C591.531 40.5781 590.938 41.4688 590.938 42.3594L590.938 44.4375C590.938 45.9219 590.344 47.4062 589.156 48.5937L586.781 50.9688C585.594 52.1562 585 53.6406 585 55.125L585 55.7188C585 57.5 586.188 58.6875 587.969 58.6875L595.094 58.6875C596.281 58.6875 597.172 58.0938 597.766 56.9063L598.953 54.2344C599.547 53.3438 600.438 52.4531 601.625 52.4531L606.375 52.4531C608.156 52.4531 609.344 53.6406 609.344 55.4219L609.344 62.8438C609.344 63.7344 609.938 64.625 610.531 65.2188L616.766 69.375C617.656 69.9688 618.844 70.2656 620.031 70.2656L626.266 70.2656C626.859 70.2656 627.156 70.2656 627.75 69.9688L636.656 67.8906C638.141 67.5938 639.328 68.1875 639.922 69.375L640.516 70.8594C641.109 72.3438 640.812 73.8281 639.625 74.7188 639.625 74.7188 633.984 77.3906 632.797 79.1719 632.5 79.7656 632.203 81.5469 632.797 82.1406 634.578 83.9219 640.516 83.3281 644.375 82.7344 646.453 82.4375 648.531 83.3281 650.016 85.1094L655.953 92.8281C656.547 93.7188 657.438 94.0156 658.328 94.0156L659.812 94.0156C661.594 94.0156 662.781 95.2031 662.781 96.9844 662.781 98.7656 663.969 99.9531 665.75 99.9531L666.344 99.9531C667.828 99.9531 669.016 99.0625 669.312 97.5781L670.5 92.2344C671.094 90.1562 673.469 89.2656 675.25 90.4531L680 94.0156C682.375 95.7969 683.562 98.4688 683.562 101.141L683.562 110.344C683.562 112.719 685.047 114.797 687.125 115.688 671.688 152.203 636.062 177.438 594.5 177.438 538.984 177.438 493.562 132.016 493.562 76.5Z" fill="#B4C7E7"/><path d="M533.938 127.266C534.531 126.969 535.422 126.672 536.016 126.078L553.531 114.5C555.906 113.016 555.016 109.156 552.047 109.156L549.969 109.156C548.188 109.156 547 107.969 547 106.188L547 105C547 103.812 547.594 102.922 548.781 102.328L553.828 99.9531C555.906 98.7656 555.906 95.7969 553.828 94.6094L551.156 92.2344C550.562 91.6406 550.266 90.75 550.266 90.1562L550.266 88.0781C550.266 86.5938 549.672 85.1094 548.484 83.9219L538.984 72.0469C536.906 69.6719 533.344 69.0781 530.969 70.8594L518.203 78.5781C514.938 80.6562 514.344 85.1094 517.016 87.7812L522.656 93.4219C524.734 95.5 525.031 99.0625 522.953 101.438L514.938 111.234C514.641 111.828 514.344 112.422 514.344 113.016L514.344 121.031C514.344 122.812 515.531 124 517.312 124L521.469 124C522.656 124 523.547 124.594 524.141 125.781L525.031 127.859C525.625 129.047 527.109 129.938 528.594 129.344L533.938 127.266Z" fill="#B4C7E7"/><path d="M573.719 94.3125 563.922 101.734C562.734 102.625 562.438 104.109 563.031 105.297L564.812 109.156 563.031 114.203C562.438 115.984 563.922 118.062 565.703 118.062L565.703 118.062C566.891 118.062 567.781 117.469 568.375 116.578L576.094 103.812C576.688 103.516 576.688 102.922 576.688 102.328L576.688 94.3125 573.719 94.3125Z" fill="#B4C7E7"/><path d="M571.344 71.4531 577.875 73.2344C578.766 73.5312 579.953 73.2344 580.547 72.3438 581.438 71.4531 581.734 69.6719 580.844 68.4844L576.391 62.5469C575.203 60.7656 572.234 61.0625 571.344 63.1406L569.266 67.2969C568.672 69.0781 569.562 70.8594 571.344 71.4531Z" fill="#B4C7E7"/><path d="M578.172 42.9531C579.062 41.7656 578.766 40.2812 577.875 39.0938L576.688 37.9062 562.141 55.4219C561.844 55.7188 561.844 56.0156 561.547 56.3125L559.469 62.8438C559.172 64.0312 559.469 65.2188 560.062 65.8125L561.844 67.5938C565.406 55.125 578.172 42.9531 578.172 42.9531Z" fill="#B4C7E7"/><path d="M624.188 85.4062C629.531 93.4219 635.766 102.625 644.969 100.25 645.562 99.9531 645.562 97.5781 644.969 97.2812 639.625 96.0938 635.172 94.9062 627.156 82.4375 626.562 81.8438 623.594 84.2188 624.188 85.4062Z" fill="#B4C7E7"/></g></g></g><text fill="#B4C7E7" font-family="VITRO CORE TTF,VITRO CORE TTF_MSFontService,sans-serif" font-weight="900" font-size="48" transform="matrix(6.12323e-17 1 -1 6.12323e-17 790.652 -54)">PASSPOR<tspan font-size="48" x="228" y="1.3961e-14">T</tspan><tspan font-family="Cafe24 Dangdanghae,Cafe24 Dangdanghae_MSFontService,sans-serif" font-weight="700" font-size="24" x="92" y="52.4616">여</tspan><tspan font-family="Cafe24 Dangdanghae,Cafe24 Dangdanghae_MSFontService,sans-serif" font-weight="700" font-size="24" x="148" y="52.4616">권</tspan><tspan font-family="Cafe24 Dangdanghae,Cafe24 Dangdanghae_MSFontService,sans-serif" font-weight="700" font-size="24" x="90" y="381.533">대한민국</tspan><tspan font-family="Cafe24 Dangdanghae,Cafe24 Dangdanghae_MSFontService,sans-serif" font-weight="700" font-size="24" x="27" y="410.533">Republic of Korea</tspan></text><rect x="356" y="296" width="149" height="187" fill="#F2F2F2"/><g clip-path="url(#clip4)"><g clip-path="url(#clip5)"><g clip-path="url(#clip6)"><path d="M468 361.375C468 381.81 451.435 398.375 431 398.375 410.565 398.375 394 381.81 394 361.375 394 340.94 410.565 324.375 431 324.375 451.435 324.375 468 340.94 468 361.375Z" fill="#505D5D"/><path d="M505 481.625 505 444.625C505 439.075 502.225 433.525 497.6 429.825 487.425 421.5 474.475 415.95 461.525 412.25 452.275 409.475 442.1 407.625 431 407.625 420.825 407.625 410.65 409.475 400.475 412.25 387.525 415.95 374.575 422.425 364.4 429.825 359.775 433.525 357 439.075 357 444.625L357 481.625 505 481.625Z" fill="#505D5D"/></g></g></g></g></svg>