<svg width="303" height="335" xmlns="http://www.w3.org/2000/svg" xmlns:xlink="http://www.w3.org/1999/xlink" overflow="hidden"><defs><clipPath id="clip0"><rect x="210" y="185" width="303" height="335"/></clipPath></defs><g clip-path="url(#clip0)" transform="translate(-210 -185)"><path d="M227.334 379 494.666 379C504.239 379 512 386.761 512 396.334L512 483 210 483 210 396.334C210 386.761 217.761 379 227.334 379Z" fill="#404040" fill-rule="evenodd"/><path d="M286 261C286 219.026 320.026 185 362 185 403.974 185 438 219.026 438 261 438 302.974 403.974 337 362 337 320.026 337 286 302.974 286 261Z" fill="#404040" fill-rule="evenodd"/><rect x="319" y="292" width="84" height="129" fill="#404040"/><rect x="217" y="492" width="290" height="27" fill="#404040"/></g></svg>