<svg width="403" height="1158" xmlns="http://www.w3.org/2000/svg" xmlns:xlink="http://www.w3.org/1999/xlink" overflow="hidden"><defs><clipPath id="clip0"><rect x="4280" y="174" width="403" height="1158"/></clipPath><clipPath id="clip1"><rect x="4346" y="999" width="268" height="269"/></clipPath><clipPath id="clip2"><rect x="4346" y="999" width="268" height="269"/></clipPath><clipPath id="clip3"><rect x="4346" y="999" width="268" height="269"/></clipPath></defs><g clip-path="url(#clip0)" transform="translate(-4280 -174)"><path d="M4336.05 1331C4309.51 1331 4288 1309.49 4288 1282.95L4288 223.052C4288 196.513 4309.51 175 4336.05 175L4622.95 175C4649.49 175 4671 196.513 4671 223.052L4671 1282.95C4671 1309.49 4649.49 1331 4622.95 1331Z" fill="#F2F2F2" fill-rule="evenodd"/><path d="M4287 1283.43 4287 222.569C4287 199.323 4303.57 179.928 4325.59 175.443L4330 175 4330 1331 4325.59 1330.56C4303.57 1326.07 4287 1306.68 4287 1283.43Z" fill="#EA5454" fill-rule="evenodd"/><text fill="#595959" font-family="Malgun Gothic,Malgun Gothic_MSFontService,sans-serif" font-weight="400" font-size="24" transform="translate(4295.48 422)">-------------------------------------</text><path d="M4673 222.528 4673 1282.47C4673 1305.7 4656.43 1325.08 4634.41 1329.56L4630 1330 4630 175 4634.41 175.442C4656.43 179.924 4673 199.302 4673 222.528Z" fill="#EA5454" fill-rule="evenodd"/><g clip-path="url(#clip1)"><g clip-path="url(#clip2)"><g clip-path="url(#clip3)"><path d="M188.819 117.897C196.356 112.808 205.006 107.106 202.725 98.4284 202.558 97.7609 200.111 97.7609 199.944 98.4284 198.804 103.296 197.636 107.69 186.038 115.116 185.37 115.533 187.818 118.565 188.819 117.897Z" fill="#D9D9D9" transform="matrix(-1.84385e-16 -1.00375 1 -1.83697e-16 4346 1268)"/><path d="M155.472 169.489C156.139 168.933 162.119 166.708 162.703 165.54 163.719 163.528 165.139 161.748 166.875 160.311 167.339 160.046 167.871 159.92 168.405 159.95L169.35 160.868C170.241 161.435 171.095 162.058 171.909 162.731 172.187 163.092 171.687 163.426 171.687 163.426L171.687 163.426 170.518 163.677C170.611 163.978 170.685 164.284 170.741 164.594 170.741 165.206 168.182 166.458 168.182 166.458L169.35 167.848C169.35 167.848 172.354 168.293 171.214 170.185L168.433 173.216 167.042 176.248C167.042 176.248 167.042 178.362 166.347 178.807 165.651 179.252 165.401 178.584 164.261 179.057 161.599 179.377 158.899 179.013 156.418 178 156.154 177.251 156.068 176.451 156.167 175.664 156.167 175.664 155.611 175.664 154.888 174.607 154.025 172.941 154.255 170.918 155.472 169.489Z" fill="#D9D9D9" transform="matrix(-1.84385e-16 -1.00375 1 -1.83697e-16 4346 1268)"/><path d="M144.764 182.088C142.192 179.918 139.844 177.496 137.755 174.857L136.142 173.467 130.997 167.153 129.133 165.29C129.133 165.29 128.382 164.594 128.911 164.372 130.329 164.214 131.764 164.375 133.111 164.845 133.917 165.234 138.173 170.213 138.923 170.185 139.674 170.157 140.175 169.851 140.787 170.185 141.709 170.965 142.565 171.821 143.346 172.743 143.846 172.926 144.322 173.169 144.764 173.467 145.184 174.106 145.494 174.811 145.682 175.552 146.196 176.417 146.924 177.136 147.796 177.638 149.464 178.807 148.713 178.807 148.713 178.807L148.241 180.92C148.241 180.92 148.741 183.006 148.241 183.479 147.74 183.952 147.239 183.729 144.764 182.088Z" fill="#D9D9D9" transform="matrix(-1.84385e-16 -1.00375 1 -1.83697e-16 4346 1268)"/><path d="M132.666 25.0312C74.2961 25.0312 26.9781 72.3492 26.9781 130.719 26.9781 189.088 74.2961 236.406 132.666 236.406 191.035 236.406 238.353 189.088 238.353 130.719 238.353 72.3492 191.035 25.0312 132.666 25.0312ZM183.368 50.9525C182.978 51.2863 182.951 51.9816 182.951 53.4278 182.951 56.2091 177.388 53.4278 171.826 53.4278 166.263 53.4278 157.919 56.2091 155.138 56.2091 152.357 56.2091 149.576 58.9903 146.794 58.9903 144.013 58.9903 146.349 54.9575 144.013 53.4278 129.662 43.9438 113.419 58.9903 110.638 56.2091 107.857 53.4278 96.7319 58.9903 91.9203 59.3241 87.1087 59.6578 82.8256 58.9903 85.6069 56.2091 88.3881 53.4278 85.6069 53.4278 82.8256 50.6466L82.6587 50.5075C113.503 31.2131 152.696 31.3861 183.368 50.9525ZM193.992 58.8234C233.688 92.5708 238.511 152.109 204.763 191.805 204.385 192.25 204.002 192.692 203.615 193.13 203.143 193.38 203.115 193.13 203.059 192.768 203.003 192.407 203.059 191.6 203.504 191.6 203.949 191.6 204.505 191.322 204.561 191.016 204.617 190.71 204.728 188.235 204.811 188.096 204.895 187.957 204.394 187.067 204.338 186.928 203.918 185.734 203.601 184.505 203.393 183.257 203.393 182.784 203.393 182.394 203.393 182.422 202.738 183.046 202.184 183.769 201.752 184.564 201.279 185.815 201.084 187.122 200.667 188.68 200.419 190.705 199.235 192.497 197.469 193.519 195.828 194.27 192.768 187.707 192.768 187.512 192.772 187.33 192.853 187.158 192.991 187.039 193.49 186.751 193.973 186.436 194.437 186.093 194.909 185.778 195.339 185.404 195.717 184.981 195.717 184.508 195.355 183.813 195.105 184.008 194.831 184.205 194.494 184.294 194.159 184.258 193.87 184.145 193.625 183.939 193.464 183.674 192.572 183.257 191.64 182.931 190.682 182.7 190.265 182.7 189.987 182.422 189.681 182.7 189.375 182.978 188.958 184.452 188.958 184.452 188.958 184.452 187.262 186.399 187.262 186.399 187.262 186.399 181.699 190.794 180.42 190.599 179.14 190.404 178 191.906 178 191.906 177.193 192.073 175.219 194.465 174.941 194.688 174.662 194.91 165.902 200.723 164.066 201.641 163.204 202.058 161.535 201.863 161.285 202.141 159.677 204.006 158.516 206.212 157.892 208.594 157.892 209.428 156.139 209.818 155.973 210.986 155.694 212.849 157.141 214.852 157.141 215.742 157.202 216.324 157.202 216.911 157.141 217.494 157.141 217.494 156.251 217.994 156.195 218.189 156.104 218.334 156.104 218.517 156.195 218.662 156.812 218.952 157.454 219.185 158.114 219.357 158.809 219.357 159.088 217.994 159.004 216.437L160.617 215.769C161.938 214.974 163.529 214.763 165.012 215.185 169.628 215.964 170.268 216.326 171.548 215.881 172.46 215.662 173.391 215.531 174.329 215.491 127.447 238.505 70.7861 219.157 47.7724 172.275 42.7792 162.104 39.6548 151.118 38.5481 139.841 44.8338 141.788 56.8488 140.87 68.085 131.275 71.7284 128.16 67.7791 126.463 64.8866 124.238 61.9941 122.013 79.0709 125.351 81.9634 127.02 84.8559 128.688 83.4931 131.664 83.7156 132.582 85.4965 138.042 87.6427 143.375 90.1403 148.547 94.1453 156.89 95.4525 159.393 97.01 158.503 99.1051 156.417 100.023 153.423 99.4575 150.521 99.0125 146.989 99.0125 143.652 100.932 144.708 102.851 145.765 110.082 139.674 113.531 137.004 116.979 134.334 117.174 135.03 118.732 132.137 120.289 129.245 119.622 132.582 123.07 136.532 126.519 140.481 127.604 140.787 127.048 141.899 126.491 143.012 125.824 146.544 128.688 147.657 129.269 147.915 129.951 147.756 130.357 147.267 129.94 151.884 130.913 159.115 138.006 167.376 141.037 170.908 145.098 173.133 146.349 172.187 147.601 171.242 136.42 155.5 138.2 150.966 139.98 146.433 141.732 152.524 145.432 154.721 149.131 156.918 148.213 158.058 153.052 154.721 157.892 151.383 153.72 146.739 149.937 142.984 146.155 139.229 149.27 137.867 152.19 135.586 155.11 133.305 153.942 138.367 155.917 138.534 157.892 138.701 160.144 133.667 165.012 132.554 169.879 131.442 171.214 125.907 173.161 122.069 175.107 118.231 170.769 115.95 167.598 111.945 164.427 107.94 173.912 102.906 175.219 105.688 176.526 108.469 175.858 111.25 178.723 113.28 181.588 115.311 182.7 109.692 181.504 107.718 180.308 105.743 178.723 107.718 178.723 102.155 178.723 96.5928 187.067 91.0303 189.848 91.0303 192.629 91.0303 189.848 82.6866 187.067 79.3213 184.286 75.9559 178.723 77.1241 177.305 77.7916 175.886 78.4591 178.862 74.3428 180.42 70.2544 181.977 66.1659 187.206 68.7803 187.206 68.7803L189.987 65.9991C189.987 65.9991 191.294 70.5047 192.602 70.6994 193.909 70.8941 194.159 67.3897 194.159 64.6084L194.159 59.7412Z" fill="#D9D9D9" transform="matrix(-1.84385e-16 -1.00375 1 -1.83697e-16 4346 1268)"/><path d="M191.128 163.732 198.081 172.994C198.884 174.078 200.349 174.43 201.557 173.828L205.034 172.076 209.706 173.633C211.161 174.127 212.74 173.348 213.234 171.894 213.347 171.559 213.396 171.205 213.378 170.852L213.378 170.852C213.377 169.87 212.859 168.961 212.015 168.46L200.25 161.312C199.809 161.062 199.311 160.928 198.804 160.923 198.804 160.923 191.739 160.228 191.239 160.923 190.738 161.618 191.128 163.732 191.128 163.732Z" fill="#D9D9D9" transform="matrix(-1.84385e-16 -1.00375 1 -1.83697e-16 4346 1268)"/></g></g></g><rect x="4350" y="1193" width="19" height="111" fill="#404040"/><rect x="4375" y="1193" width="9" height="111" fill="#404040"/><rect x="4389" y="1193" width="10" height="111" fill="#404040"/><rect x="4403" y="1193" width="17" height="111" fill="#404040"/><rect x="4425" y="1193" width="5" height="111" fill="#404040"/><rect x="4436" y="1193" width="5" height="111" fill="#404040"/><rect x="4446" y="1193" width="5" height="111" fill="#404040"/><rect x="4457" y="1193" width="17" height="111" fill="#404040"/><rect x="4479" y="1193" width="4" height="111" fill="#404040"/><rect x="4489" y="1193" width="5" height="111" fill="#404040"/><rect x="4499" y="1193" width="5" height="111" fill="#404040"/><rect x="4509" y="1193" width="10" height="111" fill="#404040"/><rect x="4524" y="1193" width="9" height="111" fill="#404040"/><rect x="4539" y="1193" width="9" height="111" fill="#404040"/><rect x="4552" y="1193" width="5" height="111" fill="#404040"/><rect x="4562" y="1193" width="4" height="111" fill="#404040"/><rect x="4571" y="1193" width="5" height="111" fill="#404040"/><rect x="4581" y="1193" width="5" height="111" fill="#404040"/><rect x="4591" y="1193" width="17" height="111" fill="#404040"/><text fill="#FFFFFF" font-family="VITRO CORE TTF,VITRO CORE TTF_MSFontService,sans-serif" font-style="oblique" font-weight="900" font-size="24" transform="matrix(-1.83697e-16 -1 1 -1.83697e-16 4318.48 1302)">Travel Way<tspan font-size="24" x="926" y="1.70103e-13">Travel Way</tspan><tspan font-size="24" x="8" y="341.126">BOARDING</tspan><tspan font-size="24" x="136" y="341.126">-</tspan><tspan font-size="24" x="148" y="341.126">PASS</tspan><tspan fill="#000000" font-family="Malgun Gothic,Malgun Gothic_MSFontService,sans-serif" font-style="normal" font-weight="400" font-size="21" x="162" y="74.2515">Name of Passenger :</tspan><tspan fill="#000000" font-family="Malgun Gothic,Malgun Gothic_MSFontService,sans-serif" font-style="normal" font-weight="400" font-size="21" x="155" y="153.935">From: Republic of Korea, ICN</tspan><tspan fill="#000000" font-family="Malgun Gothic,Malgun Gothic_MSFontService,sans-serif" font-style="normal" font-weight="400" font-size="21" x="155" y="179.935">To: Travel Destination</tspan><tspan fill="#000000" font-family="Malgun Gothic,Malgun Gothic_MSFontService,sans-serif" font-style="normal" font-weight="400" font-size="19" x="161" y="231.744">GATE</tspan><tspan fill="#000000" font-family="Malgun Gothic,Malgun Gothic_MSFontService,sans-serif" font-style="normal" font-weight="700" font-size="24" x="161" y="259.744">K1</tspan><tspan fill="#000000" font-family="Malgun Gothic,Malgun Gothic_MSFontService,sans-serif" font-style="normal" font-weight="700" font-size="24" x="191" y="259.744">8</tspan><tspan fill="#000000" font-family="Malgun Gothic,Malgun Gothic_MSFontService,sans-serif" font-style="normal" font-weight="400" font-size="19" x="273" y="231.744">BORADING TIME</tspan><tspan fill="#000000" font-family="Malgun Gothic,Malgun Gothic_MSFontService,sans-serif" font-style="normal" font-weight="700" font-size="24" x="313" y="259.744">10:35</tspan><tspan fill="#000000" font-family="Malgun Gothic,Malgun Gothic_MSFontService,sans-serif" font-style="normal" font-weight="400" font-size="15" x="930" y="272.809">GATE</tspan><tspan fill="#000000" font-family="Malgun Gothic,Malgun Gothic_MSFontService,sans-serif" font-style="normal" font-weight="400" font-size="19" x="932" y="294.809">K1</tspan><tspan fill="#000000" font-family="Malgun Gothic,Malgun Gothic_MSFontService,sans-serif" font-style="normal" font-weight="400" font-size="19" x="953" y="294.809">8</tspan><tspan fill="#000000" font-family="Malgun Gothic,Malgun Gothic_MSFontService,sans-serif" font-style="normal" font-weight="400" font-size="15" x="997" y="272.16">BORADING TIME</tspan><tspan fill="#000000" font-family="Malgun Gothic,Malgun Gothic_MSFontService,sans-serif" font-style="normal" font-weight="400" font-size="19" x="1031" y="294.16">10:35</tspan><tspan fill="#000000" font-family="Malgun Gothic,Malgun Gothic_MSFontService,sans-serif" font-style="normal" font-weight="400" font-size="21" x="461" y="74.2515">Carier:</tspan><tspan fill="#000000" font-family="Malgun Gothic,Malgun Gothic_MSFontService,sans-serif" font-style="normal" font-weight="400" font-size="21" x="461" y="100.251">AC</tspan><tspan fill="#000000" font-family="Malgun Gothic,Malgun Gothic_MSFontService,sans-serif" font-style="normal" font-weight="400" font-size="21" x="595" y="74.2515">Flight No:</tspan><tspan fill="#000000" font-family="Malgun Gothic,Malgun Gothic_MSFontService,sans-serif" font-style="normal" font-weight="400" font-size="21" x="595" y="100.251">TW 2332</tspan><tspan fill="#000000" font-family="Malgun Gothic,Malgun Gothic_MSFontService,sans-serif" font-style="normal" font-weight="400" font-size="21" x="721" y="74.2515">Class:</tspan><tspan fill="#000000" font-family="Malgun Gothic,Malgun Gothic_MSFontService,sans-serif" font-style="normal" font-weight="400" font-size="21" x="721" y="100.251">A</tspan><tspan fill="#000000" font-family="Malgun Gothic,Malgun Gothic_MSFontService,sans-serif" font-style="normal" font-weight="400" font-size="21" x="722" y="154.519">Seat: </tspan><tspan fill="#000000" font-family="Malgun Gothic,Malgun Gothic_MSFontService,sans-serif" font-style="normal" font-weight="400" font-size="21" x="722" y="180.519">5</tspan><tspan fill="#000000" font-family="Malgun Gothic,Malgun Gothic_MSFontService,sans-serif" font-style="normal" font-weight="400" font-size="21" x="734" y="180.519">A</tspan><tspan fill="#000000" font-family="Malgun Gothic,Malgun Gothic_MSFontService,sans-serif" font-style="normal" font-weight="400" font-size="21" x="593" y="154.519">Luggage: </tspan><tspan fill="#000000" font-family="Malgun Gothic,Malgun Gothic_MSFontService,sans-serif" font-style="normal" font-weight="400" font-size="21" x="593" y="180.519">Y</tspan><tspan fill="#000000" font-family="Malgun Gothic,Malgun Gothic_MSFontService,sans-serif" font-style="normal" font-weight="400" font-size="15" x="582" y="249.769">ETKT</tspan><tspan fill="#000000" font-family="Malgun Gothic,Malgun Gothic_MSFontService,sans-serif" font-style="normal" font-weight="400" font-size="15" x="619" y="249.769">555</tspan><tspan fill="#000000" font-family="Malgun Gothic,Malgun Gothic_MSFontService,sans-serif" font-style="normal" font-weight="400" font-size="15" x="648" y="249.769">1234567890</tspan><tspan fill="#000000" font-family="Malgun Gothic,Malgun Gothic_MSFontService,sans-serif" font-style="normal" font-weight="400" font-size="19" x="462" y="150.964">Date:</tspan><tspan fill="#000000" font-family="Malgun Gothic,Malgun Gothic_MSFontService,sans-serif" font-style="normal" font-weight="400" font-size="19" x="462" y="173.964">06/15/2021</tspan><tspan fill="#000000" font-family="Malgun Gothic,Malgun Gothic_MSFontService,sans-serif" font-style="normal" font-weight="400" font-size="19" x="904" y="44.6084">Name of Passenger :</tspan><tspan fill="#000000" font-family="Malgun Gothic,Malgun Gothic_MSFontService,sans-serif" font-style="normal" font-weight="400" font-size="16" x="902" y="102.794">From: Republic of Korea, ICN</tspan><tspan fill="#000000" font-family="Malgun Gothic,Malgun Gothic_MSFontService,sans-serif" font-style="normal" font-weight="400" font-size="16" x="902" y="121.794">To: Travel Destination</tspan><tspan fill="#000000" font-family="Malgun Gothic,Malgun Gothic_MSFontService,sans-serif" font-style="normal" font-weight="400" font-size="15" x="934" y="210.769">Seat</tspan><tspan fill="#000000" font-family="Malgun Gothic,Malgun Gothic_MSFontService,sans-serif" font-style="normal" font-weight="400" font-size="19" x="936" y="232.769">5</tspan><tspan fill="#000000" font-family="Malgun Gothic,Malgun Gothic_MSFontService,sans-serif" font-style="normal" font-weight="400" font-size="19" x="947" y="232.769">A</tspan><tspan fill="#000000" font-family="Malgun Gothic,Malgun Gothic_MSFontService,sans-serif" font-style="normal" font-weight="400" font-size="15" x="1036" y="211.024">Date:</tspan><tspan fill="#000000" font-family="Malgun Gothic,Malgun Gothic_MSFontService,sans-serif" font-style="normal" font-weight="400" font-size="19" x="1005" y="233.024">06/15/2021</tspan><tspan fill="#000000" font-family="Malgun Gothic,Malgun Gothic_MSFontService,sans-serif" font-style="normal" font-weight="400" font-size="15" x="933" y="162.307">ETKT</tspan><tspan fill="#000000" font-family="Malgun Gothic,Malgun Gothic_MSFontService,sans-serif" font-style="normal" font-weight="400" font-size="15" x="970" y="162.307">555</tspan><tspan fill="#000000" font-family="Malgun Gothic,Malgun Gothic_MSFontService,sans-serif" font-style="normal" font-weight="400" font-size="15" x="999" y="162.307">1234567890</tspan></text></g></svg>