<svg width="371" height="552" xmlns="http://www.w3.org/2000/svg" xmlns:xlink="http://www.w3.org/1999/xlink" overflow="hidden"><defs><clipPath id="clip0"><rect x="433" y="72" width="371" height="552"/></clipPath><clipPath id="clip1"><rect x="474" y="193" width="285" height="285"/></clipPath><clipPath id="clip2"><rect x="474" y="193" width="285" height="285"/></clipPath><clipPath id="clip3"><rect x="474" y="193" width="285" height="285"/></clipPath></defs><g clip-path="url(#clip0)" transform="translate(-433 -72)"><path d="M434.5 90.4963C434.5 81.6618 441.662 74.5001 450.496 74.5001L787.504 74.5001C796.338 74.5001 803.5 81.6618 803.5 90.4963L803.5 607.504C803.5 616.338 796.338 623.5 787.504 623.5L450.496 623.5C441.662 623.5 434.5 616.338 434.5 607.504Z" stroke="#2F528F" stroke-width="1.33333" stroke-miterlimit="8" fill="#505D5D" fill-rule="evenodd"/><text fill="#C0AA7B" font-family="VITRO CORE TTF,VITRO CORE TTF_MSFontService,sans-serif" font-weight="900" font-size="48" transform="translate(487.466 172)">PASSPOR<tspan font-size="48" x="227.913" y="0">T</tspan></text><g clip-path="url(#clip1)"><g clip-path="url(#clip2)"><g clip-path="url(#clip3)"><path d="M616.5 222.688C554.156 222.688 503.688 273.156 503.688 335.5 503.688 397.844 554.156 448.312 616.5 448.312 678.844 448.312 729.312 397.844 729.312 335.5 729.312 273.156 678.844 222.688 616.5 222.688ZM616.5 436.438C560.984 436.438 515.562 391.016 515.562 335.5 515.562 334.016 515.562 332.828 515.562 331.344L519.719 326C520.906 324.516 522.688 323.625 524.469 323.625L534.562 323.625C535.75 323.625 536.641 324.219 537.234 325.406L547.922 346.781C548.219 347.375 548.516 347.672 548.812 347.969L552.375 350.344C554.453 351.531 557.125 350.344 557.125 347.969L557.125 338.172C557.125 336.688 557.719 335.203 558.906 334.016L566.625 326.297C567.812 325.109 569.891 325.109 571.078 326.594L579.984 337.875C580.578 338.469 581.469 339.062 582.359 339.062L584.438 339.062C585.922 339.062 587.406 339.656 588.594 340.844L590.969 343.219C592.156 344.406 593.641 345 595.125 345L595.719 345C597.5 345 598.688 343.812 598.688 342.031L598.688 334.906C598.688 333.719 598.094 332.828 596.906 332.234L594.234 331.047C593.344 330.453 592.453 329.562 592.453 328.375L592.453 323.625C592.453 321.844 593.641 320.656 595.422 320.656L602.844 320.656C603.734 320.656 604.625 320.062 605.219 319.469L609.375 313.234C609.969 312.344 610.266 311.156 610.266 309.969L610.266 303.734C610.266 303.141 610.266 302.844 609.969 302.25L607.891 293.344C607.594 291.859 608.188 290.672 609.375 290.078L610.859 289.484C612.344 288.891 613.828 289.188 614.719 290.375 614.719 290.375 617.391 296.016 619.172 297.203 619.766 297.5 621.547 297.797 622.141 297.203 623.922 295.422 623.328 289.484 622.734 285.625 622.438 283.547 623.328 281.469 625.109 279.984L632.828 274.047C633.719 273.453 634.016 272.562 634.016 271.672L634.016 270.188C634.016 268.406 635.203 267.219 636.984 267.219 638.766 267.219 639.953 266.031 639.953 264.25L639.953 263.656C639.953 262.172 639.062 260.984 637.578 260.688L632.234 259.5C630.156 258.906 629.266 256.531 630.453 254.75L634.016 250C635.797 247.625 638.469 246.438 641.141 246.438L650.344 246.438C652.719 246.438 654.797 244.953 655.688 242.875 692.203 258.312 717.438 293.938 717.438 335.5 717.438 391.016 672.016 436.438 616.5 436.438Z" fill="#C0AA7B"/><path d="M667.266 396.062C666.969 395.469 666.672 394.578 666.078 393.984L654.5 376.469C653.016 374.094 649.156 374.984 649.156 377.953L649.156 380.031C649.156 381.812 647.969 383 646.188 383L645 383C643.812 383 642.922 382.406 642.328 381.219L639.953 376.172C638.766 374.094 635.797 374.094 634.609 376.172L632.234 378.844C631.641 379.438 630.75 379.734 630.156 379.734L628.078 379.734C626.594 379.734 625.109 380.328 623.922 381.516L612.047 391.016C609.672 393.094 609.078 396.656 610.859 399.031L618.578 411.797C620.656 415.062 625.109 415.656 627.781 412.984L633.422 407.344C635.5 405.266 639.062 404.969 641.438 407.047L651.234 415.062C651.828 415.359 652.422 415.656 653.016 415.656L661.031 415.656C662.812 415.656 664 414.469 664 412.688L664 408.531C664 407.344 664.594 406.453 665.781 405.859L667.859 404.969C669.047 404.375 669.938 402.891 669.344 401.406L667.266 396.062Z" fill="#C0AA7B"/><path d="M634.312 356.281 641.734 366.078C642.625 367.266 644.109 367.562 645.297 366.969L649.156 365.188 654.203 366.969C655.984 367.562 658.062 366.078 658.062 364.297L658.062 364.297C658.062 363.109 657.469 362.219 656.578 361.625L643.812 353.906C643.516 353.312 642.922 353.312 642.328 353.312L634.312 353.312 634.312 356.281Z" fill="#C0AA7B"/><path d="M611.453 358.656 613.234 352.125C613.531 351.234 613.234 350.047 612.344 349.453 611.453 348.562 609.672 348.266 608.484 349.156L602.547 353.609C600.766 354.797 601.062 357.766 603.141 358.656L607.297 360.734C609.078 361.328 610.859 360.438 611.453 358.656Z" fill="#C0AA7B"/><path d="M582.953 351.828C581.766 350.938 580.281 351.234 579.094 352.125L577.906 353.312 595.422 367.859C595.719 368.156 596.016 368.156 596.312 368.453L602.844 370.531C604.031 370.828 605.219 370.531 605.812 369.938L607.594 368.156C595.125 364.594 582.953 351.828 582.953 351.828Z" fill="#C0AA7B"/><path d="M625.406 305.812C633.422 300.469 642.625 294.234 640.25 285.031 639.953 284.438 637.578 284.438 637.281 285.031 636.094 290.375 634.906 294.828 622.438 302.844 621.844 303.438 624.219 306.406 625.406 305.812Z" fill="#C0AA7B"/></g></g></g><text fill="#C0AA7B" font-family="Cafe24 Dangdanghae,Cafe24 Dangdanghae_MSFontService,sans-serif" font-weight="700" font-size="24" transform="translate(579.648 574)">여<tspan font-size="24" x="56.3333" y="0">권</tspan><tspan font-size="24" x="-3.64734" y="-81">대</tspan>한민국<tspan font-size="24" x="-66.8674" y="-52">Republic of Korea</tspan></text></g></svg>